<?xml version="1.0" encoding="utf-8"?>
<!-- Generator: Adobe Illustrator 21.1.0, SVG Export Plug-In . SVG Version: 6.00 Build 0)  -->
<svg version="1.1" id="Layer_1" xmlns="http://www.w3.org/2000/svg" xmlns:xlink="http://www.w3.org/1999/xlink" x="0px" y="0px"
	 viewBox="0 0 500 500" style="enable-background:new 0 0 500 500;" xml:space="preserve">
<path d="M434,69.1H14.1C7.5,69,2.1,74.3,2,80.9v0.2v303c0,6.6,5.4,12,12,12h291.2c6,0.1,11.1-4.1,12.2-10c1.1-6.5-3.3-12.7-9.8-13.8
	c-0.7-0.1-1.3-0.2-2-0.2H26v-163h396V256c-0.1,6.3,4.6,11.6,10.9,12.3c6.6,0.6,12.4-4.2,13-10.8c0-0.4,0.1-0.7,0.1-1.1V81.1
	C446,74.5,440.6,69.1,434,69.1L434,69.1z M422,157.1H26v-64h396V157.1z"/>
<path d="M499.2,384.1c0,6.6-5.4,12-12,12h-41.4v41.4c0,6.6-5.4,12-12,12s-12-5.4-12-12l0,0v-41.4H381c-6.6,0-12-5.4-12-12
	s5.4-12,12-12h40.9v-40.9c0-6.6,5.4-12,12-12s12,5.4,12,12v40.9h41.4C493.9,372.1,499.2,377.4,499.2,384.1z"/>
</svg>
