<?xml version="1.0" encoding="utf-8"?>
<!-- Generator: Adobe Illustrator 21.1.0, SVG Export Plug-In . SVG Version: 6.00 Build 0)  -->
<svg version="1.1" id="Layer_1" xmlns="http://www.w3.org/2000/svg" xmlns:xlink="http://www.w3.org/1999/xlink" x="0px" y="0px"
	 viewBox="0 0 500 500" style="enable-background:new 0 0 500 500;" xml:space="preserve">
<style type="text/css">
	.st0{fill:#231F20;}
</style>
<path d="M234,275.5c0,9,7.3,17.5,16.3,18.3c9.9,0.9,18.7-6.4,19.6-16.3c0.1-0.6,0.1-1.2,0.1-1.7v-160c0-9-7.3-17.5-16.3-18.3
	c-9.9-0.9-18.7,6.4-19.6,16.3c-0.1,0.6-0.1,1.2-0.1,1.7L234,275.5z"/>
<path d="M230.2,358.8c0,12,9.7,21.7,21.8,21.7c12,0,21.7-9.7,21.7-21.8c0-12-9.7-21.7-21.8-21.7c-12,0-21.7,9.7-21.8,21.6
	C230.2,358.7,230.2,358.7,230.2,358.8L230.2,358.8z"/>
<path class="st0" d="M250,26.3c93.3,0,178.8,60.1,210.4,147.9c31.9,88.6,3.3,190.2-69.9,249.5c-72.1,58.4-175.9,65.5-255.4,17.9
	C56,394.3,13.4,300,30.1,209.3C49.5,104.6,143.5,26.3,250,26.3 M250,2.3C146.5,2.3,51.5,69.2,16.8,166.8
	c-34.4,96.5-4.1,207,74.3,272.8c80.3,67.3,197.9,76.3,287.4,21.8c87.2-53.1,133.6-157.1,114.8-257.5C471.6,88.4,367.5,2.3,250,2.3
	L250,2.3z"/>
</svg>
