<?xml version="1.0" encoding="utf-8"?>
<!-- Generator: Adobe Illustrator 22.0.1, SVG Export Plug-In . SVG Version: 6.00 Build 0)  -->
<svg version="1.1" id="Layer_1" xmlns="http://www.w3.org/2000/svg" xmlns:xlink="http://www.w3.org/1999/xlink" x="0px" y="0px"
	 viewBox="0 0 500 500" style="enable-background:new 0 0 500 500;" xml:space="preserve">
<style type="text/css">
	.st0{fill:#020303;}
</style>
<g>
	<path class="st0" d="M421.1,309.8c-9.8,0-18.7,3.9-25.2,10.3c-0.5-0.4-0.9-1-1.6-1.3l-46.9-25.5v-81.1l39.6-21.6
		c6.1,4.7,13.6,7.6,21.9,7.6c19.7,0,35.8-15.9,35.8-35.5c0-19.6-16-35.5-35.8-35.5c-19.7,0-35.8,15.9-35.8,35.5c0,3.1,0.5,6,1.3,8.8
		l-32.9,17.9l-85.8-48.9V89.8c14.1-4.8,24.4-17.9,24.4-33.5c0-19.6-16-35.5-35.8-35.5s-35.8,15.9-35.8,35.5
		c0,15.6,10.3,28.7,24.4,33.5v50.8l-81.2,46.3l-37.3-20.2c0,0-0.1,0-0.1,0c0.1-1.3,0.4-2.6,0.4-3.9c0-19.6-16.1-35.5-35.8-35.5
		s-35.8,15.9-35.8,35.5c0,19.6,16.1,35.5,35.8,35.5c10.1,0,19.2-4.2,25.7-10.9l36.5,19.9v90.4l-36.1,20.6c-0.7,0.4-1.1,1-1.7,1.5
		c-6.4-6-15-9.8-24.6-9.8c-19.7,0-35.8,15.9-35.8,35.5s16.1,35.5,35.8,35.5s35.8-15.9,35.8-35.5c0-2.3-0.3-4.5-0.7-6.7
		c0.8-0.2,1.7-0.2,2.4-0.7l36.1-20.7l80.1,45.7l-1.1,47.2c-14.1,4.7-24.4,17.9-24.4,33.5c0,19.6,16.1,35.5,35.8,35.5
		s35.8-15.9,35.8-35.5c0-15.6-10.2-28.7-24.3-33.5l1.1-47.1l84.3-48.1l43.6,23.7c0.8,0.4,1.6,0.4,2.4,0.6c-0.3,1.9-0.6,3.8-0.6,5.8
		c0,19.6,16,35.5,35.8,35.5c19.7,0,35.8-15.9,35.8-35.5S440.8,309.8,421.1,309.8z M78.9,175.4c-7.2,0-13-5.7-13-12.7
		s5.8-12.7,13-12.7c7.2,0,13,5.7,13,12.7S86.1,175.4,78.9,175.4z M78.9,357.9c-7.2,0-13-5.7-13-12.7s5.8-12.7,13-12.7
		c7.2,0,13,5.7,13,12.7S86.1,357.9,78.9,357.9z M409,150.1c7.2,0,13,5.7,13,12.7c0,7-5.8,12.7-13,12.7c-7.2,0-13-5.7-13-12.7
		C396,155.7,401.8,150.1,409,150.1z M244.3,43.6c7.2,0,13,5.7,13,12.7s-5.8,12.7-13,12.7s-13-5.7-13-12.7S237.2,43.6,244.3,43.6z
		 M243,456.4c-7.2,0-13-5.7-13-12.7s5.8-12.7,13-12.7c7.2,0,13,5.7,13,12.7S250.2,456.4,243,456.4z M324.6,297.5l-80.3,45.8
		L164,297.5v-91.4l80.3-45.8l80.3,45.8V297.5z M421.1,357.9c-7.2,0-13-5.7-13-12.7s5.8-12.7,13-12.7c7.2,0,13,5.7,13,12.7
		S428.2,357.9,421.1,357.9z"/>
	<path class="st0" d="M207.7,250.2c0,19.6,16,35.5,35.8,35.5c19.7,0,35.8-15.9,35.8-35.5c0-19.6-16.1-35.5-35.8-35.5
		C223.7,214.7,207.7,230.6,207.7,250.2z M256.4,250.2c0,7-5.8,12.7-13,12.7c-7.2,0-13-5.7-13-12.7c0-7,5.8-12.7,13-12.7
		C250.6,237.5,256.4,243.2,256.4,250.2z"/>
</g>
</svg>
