<?xml version="1.0" encoding="utf-8"?>
<!-- Generator: Adobe Illustrator 21.1.0, SVG Export Plug-In . SVG Version: 6.00 Build 0)  -->
<svg version="1.1" id="Layer_1" xmlns="http://www.w3.org/2000/svg" xmlns:xlink="http://www.w3.org/1999/xlink" x="0px" y="0px"
	 viewBox="0 0 500 500" style="enable-background:new 0 0 500 500;" xml:space="preserve">
<path d="M457.6,363.7l-35.8,27.8v-21.9H280.9V250.4h-23.5v201.3h21.9L250,487.5l-29.3-35.7h21.9V250.4h-23.5v119.2H78.2v21.9
	l-35.7-27.9l35.7-30.7v21.9h126.7V250.4h-21v50.3h-45.2v21.9L103,294.7l35.7-30.8v21.9h31v-35.4h-44.8c-42.6,0-77-34.5-77-77
	s34.5-77,77-77c1.8,0,3.5,0.1,5.3,0.3c10.9-29.4,39-50.4,72.2-50.4c10.1,0,19.8,2,28.6,5.6c13.2-23.4,38.3-39.3,67.1-39.3
	c42.6,0,77,34.5,77,77c0,2.3-0.1,4.6-0.3,6.8c0.1,0,0.2,0,0.3,0c42.6,0,77,34.5,77,77s-34.5,77-77,77h-44.8v35.4h30.9V264l35.7,30.8
	l-35.7,27.9v-21.9h-45.1v-50.3h-21v104.4h126.7v-21.9L457.6,363.7z"/>
</svg>
