<?xml version="1.0" encoding="utf-8"?>
<!-- Generator: Adobe Illustrator 21.0.2, SVG Export Plug-In . SVG Version: 6.00 Build 0)  -->
<svg version="1.1" id="Layer_1" xmlns="http://www.w3.org/2000/svg" xmlns:xlink="http://www.w3.org/1999/xlink" x="0px" y="0px"
	 viewBox="0 0 500 500" style="enable-background:new 0 0 500 500;" xml:space="preserve">
<title>clone</title>
<g>
	<g>
		<path d="M451.4,422.6l-45.9-68.9V213.5c0-82.1-63.5-149.6-144-156v-36c0-6.9-5.6-12.5-12.5-12.5s-12.5,5.6-12.5,12.5v36
			c-80.5,6.4-144,73.9-144,156v140.2l-45.9,68.9c-2.6,3.8-2.8,8.8-0.6,12.8c2.2,4.1,6.4,6.6,11,6.6h132.8c5.8,27.4,30.1,48,59.2,48
			s53.4-20.6,59.2-48H441c4.6,0,8.8-2.5,11-6.6C454.2,431.3,454,426.4,451.4,422.6z M249,465c-15.2,0-28.2-9.6-33.2-23h66.4
			C277.2,455.4,264.2,465,249,465z M80.4,417l35-52.6c1.4-2,2.1-4.5,2.1-6.9v-144C117.5,141,176.5,82,249,82s131.5,59,131.5,131.5
			v144c0,2.5,0.7,4.9,2.1,6.9l35,52.6H80.4z"/>
	</g>
</g>
</svg>
