<?xml version="1.0" encoding="utf-8"?>
<!-- Generator: Adobe Illustrator 21.1.0, SVG Export Plug-In . SVG Version: 6.00 Build 0)  -->
<svg version="1.1" id="Layer_1" xmlns="http://www.w3.org/2000/svg" xmlns:xlink="http://www.w3.org/1999/xlink" x="0px" y="0px"
	 viewBox="0 0 500 500" style="enable-background:new 0 0 500 500;" xml:space="preserve">
<style type="text/css">
	.st0{fill:#231F20;}
</style>
<path class="st0" d="M250,2.3C146.5,2.3,51.5,69.2,16.8,166.8c-34.4,96.5-4.1,207,74.3,272.8c80.3,67.3,197.9,76.3,287.4,21.8
	c87.2-53.1,133.6-157.1,114.8-257.5C471.6,88.4,367.5,2.3,250,2.3L250,2.3z M44,336.8C4,242,35.7,129.3,118.8,68.9
	C203,7.7,322.2,14,399.5,83.7L123,360.3l-39.1,39.1C67.2,380.9,53.7,359.8,44,336.8z M408,407.9c-82.8,82.7-220,86.7-307.1,8.5
	l276.6-276.5l39.1-39.1C494.8,187.9,490.8,325.1,408,407.9z"/>
</svg>
