<?xml version="1.0" encoding="utf-8"?>
<!-- Generator: Adobe Illustrator 21.1.0, SVG Export Plug-In . SVG Version: 6.00 Build 0)  -->
<svg version="1.1" id="Layer_1" xmlns="http://www.w3.org/2000/svg" xmlns:xlink="http://www.w3.org/1999/xlink" x="0px" y="0px"
	 viewBox="0 0 500 500" style="enable-background:new 0 0 500 500;" xml:space="preserve">
<circle cx="140.7" cy="245.8" r="27.3"/>
<circle cx="140.7" cy="355.2" r="27.3"/>
<circle cx="250" cy="245.8" r="27.3"/>
<circle cx="250" cy="355.2" r="27.3"/>
<circle cx="359.3" cy="245.8" r="27.3"/>
<circle cx="359.3" cy="355.2" r="27.3"/>
<path d="M488,100H371V47.7c0.1-5.9-4.2-11.1-10-12.2c-6.5-1.1-12.7,3.3-13.8,9.8c-0.1,0.7-0.2,1.3-0.2,2V100H153V47.7
	c0.1-6-4.1-11.1-10-12.2c-6.5-1.1-12.7,3.3-13.8,9.8c-0.1,0.7-0.2,1.3-0.2,2V100H12c-4.4,0-8,3.6-8,8v339c0,4.4,3.6,8,8,8h476
	c4.4,0,8-3.6,8-8V108C496,103.6,492.4,100,488,100z M472,431H28V124h101v30.4c-0.1,5.9,4.2,11.1,10,12.1c6.5,1.1,12.7-3.3,13.8-9.8
	c0.1-0.7,0.2-1.3,0.2-2V124h194v30.3c-0.1,6,4.1,11.1,10,12.2c6.5,1.1,12.7-3.3,13.8-9.8c0.1-0.7,0.2-1.3,0.2-2V124h101V431z"/>
</svg>
