<?xml version="1.0" encoding="utf-8"?>
<!-- Generator: Adobe Illustrator 21.1.0, SVG Export Plug-In . SVG Version: 6.00 Build 0)  -->
<svg version="1.1" id="Layer_1" xmlns="http://www.w3.org/2000/svg" xmlns:xlink="http://www.w3.org/1999/xlink" x="0px" y="0px"
	 viewBox="0 0 500 500" style="enable-background:new 0 0 500 500;" xml:space="preserve">
<style type="text/css">
	.st0{fill:#231F20;}
</style>
<path class="st0" d="M459.1,2.5H40.5c-21,0-38,17-38,38v418.6c0,21,17,38,38,38h418.6c21,0,38-17,38-38V40.5
	C497.1,19.5,480,2.5,459.1,2.5L459.1,2.5z M434.2,167.7L216.8,385.1c-4,4-9.3,6-14.5,6c-5.3,0-10.5-2-14.5-6l-124-124
	c-3.9-3.9-6-9.1-6-14.5c0-5.5,2.1-10.7,6-14.5c8-8,21.1-8,29.1,0l109.4,109.4l202.9-202.9c3.9-3.9,9.1-6,14.5-6
	c5.5,0,10.7,2.1,14.5,6c3.9,3.9,6,9.1,6,14.5C440.3,158.6,438.1,163.8,434.2,167.7"/>
</svg>
