<?xml version="1.0" encoding="utf-8"?>
<!-- Generator: Adobe Illustrator 21.1.0, SVG Export Plug-In . SVG Version: 6.00 Build 0)  -->
<svg version="1.1" id="Layer_1" xmlns="http://www.w3.org/2000/svg" xmlns:xlink="http://www.w3.org/1999/xlink" x="0px" y="0px"
	 viewBox="0 0 500 500" style="enable-background:new 0 0 500 500;" xml:space="preserve">
<style type="text/css">
	.st0{fill:#231F20;}
</style>
<path class="st0" d="M459.1,28.5c6.6,0,12,5.4,12,12v418.6c0,6.6-5.4,12-12,12H40.5c-6.6,0-12-5.4-12-12V40.5c0-6.6,5.4-12,12-12
	H459.1 M459.1,2.5H40.5c-21,0-38,17-38,38v418.6c0,21,17,38,38,38h418.6c21,0,38-17,38-38V40.5C497.1,19.5,480,2.5,459.1,2.5
	L459.1,2.5z"/>
</svg>
