<?xml version="1.0" encoding="utf-8"?>
<!-- Generator: Adobe Illustrator 21.1.0, SVG Export Plug-In . SVG Version: 6.00 Build 0)  -->
<svg version="1.1" id="Layer_1" xmlns="http://www.w3.org/2000/svg" xmlns:xlink="http://www.w3.org/1999/xlink" x="0px" y="0px"
	 viewBox="0 0 500 500" style="enable-background:new 0 0 500 500;" xml:space="preserve">
<style type="text/css">
	.st0{fill:#231F20;}
</style>
<g>
	<g>
		<path class="st0" d="M446.1,484.6c4.7,0,9.3-1.8,12.8-5.4c7-7.1,6.9-18.5-0.2-25.5L251.2,250L458.5,46.2c7.1-7,7.2-18.4,0.2-25.5
			s-18.4-7.2-25.5-0.2L212.9,237.2c-3.4,3.4-5.4,8-5.4,12.8s1.9,9.5,5.4,12.8l220.5,216.6C437,482.9,441.5,484.6,446.1,484.6z"/>
	</g>
</g>
<g>
	<g>
		<path class="st0" d="M270.1,484.6c4.7,0,9.3-1.8,12.8-5.4c7-7.1,6.9-18.5-0.2-25.5L75.2,250L282.5,46.2c7.1-7,7.2-18.4,0.2-25.5
			s-18.4-7.2-25.5-0.2L36.9,237.2c-3.4,3.4-5.4,8-5.4,12.8s1.9,9.5,5.4,12.8l220.5,216.6C261,482.9,265.5,484.6,270.1,484.6z"/>
	</g>
</g>
</svg>
