<?xml version="1.0" encoding="utf-8"?>
<!-- Generator: Adobe Illustrator 21.1.0, SVG Export Plug-In . SVG Version: 6.00 Build 0)  -->
<svg version="1.1" id="Layer_1" xmlns="http://www.w3.org/2000/svg" xmlns:xlink="http://www.w3.org/1999/xlink" x="0px" y="0px"
	 viewBox="0 0 500 500" style="enable-background:new 0 0 500 500;" xml:space="preserve">
<title>clone</title>
<path d="M481.6,6.2H150.4c-6.6,0-12,5.4-12,12v120h-121c-6.6,0-12,5.4-12,12v331.1c0,6.6,5.4,12,12,12l0,0h331.1c6.6,0,12-5.4,12-12
	l0,0v-120h121c6.6,0,12-5.4,12-12V18.2C493.6,11.6,488.2,6.2,481.6,6.2z M336.6,469.4H29.4V162.2h109v187.1c0,6.6,5.4,12,12,12
	h186.1V469.4z M469.6,337.4H162.4V30.2h307.1V337.4z"/>
</svg>
