<?xml version="1.0" encoding="utf-8"?>
<!-- Generator: Adobe Illustrator 21.1.0, SVG Export Plug-In . SVG Version: 6.00 Build 0)  -->
<svg version="1.1" id="Layer_1" xmlns="http://www.w3.org/2000/svg" xmlns:xlink="http://www.w3.org/1999/xlink" x="0px" y="0px"
	 viewBox="0 0 500 500" style="enable-background:new 0 0 500 500;" xml:space="preserve">
<path d="M481.5,481.5c-4.7,4.7-12.3,4.7-17,0L247.7,264.7L35.5,477c-4.7,4.7-12.3,4.7-17,0c-4.7-4.7-4.7-12.3,0-17l0,0l212.2-212.2
	L18.5,35.5c-4.7-4.7-4.7-12.3,0-17s12.3-4.7,17,0l212.2,212.2L460,18.5c4.7-4.7,12.3-4.7,17,0c4.7,4.7,4.7,12.3,0,17L264.7,247.7
	l216.7,216.7C486.2,469.2,486.2,476.8,481.5,481.5z"/>
</svg>
