<?xml version="1.0" encoding="utf-8"?>
<!-- Generator: Adobe Illustrator 21.0.2, SVG Export Plug-In . SVG Version: 6.00 Build 0)  -->
<svg version="1.1" id="Layer_1" xmlns="http://www.w3.org/2000/svg" xmlns:xlink="http://www.w3.org/1999/xlink" x="0px" y="0px"
	 viewBox="0 0 500 500" style="enable-background:new 0 0 500 500;" xml:space="preserve">
<style type="text/css">
	.st0{fill:#231F20;}
</style>
<title>Portal_IconFont-shapes</title>
<path class="st0" d="M249.5,26.4C373,26.5,473,126.6,472.9,250.1c-0.1,89.7-53.8,170.7-136.4,205.7c-113.7,48-244.9-5.2-292.9-118.9
	S48.8,92,162.5,43.9C190,32.3,219.6,26.3,249.5,26.4 M249.5,2.4C112.8,2.4,2,113.2,2,249.9s110.8,247.5,247.5,247.5
	S497,386.6,497,249.9S386.2,2.4,249.5,2.4L249.5,2.4z"/>
<path d="M169.9,349.1c-2.9,0-5.7-1.2-7.8-3.2l-88-87.6c-4.3-4.3-4.4-11.2-0.1-15.6c0,0,0.1-0.1,0.1-0.1l87.9-86.5
	c4.3-4.3,11.3-4.2,15.6,0.1c4.3,4.3,4.2,11.3-0.1,15.6l0,0l-80,78.7l80.1,79.8c4.3,4.3,4.3,11.3,0,15.6
	C175.6,347.9,172.8,349.1,169.9,349.1L169.9,349.1z"/>
<path d="M328.2,349.1c-6.1,0-11-4.9-11-11c0-2.9,1.2-5.7,3.2-7.8l80.1-79.8l-80-78.7c-4.3-4.3-4.4-11.2-0.1-15.6s11.2-4.4,15.6-0.1
	l87.9,86.5c4.3,4.3,4.4,11.2,0.1,15.6c0,0-0.1,0.1-0.1,0.1L336,345.9C333.9,348,331.1,349.1,328.2,349.1z"/>
<path d="M217.5,382c-6.1,0-11-4.9-11-11c0-1.1,0.1-2.1,0.4-3.1l72.4-247c1.8-5.8,7.9-9.1,13.7-7.3c5.7,1.7,9,7.7,7.4,13.5l-72.4,247
	C226.7,378.8,222.4,382,217.5,382z"/>
</svg>
