<?xml version="1.0" encoding="utf-8"?>
<!-- Generator: Adobe Illustrator 21.1.0, SVG Export Plug-In . SVG Version: 6.00 Build 0)  -->
<svg version="1.1" id="Layer_1" xmlns="http://www.w3.org/2000/svg" xmlns:xlink="http://www.w3.org/1999/xlink" x="0px" y="0px"
	 viewBox="0 0 500 500" style="enable-background:new 0 0 500 500;" xml:space="preserve">
<path d="M420.8,70.1c0,27.4-18.4,50.5-43.5,57.7c-20.2,53.5-68.4,73.6-105.9,89.1c-48.5,20.1-73.7,32.7-73.7,79.7v79.2
	c20,9.8,33.8,30.3,33.8,54c0,33.2-27,60.1-60.1,60.1c-33.2,0-60.1-27-60.1-60.1c0-23.7,13.8-44.2,33.8-54V124.1
	c-20-9.8-33.8-30.3-33.8-54c0-33.2,27-60.1,60.1-60.1c33.2,0,60.1,27,60.1,60.1c0,23.7-13.8,44.2-33.8,54v70.6
	c17.1-11.3,36.1-19.2,53.6-26.4c32.8-13.6,59.4-24.7,73.1-50.4c-14.4-11-23.7-28.3-23.7-47.8c0-33.2,27-60.1,60.1-60.1
	C393.9,10,420.8,37,420.8,70.1L420.8,70.1z M171.3,36.3c-18.6,0-33.8,15.2-33.8,33.8c0,18.6,15.2,33.8,33.8,33.8
	c18.6,0,33.8-15.2,33.8-33.8C205.1,51.5,189.9,36.3,171.3,36.3z M171.3,463.7c18.6,0,33.8-15.2,33.8-33.8
	c0-18.6-15.2-33.8-33.8-33.8c-18.6,0-33.8,15.2-33.8,33.8C137.5,448.5,152.7,463.7,171.3,463.7z M360.7,103.9
	c18.6,0,33.8-15.2,33.8-33.8c0-18.6-15.2-33.8-33.8-33.8c-18.6,0-33.8,15.2-33.8,33.8C326.9,88.8,342.1,103.9,360.7,103.9
	L360.7,103.9z"/>
</svg>
