<?xml version="1.0" encoding="utf-8"?>
<!-- Generator: Adobe Illustrator 22.1.0, SVG Export Plug-In . SVG Version: 6.00 Build 0)  -->
<svg version="1.1" id="Layer_1" xmlns="http://www.w3.org/2000/svg" xmlns:xlink="http://www.w3.org/1999/xlink" x="0px" y="0px"
	 viewBox="0 0 500 500" style="enable-background:new 0 0 500 500;" xml:space="preserve">
<style type="text/css">
	.st0{fill:#231F20;}
</style>
<title>Portal_IconFont-shapes</title>
<g id="Components-_-Patterns">
	<g id="Portal-v2-Icons-in-progress-">
		<g id="nav-integrations">
			<g id="Line-Copy">
				<path class="st0" d="M462.1,385.9h-0.2l-48.7,0.7c-7.3-32.4-39.5-52.7-71.9-45.4c-23.2,5.2-41.1,23.7-45.7,47L42,391.6
					c-6.9,0-12.5,5.7-12.4,12.6s5.7,12.5,12.6,12.4l0,0h0.2l254-3.5c8,32.2,40.7,51.8,72.9,43.8c22.2-5.5,39.3-23.1,44.2-45.4
					l48.9-0.7c6.9,0,12.5-5.7,12.4-12.6C474.7,391.4,469.1,385.8,462.1,385.9L462.1,385.9z M387.2,411.9
					c-7.4,18-27.9,26.6-45.9,19.2c-8.4-3.4-15.2-10-18.8-18.3c-3.4-7.9-3.7-16.9-0.9-25c6.7-18.3,26.9-27.6,45.1-21
					c9.4,3.4,16.9,10.7,20.6,20.1C390.5,394.9,390.4,403.8,387.2,411.9L387.2,411.9z"/>
			</g>
			<g id="Stroke-14">
				<path class="st0" d="M462.1,238.7H203.7c-6.1-32.6-37.5-54.1-70.1-48c-24.4,4.6-43.5,23.6-48,48H42.2c-6.9,0-12.5,5.6-12.5,12.5
					s5.6,12.5,12.5,12.5c0,0,0,0,0,0h44.3c8.4,32.1,41.2,51.4,73.3,43.1c21.1-5.5,37.6-22,43.1-43.1h259.3c6.9,0,12.5-5.6,12.5-12.5
					S469.1,238.7,462.1,238.7L462.1,238.7z M176.4,263.7c-8.4,17.5-29.4,24.9-47,16.5c-7.2-3.5-13.1-9.3-16.5-16.5
					c-3.7-7.8-4.3-16.8-1.6-25c6.1-18.4,26-28.4,44.5-22.3c10.5,3.5,18.8,11.8,22.3,22.3C180.7,247,180.1,255.9,176.4,263.7
					L176.4,263.7z"/>
			</g>
			<g id="Stroke-14-2">
				<path class="st0" d="M462.1,88.7H353.7c-6.1-32.6-37.5-54.1-70.1-48c-24.4,4.6-43.5,23.6-48,48H42.2c-6.9,0-12.5,5.6-12.5,12.5
					s5.6,12.5,12.5,12.5h194.3c8.4,32.1,41.2,51.4,73.3,43.1c21.1-5.5,37.6-22,43.1-43.1h109.3c6.9,0,12.5-5.6,12.5-12.5
					S469.1,88.7,462.1,88.7z M326.4,113.7c-8.4,17.5-29.4,24.9-47,16.5c-7.2-3.5-13.1-9.3-16.5-16.5c-3.7-7.8-4.3-16.8-1.6-25
					c6.1-18.4,26-28.4,44.5-22.3c10.5,3.5,18.8,11.8,22.3,22.3C330.7,97,330.1,105.9,326.4,113.7L326.4,113.7z"/>
			</g>
		</g>
	</g>
</g>
</svg>
