<?xml version="1.0" encoding="utf-8"?>
<!-- Generator: Adobe Illustrator 21.1.0, SVG Export Plug-In . SVG Version: 6.00 Build 0)  -->
<svg version="1.1" id="Layer_1" xmlns="http://www.w3.org/2000/svg" xmlns:xlink="http://www.w3.org/1999/xlink" x="0px" y="0px"
	 viewBox="0 0 500 500" style="enable-background:new 0 0 500 500;" xml:space="preserve">
<path d="M489,22c0-6.6-5.4-12-12-12H24c-6.6,0-12,5.4-12,12v453c0,6.6,5.4,12,12,12h453c6.6,0,12-5.4,12-12V22z M465,463H36V337h427
	c0.7,0,1.3-0.1,2-0.2V463z M465,313.2c-0.7-0.1-1.3-0.2-2-0.2H36V185h428c0.3,0,0.7,0,1-0.1V313.2z M465,161c-0.3,0-0.7-0.1-1-0.1
	H36V34h429V161z"/>
<path d="M115.9,411h-8.4c-6.2,0.1-11.6-4.3-12.7-10.5c-1.1-6.8,3.5-13.3,10.3-14.4c0.7-0.1,1.4-0.2,2-0.2h8.4
	c6.2-0.1,11.6,4.3,12.7,10.5c1.1,6.8-3.5,13.3-10.3,14.4C117.3,410.9,116.6,411,115.9,411z"/>
<path d="M115.9,260h-8.4c-6.2,0.1-11.6-4.3-12.7-10.4c-1.1-6.8,3.5-13.3,10.3-14.4c0.7-0.1,1.4-0.2,2-0.2h8.4
	c6.2-0.1,11.6,4.3,12.7,10.4c1.1,6.8-3.5,13.3-10.3,14.4C117.3,259.9,116.6,260,115.9,260L115.9,260z"/>
<path d="M115.6,107h-8.1c-6.2,0.1-11.6-4.3-12.7-10.4c-1.1-6.8,3.5-13.3,10.3-14.4c0.7-0.1,1.4-0.2,2-0.2h8.8
	c6.9,0,12.5,5.6,12.5,12.5c0,0.7-0.1,1.4-0.2,2C127.1,102.7,121.8,107.1,115.6,107L115.6,107z"/>
</svg>
