<?xml version="1.0" encoding="utf-8"?>
<!-- Generator: Adobe Illustrator 21.1.0, SVG Export Plug-In . SVG Version: 6.00 Build 0)  -->
<svg version="1.1" id="Layer_1" xmlns="http://www.w3.org/2000/svg" xmlns:xlink="http://www.w3.org/1999/xlink" x="0px" y="0px"
	 viewBox="0 0 500 500" style="enable-background:new 0 0 500 500;" xml:space="preserve">
<path d="M251.4,497.8C116.9,497.8,7.5,386.7,7.5,250.1S116.9,2.2,251.4,2.2s244.1,111.2,244.1,247.9S386,497.8,251.4,497.8z
	 M251.4,22.2C128,22.2,27.5,124.4,27.5,250.1s100.4,227.7,223.9,227.7s224.1-102.2,224.1-227.7S375,22.2,251.4,22.2L251.4,22.2z"/>
<path d="M383.1,138.3c5.4-10,5.7-22,1-32.3c-5.7-12.5-18.2-20.6-31.9-20.6c-8.6,0.1-16.9,3.3-23.3,9c-24.1-12.6-50.8-19.1-78-19.1
	C180,75.3,119,119.1,92.8,181.7c-4.7,0.1-9.4,1.2-13.7,3.2c-17.7,8.6-25.3,29.8-17,47.6c3.4,7.5,9.4,13.6,16.9,17.1v0.4
	c0,96.4,77.1,174.7,171.9,174.7s172-78.2,172-174.7C423,209.3,408.9,169.8,383.1,138.3 M344.6,104.1c0.3-0.1,0.4-0.3,0.6-0.3
	c2.3-1.1,4.8-1.7,7.4-1.7c10.5,0.1,18.9,8.8,18.7,19.3c0,1.1-0.1,2.2-0.3,3.3c-0.1,1-0.4,2-0.8,3c-1.6,4.8-5.2,8.6-9.7,10.8
	c-1.4,0.8-3,1.3-4.5,1.5c-1.1,0.2-2.2,0.2-3.3,0.3c-7.3,0-13.9-4.3-17-10.9c-1-2.3-1.6-4.8-1.8-7.4
	C333.5,114.4,337.8,107.3,344.6,104.1 M204,111.2c2.5-1.2,5.2-1.9,7.9-1.8c7.3,0,14,4.3,17,11c2.2,4.5,2.4,9.7,0.6,14.4
	c-1.6,4.8-5.1,8.8-9.7,10.9c-2.4,1.2-5.1,1.8-7.8,1.8c-7.4,0-14.1-4.3-17.1-11C190.6,127,194.6,115.8,204,111.2 M215.9,303.3
	c-5.7-12.5-18.1-20.5-31.8-20.5c-3.2,0-6.4,0.4-9.4,1.4c-4.7-10.8-7.2-22.4-7.1-34.1c0-47.1,37.7-85.3,83.9-85.3
	s83.9,38.2,83.9,85.3s-37.5,85.3-83.9,85.3c-11.5,0-22.8-2.5-33.3-7.1C220.3,319.9,219.5,311.1,215.9,303.3 M202.7,319.1
	c0,1.9-0.4,3.8-1,5.6c-1.6,4.8-5.1,8.7-9.7,10.9c-0.6,0.3-1.3,0.6-2.1,0.9c-1.9,0.6-3.9,0.9-5.9,0.9c-7.3,0-14-4.3-17-11
	c-4.5-9.5-0.5-20.8,8.9-25.3c2.2-1.1,4.7-1.8,7.1-2h0.9c7.3,0.1,14,4.5,17,11.2C202.3,313,202.9,316.1,202.7,319.1 M80.6,230.1
	c-1.3-1.4-2.3-2.9-3.1-4.7c-4.4-9.5-0.3-20.7,9.1-25.3h0.1c2.4-1.1,5.1-1.8,7.8-1.8c4.9,0.1,9.7,2.1,13.2,5.6
	c1.6,1.5,2.9,3.4,3.8,5.4c2.2,4.6,2.4,9.8,0.6,14.5c-1.6,4.8-5.1,8.7-9.7,10.8c-0.3,0.1-0.6,0.4-0.9,0.5c-2.2,0.8-4.5,1.3-6.9,1.3
	C89.3,236.4,84.2,234.1,80.6,230.1 M251.4,403.1c-82.1,0-149.2-67.2-150.5-150.4c3-0.5,5.9-1.5,8.6-2.9c17.7-8.6,25.3-29.8,17-47.6
	c-2.7-6-7-11-12.5-14.7c13.4-30.2,36.2-55.3,65-71.6c-3.4,9-3.1,19,1,27.8c3.1,6.9,8.4,12.6,15.1,16.2
	c-30.5,19.8-48.9,53.8-48.8,90.2c0,15.9,3.5,31.6,10.2,46.1c-8.3,10.8-10.1,25.2-4.5,37.6c5.8,12.5,18.2,20.5,32,20.6
	c5.2-0.1,10.4-1.2,15.1-3.4c2.5-1.2,4.9-2.7,7-4.5c14.1,6.9,29.6,10.5,45.2,10.5c39.3,0,73.8-22.2,91.8-54.9
	c6.4,10.2,17.6,16.4,29.6,16.5c5.2,0,10.3-1.2,14.9-3.5C363.7,367,311.5,403.1,251.4,403.1 M390.5,289.1c-1.6,4.8-5.1,8.8-9.7,10.9
	c-2.5,1.2-5.2,1.8-7.9,1.8c-7.3-0.1-13.9-4.3-17-11c-4.4-9.5-0.4-20.9,9.1-25.4c2.4-1.2,5.1-1.8,7.8-1.8c7.4,0,14.1,4.3,17.1,11
	C392,279.2,392.2,284.4,390.5,289.1 M373.1,247c-5.2,0-10.2,1.1-14.9,3.2c-0.4,0.3-0.7,0.5-1.1,0.6V250
	c0-58.9-47.1-106.9-105.2-106.9c-2.4,0-5,0.1-7.4,0.3c4.4-9.6,4.3-20.7-0.1-30.2c-2.7-6.1-7.2-11.2-12.8-14.8
	c29.9-4.2,60.4,0.9,87.4,14.5c-4.7,19.2,7,38.5,26.2,43.2c2.6,0.6,5.3,1,8,1c5.2,0,10.3-1.2,15-3.4c0.2-0.1,0.4-0.2,0.5-0.4
	c22.1,27.4,34.1,61.5,34,96.7c0,4-0.1,7.9-0.5,11.9C395.5,252.5,384.6,246.9,373.1,247"/>
<path d="M251.5,206.6c-23.6,0-42.8,19.5-42.8,43.5s19.2,43.5,42.8,43.5s42.8-19.5,42.8-43.5S275,206.6,251.5,206.6 M251.5,271.9
	c-12,0.2-21.9-9.4-22.1-21.5s9.4-21.9,21.5-22.1c12-0.2,21.9,9.4,22.1,21.5v0.3C273.1,262,263.5,271.7,251.5,271.9"/>
</svg>
