<?xml version="1.0" encoding="utf-8"?>
<!-- Generator: Adobe Illustrator 21.1.0, SVG Export Plug-In . SVG Version: 6.00 Build 0)  -->
<svg version="1.1" id="Layer_1" xmlns="http://www.w3.org/2000/svg" xmlns:xlink="http://www.w3.org/1999/xlink" x="0px" y="0px"
	 viewBox="0 0 500 500" style="enable-background:new 0 0 500 500;" xml:space="preserve">
<path d="M452,136.2l-120-120c-2.3-2.3-5.3-3.5-8.5-3.5h-264c-6.6,0-12,5.4-12,12v456c0,6.6,5.4,12,12,12h384c6.6,0,12-5.4,12-12
	v-336C455.5,141.5,454.2,138.5,452,136.2z M418.5,136.7h-89.1V47.6L418.5,136.7z M431.5,468.7h-360v-432h233.9v112
	c0,6.6,5.4,12,12,12h114.1V468.7z"/>
<path d="M347.5,268.9h-192c-6.6,0-12-5.4-12-12s5.4-12,12-12h192c6.6,0,12,5.4,12,12S354.2,268.9,347.5,268.9z"/>
<path d="M203.5,172.9h-48c-6.6,0-12-5.4-12-12s5.4-12,12-12h48c6.6,0,12,5.4,12,12S210.2,172.9,203.5,172.9z"/>
<path d="M347.5,364.9h-192c-6.6,0-12-5.4-12-12s5.4-12,12-12h192c6.6,0,12,5.4,12,12S354.2,364.9,347.5,364.9z"/>
</svg>
