<?xml version="1.0" encoding="utf-8"?>
<!-- Generator: Adobe Illustrator 22.1.0, SVG Export Plug-In . SVG Version: 6.00 Build 0)  -->
<svg version="1.1" id="Layer_1" xmlns="http://www.w3.org/2000/svg" xmlns:xlink="http://www.w3.org/1999/xlink" x="0px" y="0px"
	 viewBox="0 0 500 500" style="enable-background:new 0 0 500 500;" xml:space="preserve">
<title>Portal_IconFont-shapes (1)</title>
<path d="M467.8,467.5h-432c-6.9,0-12.5-5.6-12.5-12.5V306.5c0-6.9,5.6-12.5,12.5-12.5s12.5,5.6,12.5,12.5v136h407v-136
	c0-6.9,5.6-12.5,12.5-12.5s12.5,5.6,12.5,12.5V455C480.3,462,474.7,467.5,467.8,467.5z"/>
<path d="M333.7,285.4l-73,73c-4.9,4.9-12.8,4.9-17.7,0l-73-73c-4.8-5-4.7-12.9,0.3-17.7c4.8-4.7,12.5-4.7,17.4,0l51.8,51.8V39.4
	c0-6.9,5.6-12.5,12.5-12.5s12.5,5.6,12.5,12.5v279.9l51.6-51.6c4.9-4.9,12.8-4.9,17.7,0S338.6,280.6,333.7,285.4L333.7,285.4z"/>
</svg>
