<?xml version="1.0" encoding="utf-8"?>
<!-- Generator: Adobe Illustrator 21.1.0, SVG Export Plug-In . SVG Version: 6.00 Build 0)  -->
<svg version="1.1" id="Layer_1" xmlns="http://www.w3.org/2000/svg" xmlns:xlink="http://www.w3.org/1999/xlink" x="0px" y="0px"
	 viewBox="0 0 500 500" style="enable-background:new 0 0 500 500;" xml:space="preserve">
<style type="text/css">
	.st0{fill:#231F20;}
</style>
<g>
	<g>
		<path class="st0" d="M473.7,271H26c-10.1,0-18.4-8.2-18.4-18.4s8.2-18.4,18.4-18.4h447.7c10.1,0,18.4,8.2,18.4,18.4
			C492.1,262.8,483.9,271,473.7,271z"/>
	</g>
	<g>
		<path class="st0" d="M473.7,173H26c-10.1,0-18.4-8.2-18.4-18.4s8.2-18.4,18.4-18.4h447.7c10.1,0,18.4,8.2,18.4,18.4
			S483.9,173,473.7,173z"/>
	</g>
	<g>
		<path class="st0" d="M472,369.8H26c-10.1,0-18.4-8.2-18.4-18.4S15.9,333,26,333h446c10.1,0,18.4,8.2,18.4,18.4
			S482.1,369.8,472,369.8z"/>
	</g>
</g>
</svg>
