<?xml version="1.0" encoding="utf-8"?>
<!-- Generator: Adobe Illustrator 21.1.0, SVG Export Plug-In . SVG Version: 6.00 Build 0)  -->
<svg version="1.1" id="Layer_1" xmlns="http://www.w3.org/2000/svg" xmlns:xlink="http://www.w3.org/1999/xlink" x="0px" y="0px"
	 viewBox="0 0 500 500" style="enable-background:new 0 0 500 500;" xml:space="preserve">
<path d="M493.9,77.4L423,6.5c-2.3-2.3-5.3-3.5-8.5-3.5l0,0c-3.2,0-6.2,1.3-8.5,3.5L41.6,372.1c-1.3,1.3-2.3,3-2.9,4.8L5.4,480.3
	c-2,6.3,1.4,13.1,7.7,15.1c1.2,0.4,2.4,0.6,3.7,0.6c1.2,0,2.4-0.2,3.6-0.5L124.6,463c1.9-0.6,3.5-1.6,4.9-3L493.9,94.4
	C498.6,89.7,498.6,82.1,493.9,77.4z M114.6,441.3L35.3,466l25.3-78.7l289-289.9l53.9,53.9L114.6,441.3z M420.5,134.4l-53.9-53.9
	l47.9-48.1l53.9,53.9L420.5,134.4z"/>
</svg>
