<?xml version="1.0" encoding="utf-8"?>
<!-- Generator: Adobe Illustrator 21.1.0, SVG Export Plug-In . SVG Version: 6.00 Build 0)  -->
<svg version="1.1" id="Layer_1" xmlns="http://www.w3.org/2000/svg" xmlns:xlink="http://www.w3.org/1999/xlink" x="0px" y="0px"
	 viewBox="0 0 500 500" style="enable-background:new 0 0 500 500;" xml:space="preserve">
<path d="M202.5,462.2c-2.7,0-5.3-0.9-7.3-2.6c-2.7-2.3-4.2-5.6-4.2-9.2V328.3L82,173.6c-3.2-4.3-3.1-10.3,0.4-14.4
	c2.3-2.6,5.6-4,9-4h325c3.4,0,6.7,1.4,9,4c3.5,4.1,3.7,10.1,0.4,14.4L315,328.3v45c0,3.5-1.6,6.8-4.3,9l-101.1,77.4
	C207.6,461.3,205.1,462.2,202.5,462.2L202.5,462.2z M114.5,178.1l97.2,139.4c1.5,2,2.3,4.4,2.3,6.9v102.4l78-59.2v-43.3
	c0-2.5,0.8-4.9,2.3-6.9L393.5,178L114.5,178.1z"/>
<path d="M62.7,139.8c-4.4,0-8.4-2.5-10.3-6.4L39,110.5c-0.3-0.5-0.4-1.1-0.5-1.7c-1-8,4.8-13.7,11.5-13.7h404.2
	c0.6,0,1.2,0.1,1.8,0.3c7.7,2.8,10.1,10.7,7,16.6l-13.4,21.7c-3,5.6-9.9,7.8-15.5,4.8s-7.8-9.9-4.8-15.5l0,0l3.5-4.8H69.4l5,8
	c0.7,1.4,0.8,3,0.2,4.5C72.1,137,67.3,139.8,62.7,139.8L62.7,139.8z"/>
<path d="M473.7,79.1c-4.3,0-8.9-2.5-11.7-8.2c-0.7-1.5-0.8-3.3-0.1-4.8l4.7-9H34.2l4.8,8.3c0.7,1.5,0.7,3.3,0,4.8
	c-5.3,12-18.4,10.5-22.3,1.9L5.9,50.4C3.2,44.5,5.7,37.1,13,34.5c0.7-0.2,1.4-0.4,2.1-0.4h470c0.6,0,1.2,0.1,1.7,0.2
	c7.3,2.4,10.1,9.7,7.6,15.7l-10.1,22C482.6,76.3,478.4,79.1,473.7,79.1z"/>
</svg>
