<?xml version="1.0" encoding="utf-8"?>
<!-- Generator: Adobe Illustrator 22.0.1, SVG Export Plug-In . SVG Version: 6.00 Build 0)  -->
<svg version="1.1" id="Layer_1" xmlns="http://www.w3.org/2000/svg" xmlns:xlink="http://www.w3.org/1999/xlink" x="0px" y="0px"
	 viewBox="0 0 500 500" style="enable-background:new 0 0 500 500;" xml:space="preserve">
<path d="M294.1,487.4c-1.5,5.1-6.2,8.7-11.5,8.7h-65.1c-5.4,0-10.1-3.5-11.5-8.7l-14.5-50.5c-11.1-3.5-21.8-7.9-32.1-13.2
	l-45.8,25.4c-4.7,2.6-10.5,1.8-14.3-2l-46.2-46.2c-3.8-3.8-4.6-9.6-2-14.3l25.4-45.8c-5.4-10.3-9.8-21-13.2-32.1l-50.5-14.5
	C7.5,292.7,4,288,4,282.7v-65.1c0-5.4,3.5-10.1,8.7-11.5l50.5-14.5c3.5-11.1,7.9-21.8,13.2-32.1L51,113.7c-2.6-4.7-1.8-10.5,2-14.3
	l46.2-46.2c3.8-3.8,9.6-4.6,14.3-2l45.8,25.4c10.3-5.4,21-9.8,32.1-13.2l14.5-50.5c1.5-5.2,6.2-8.7,11.5-8.7h65.2
	c5.4,0,10.1,3.5,11.5,8.7l14.5,50.5c11.1,3.5,21.8,7.9,32.1,13.2l45.8-25.4c4.7-2.6,10.5-1.8,14.3,2L447,99.4
	c3.8,3.8,4.6,9.6,2,14.3l-25.4,45.8c5.4,10.3,9.8,21,13.2,32.1l50.5,14.5c5.2,1.5,8.7,6.2,8.7,11.5v65.2c0,5.4-3.5,10.1-8.7,11.5
	l-50.5,14.5c-3.5,11.1-7.9,21.8-13.2,32.1l25.4,45.7c2.6,4.7,1.8,10.5-2,14.3l-46.2,46.2c-3.8,3.8-9.6,4.6-14.3,2l-45.8-25.4
	c-10.3,5.4-21,9.8-32.1,13.2L294.1,487.4z M226.5,472.1h47.1l13.8-48.1c1.2-4,4.4-7.2,8.4-8.3c13.6-3.7,26.7-9.2,39-16.1
	c3.6-2.1,8.1-2.1,11.8-0.1l43.6,24.2l33.4-33.4l-24.2-43.6c-2-3.7-2-8.1,0.1-11.8c7-12.3,12.4-25.4,16.1-39c1.1-4.1,4.2-7.3,8.3-8.4
	l48.2-13.9v-47.1L424,212.7c-4-1.2-7.2-4.4-8.3-8.4c-3.7-13.6-9.2-26.7-16.1-39c-2.1-3.6-2.1-8.1-0.1-11.8l24.2-43.6l-33.4-33.4
	l-43.6,24.2c-3.7,2-8.1,2-11.8-0.1c-12.3-7-25.4-12.4-39-16.1c-4.1-1.1-7.3-4.2-8.4-8.3l-13.8-48.1h-47.1l-13.8,48.1
	c-1.2,4-4.4,7.2-8.4,8.3c-13.6,3.7-26.7,9.2-39,16.1c-3.6,2.1-8.1,2.1-11.8,0.1l-43.7-24.2l-33.4,33.4l24.2,43.6
	c2,3.7,2,8.1-0.1,11.8c-7,12.3-12.4,25.4-16.1,39c-1.1,4.1-4.2,7.3-8.3,8.4L28,226.6v47.1l48.1,13.8c4,1.2,7.2,4.4,8.3,8.4
	c3.7,13.6,9.2,26.7,16.1,39c2.1,3.6,2.1,8.1,0.1,11.8l-24.2,43.6l33.4,33.4l43.6-24.2c3.7-2,8.1-2,11.8,0.1
	c12.3,7,25.4,12.4,39,16.1c4.1,1.1,7.3,4.2,8.4,8.3L226.5,472.1z M250.1,388.4c-76,0-137.8-61.8-137.8-137.8s61.8-137.8,137.8-137.8
	s137.8,61.8,137.8,137.8S326.1,388.4,250.1,388.4L250.1,388.4z M250.1,136.7c-62.9,0-113.8,51-113.8,113.8s51,113.8,113.8,113.8
	c62.9,0,113.8-51,113.8-113.8C363.8,187.7,312.9,136.8,250.1,136.7L250.1,136.7z"/>
</svg>
