<svg id="Layer_1" data-name="Layer 1" xmlns="http://www.w3.org/2000/svg" viewBox="0 0 500 500">
    <path d="M451.61 125.92A235 235 0 0 0 303.94 21.21a237.67 237.67 0 0 0-52.71-6c-111 0-205.69 75.68-230.38 184a236.71 236.71 0 0 0 230.77 289.2c111 0 205.7-75.67 230.38-184a235 235 0 0 0-30.39-178.48m-200 339.66a215.49 215.49 0 0 1-116-34c11.36-8 25.32-26.86 28.48-32.14 3.75-6.33.42-25.93 1.21-29.47s-14.69-33-19.18-37.71 5.21-22.87 8-35.34-23.77-25.65-32.71-35.11-18.41 16.11-29.58 8.03-5.34-25.3-3.89-39.79c1.17-11.8-32.41-22.12-44.87-25.54v-.14c19.73-86.62 89-150.09 174.11-163.59-6.05 6.54-11.46 16-13.24 32.11-3.42 31-11.24 44 9.63 53.32s30.11 5.7 44.83 10.19 5.27 41.85 8.56 43.29c0 0 7.32 58.51 61.33 87.05 11.48 6.09-19.11 25.5-38.07 29.13s-35.3 1-41.77 18.88 22.4 13.06 28.56 17.87 33.34 22.91 49.37 8.83 64.56 3 64.11-16c-.81-32.82 47.89-41.21 74.38-64.62a215.53 215.53 0 0 1-5.16 38.54c-22.28 97.89-107.86 166.25-208.11 166.25" fill-rule="evenodd"/>
</svg>
