<?xml version="1.0" encoding="utf-8"?>
<!-- Generator: Adobe Illustrator 21.1.0, SVG Export Plug-In . SVG Version: 6.00 Build 0)  -->
<svg version="1.1" id="Layer_1" xmlns="http://www.w3.org/2000/svg" xmlns:xlink="http://www.w3.org/1999/xlink" x="0px" y="0px"
	 viewBox="0 0 500 500" style="enable-background:new 0 0 500 500;" xml:space="preserve">
<path d="M246.1,479.1L246.1,479.1c-6.9,0-13.2-3.8-16.4-9.9L105.4,232.9c-0.6-1-0.9-2.2-1.2-3.3c-34.5-78.3,1-169.7,79.2-204.2
	c19.7-8.7,41-13.2,62.5-13.2h0.1c85.7,0.1,155.2,69.6,155.1,155.4c0,21.5-4.5,42.8-13.2,62.5c-0.2,1-0.6,2.1-1.1,3L262.5,469.2
	C259.3,475.3,252.9,479.1,246.1,479.1z M128.1,225L246,449.4l118.3-224.5c0.2-0.6,0.4-1.2,0.6-1.8c30.3-65.8,1.6-143.6-64.2-174
	c-17.2-7.9-35.9-12-54.8-12h0.1c-34.7-0.1-68,13.7-92.4,38.3c-38.7,38.9-49.1,97.8-26.2,147.6C127.7,223.6,128,224.3,128.1,225z"/>
<path d="M246.1,205.7c-12.3,0-24.1-4.9-32.7-13.6l0,0c-18.1-18.1-18.1-47.4,0-65.5s47.4-18.1,65.5,0s18.1,47.4,0,65.5
	C270.1,200.9,258.3,205.7,246.1,205.7L246.1,205.7z M246.1,137.2c-12.3,0-22.3,10-22.3,22.3c0,5.9,2.3,11.5,6.5,15.7l0,0
	c8.7,8.7,22.8,8.8,31.5,0.1s8.8-22.8,0.1-31.5C257.7,139.5,252,137.1,246.1,137.2L246.1,137.2z"/>
<path d="M246.1,257.2c-54,0-97.7-43.8-97.7-97.7c0-54,43.8-97.7,97.7-97.7s97.7,43.8,97.7,97.7c0,25.9-10.3,50.8-28.6,69.1
	S272,257.2,246.1,257.2L246.1,257.2z M246.1,85.7c-40.7,0-73.7,33-73.7,73.7c0,19.6,7.8,38.3,21.6,52.2l0,0
	c28.8,28.8,75.5,28.8,104.3,0s28.8-75.5,0-104.3C284.4,93.5,265.6,85.7,246.1,85.7L246.1,85.7z"/>
</svg>
