<?xml version="1.0" encoding="utf-8"?>
<!-- Generator: Adobe Illustrator 22.0.1, SVG Export Plug-In . SVG Version: 6.00 Build 0)  -->
<svg version="1.1" id="Layer_1" xmlns="http://www.w3.org/2000/svg" xmlns:xlink="http://www.w3.org/1999/xlink" x="0px" y="0px"
	 viewBox="0 0 500 500" style="enable-background:new 0 0 500 500;" xml:space="preserve">
<path d="M496.6,250.1c0,122.2-99.1,221.2-221.2,221.2c-58.6,0-114.9-23.3-156.3-64.7c-32.2-31.9-53.6-73.1-61.5-117.7h-44
	c-6.7,0-12.2-5.4-12.2-12.2c0-2.6,0.9-5.2,2.4-7.3L61,193.2c4-5.4,11.7-6.5,17.1-2.4c0.9,0.7,1.8,1.5,2.4,2.4l57.2,76.2
	c4,5.4,3,13-2.4,17.1c-2.1,1.6-4.7,2.4-7.3,2.4H82c18,90.3,97.9,158.5,193.4,158.5c108.7,0,197.2-88.5,197.2-197.2
	S384.1,52.9,275.4,52.9c-53.1-0.2-104,21.2-141,59.3c-4.6,4.7-12.2,4.8-17,0.2s-4.8-12.2-0.2-17l0,0C202.6,8.1,342.7,6.6,430,92
	C472.6,133.6,496.6,190.6,496.6,250.1z"/>
<path d="M238.8,345.8c-6.6,0-12-5.4-12-12c0-1.9,0.4-3.7,1.3-5.4l40.6-81.1V124.6c0-6.6,5.4-12,12-12s12,5.4,12,12v125.5
	c0,1.9-0.4,3.7-1.3,5.4l-41.8,83.7C247.4,343.2,243.3,345.8,238.8,345.8z"/>
</svg>
