<?xml version="1.0" encoding="utf-8"?>
<!-- Generator: Adobe Illustrator 21.1.0, SVG Export Plug-In . SVG Version: 6.00 Build 0)  -->
<svg version="1.1" id="Layer_1" xmlns="http://www.w3.org/2000/svg" xmlns:xlink="http://www.w3.org/1999/xlink" x="0px" y="0px"
	 viewBox="0 0 500 500" style="enable-background:new 0 0 500 500;" xml:space="preserve">
<path d="M486.4,440.1H13.9c-6.6,0-11.9-5.3-11.9-11.9V79.8c0-6.6,5.3-11.9,11.9-11.9h472.5c6.6,0,11.9,5.3,11.9,11.9v348.4
	C498.3,434.8,493,440.1,486.4,440.1z M25.8,416.3h448.7V91.7H25.8V416.3z"/>
<path d="M411.9,231.7h-99.2c-5.9,0.1-11-4.1-12.1-9.9c-1.1-6.5,3.3-12.6,9.8-13.7c0.7-0.1,1.3-0.2,2-0.2h99.2
	c5.9-0.1,11,4.1,12.1,9.9c1.1,6.5-3.3,12.6-9.8,13.7C413.2,231.6,412.5,231.7,411.9,231.7z"/>
<path d="M411.9,307.1h-99.2c-5.9,0.1-11-4.1-12.1-9.9c-1.1-6.5,3.3-12.6,9.8-13.7c0.7-0.1,1.3-0.2,2-0.2h99.2
	c5.9-0.1,11,4.1,12.1,9.9c1.1,6.5-3.3,12.6-9.8,13.7C413.2,307,412.5,307.1,411.9,307.1z"/>
<path d="M237.7,339.9H88.4c-6,0-10.9-4.9-10.9-10.9c0-33.9,20-64.6,51-78.3c-18.6-19.1-18.3-49.6,0.8-68.2s49.6-18.3,68.2,0.8
	c18.3,18.7,18.3,48.7,0,67.4c31,13.7,51,44.4,51,78.3C248.6,335,243.7,339.9,237.7,339.9z M100.3,318h125.6
	c-6-34.7-39.1-57.9-73.7-51.8C125.6,270.8,104.9,291.5,100.3,318z M163.1,190.6c-14.6,0-26.4,11.8-26.4,26.4s11.8,26.4,26.4,26.4
	s26.4-11.8,26.4-26.4C189.4,202.5,177.6,190.6,163.1,190.6z"/>
</svg>
