<?xml version="1.0" encoding="utf-8"?>
<!-- Generator: Adobe Illustrator 21.1.0, SVG Export Plug-In . SVG Version: 6.00 Build 0)  -->
<svg version="1.1" id="Layer_1" xmlns="http://www.w3.org/2000/svg" xmlns:xlink="http://www.w3.org/1999/xlink" x="0px" y="0px"
	 viewBox="0 0 500 500" style="enable-background:new 0 0 500 500;" xml:space="preserve">
<style type="text/css">
	.st0{fill:#020303;}
</style>
<path d="M472,445.5V49.9c-0.1-6,4.1-11.1,10-12.2c6.5-1.1,12.7,3.3,13.8,9.8c0.1,0.7,0.2,1.3,0.2,2v396.3c0,6.6-5.4,12-12,12
	c-0.7,0-1.3-0.1-2-0.2C476.1,456.7,471.9,451.5,472,445.5L472,445.5z"/>
<g>
	<path class="st0" d="M408.1,231.1H121.2c-6.5-26.5-30.3-45-57.5-45c-32.6,0-59.1,26.3-59.1,58.7s26.5,58.6,59.1,58.6
		c28.5,0.1,53-20.2,58.2-48.3h286.6c6.6,0,12-5.3,12.1-11.9c0-0.4,0-0.8-0.1-1.2C419.8,235.7,414.4,231,408.1,231.1z M63.6,279.7
		c-19.4,0-35.1-15.5-35.1-34.7s15.8-34.6,35.1-34.6s35.1,15.5,35.1,34.6S83,279.7,63.6,279.7L63.6,279.7z"/>
	<path class="st0" d="M405.6,84.1H237.3c-6.3-26.7-30.2-45.5-57.6-45.5c-32.6,0-59.1,26.3-59.1,58.7s26.5,58.7,59.1,58.7
		c28.3,0,52.7-20,58.1-47.8H406c6.6,0,12-5.4,12-12c0-0.7-0.1-1.3-0.2-2C416.8,88.3,411.6,84,405.6,84.1L405.6,84.1z M179.6,131.9
		c-19.4,0-35.1-15.6-35.1-34.7s15.8-34.7,35.1-34.7s35.1,15.5,35.1,34.7S199.1,131.9,179.6,131.9z"/>
	<path class="st0" d="M408,383.1H297.9c-7.6-24.9-30.6-42-56.7-41.9c-32.6,0-59.1,26.3-59.1,58.7s26.5,58.7,59.1,58.7
		c29.7,0.1,54.8-21.9,58.7-51.4H408c6.6,0,12-5.4,12-12S414.6,383.1,408,383.1L408,383.1z M241.2,434.5c-19.4,0-35.1-15.5-35.1-34.7
		s15.8-34.7,35.1-34.7s35.1,15.5,35.1,34.7S260.6,434.5,241.2,434.5L241.2,434.5z"/>
</g>
</svg>
