<?xml version="1.0" encoding="utf-8"?>
<!-- Generator: Adobe Illustrator 21.1.0, SVG Export Plug-In . SVG Version: 6.00 Build 0)  -->
<svg version="1.1" id="Layer_1" xmlns="http://www.w3.org/2000/svg" xmlns:xlink="http://www.w3.org/1999/xlink" x="0px" y="0px"
	 viewBox="0 0 500 500" style="enable-background:new 0 0 500 500;" xml:space="preserve">
<path d="M408.6,260.6h-250c-7,0-12.6-5.7-12.6-12.6c0-7,5.7-12.7,12.6-12.7h250c7,0,12.6,5.7,12.6,12.7
	C421.3,254.9,415.6,260.6,408.6,260.6z"/>
<path d="M408.6,385.5h-62.1c-7,0-12.6-5.7-12.6-12.7s5.7-12.6,12.6-12.6h62.1c7,0,12.7,5.7,12.7,12.6
	C421.3,379.8,415.7,385.5,408.6,385.5C408.7,385.5,408.6,385.5,408.6,385.5z"/>
<path d="M408.6,135.7H281.9c-7,0-12.6-5.7-12.6-12.7s5.7-12.7,12.6-12.7h126.7c7,0,12.6,5.7,12.6,12.7
	C421.3,130.1,415.6,135.7,408.6,135.7z"/>
<path d="M59.1,298.3c-28.6,0.2-52-22.8-52.2-51.4c-0.2-28.6,22.8-52,51.4-52.2s52,22.8,52.2,51.4c0,0.1,0,0.2,0,0.4
	C110.6,275,87.6,298.2,59.1,298.3z M59.1,220c-14.6-0.2-26.7,11.5-26.9,26.1s11.5,26.7,26.1,26.9s26.7-11.5,26.9-26.1
	c0-0.1,0-0.2,0-0.4C85.4,232,73.7,220.1,59.1,220L59.1,220z"/>
<path d="M247.5,423.2c-28.6,0.2-52-22.8-52.2-51.5s22.8-52,51.5-52.2s52,22.8,52.2,51.5c0,0.1,0,0.2,0,0.4
	C299.1,399.9,276,423.1,247.5,423.2z M247.5,344.9c-14.6-0.2-26.7,11.5-26.9,26.1s11.5,26.7,26.1,26.9s26.7-11.5,26.9-26.1
	c0-0.1,0-0.2,0-0.4C273.8,356.9,262.1,345,247.5,344.9z"/>
<path d="M181.6,173.4c-28.6,0.2-52-22.8-52.2-51.4s22.8-52,51.4-52.2s52,22.8,52.2,51.4c0,0.1,0,0.2,0,0.4
	C233.1,150.1,210.1,173.3,181.6,173.4z M181.6,95.1c-14.6-0.2-26.7,11.5-26.9,26.1s11.5,26.7,26.1,26.9s26.7-11.5,26.9-26.1
	c0-0.1,0-0.2,0-0.4C207.9,107.1,196.2,95.2,181.6,95.1z"/>
<path d="M473.2,417.2c-7.9,0-14.4-6.4-14.4-14.4V89.1c-0.2-7.9,6.1-14.5,14-14.8s14.5,6.1,14.8,14c0,0.3,0,0.5,0,0.8v313.7
	C487.6,410.7,481.2,417.2,473.2,417.2L473.2,417.2z"/>
</svg>
