<svg id="Layer_1" data-name="Layer 1" xmlns="http://www.w3.org/2000/svg" viewBox="0 0 500 500">
    <path d="M-4961.76 16864.58h27520V-2705.2M450.85 92.18a42.26 42.26 0 0 0-26.23 75.11L382 294l-49-90.43a12 12 0 0 0-22 2.06l-66.48 207.81-63.87-152.78a12 12 0 0 0-22-.36l-48.37 105.91-45.39-68.07a12 12 0 0 0-20.4.7L6.27 365.73a12 12 0 0 0 20.84 11.91l28.58-50 46.57 69.84a12 12 0 0 0 20.9-1.67l45.93-100.55L235 452.76a12 12 0 0 0 11 7.37h.52a12 12 0 0 0 10.91-8.34l67.89-212.09L374 329.62a12 12 0 0 0 22-1.89l50.91-151.31c1.31.13 2.64.19 4 .19a42.22 42.22 0 0 0 0-84.43zm4.15 60a17.21 17.21 0 0 1-4.15.5A18.06 18.06 0 0 1 434 140.93a18.6 18.6 0 0 1-1.18-6.54A18 18 0 1 1 455 152.22z" fill="#231f20"/>
</svg>
