<?xml version="1.0" encoding="utf-8"?>
<!-- Generator: Adobe Illustrator 21.1.0, SVG Export Plug-In . SVG Version: 6.00 Build 0)  -->
<svg version="1.1" id="Layer_1" xmlns="http://www.w3.org/2000/svg" xmlns:xlink="http://www.w3.org/1999/xlink" x="0px" y="0px"
	 viewBox="0 0 500 500" style="enable-background:new 0 0 500 500;" xml:space="preserve">
<path d="M362.7,259h-226c-6,0.1-11.1-4.1-12.2-10c-1.1-6.5,3.3-12.7,9.8-13.8c0.7-0.1,1.3-0.2,2-0.2h226c6-0.1,11.1,4.1,12.2,10
	c1.1,6.5-3.3,12.7-9.8,13.8C364.1,258.9,363.4,259,362.7,259L362.7,259z"/>
<path d="M199,340H13c-6.6,0-12-5.4-12-12L0.8,164.3c0-3.2,1.3-6.2,3.5-8.5c2.3-2.2,5.3-3.6,8.5-3.8l186.2,1h0.5
	c5.7-0.1,10.7,4,11.8,9.6c1.2,7.2-4.6,13.4-11.8,13.4L25,176.3V316h174c6.7,0.3,11.9,5.7,12,12.4c0.1,6.3-5,11.6-11.3,11.6
	C199.4,340,199.2,340,199,340z"/>
<path d="M301,341c-4.9,0-9.3-3-11.1-7.5c-3.3-8.9,2.9-17.5,11.1-17.5l174-0.4V176H301c-6.6,0-12-5.4-12-12.1
	c0-6.6,5.3-11.9,11.9-11.9h0.1h186.4c3.2,0.2,6.2,1.6,8.5,3.8c2.2,2.3,3.1,8.5,3.1,8.5V328c0,0-5.4,12-12,12L301,341z"/>
</svg>
