<?xml version="1.0" encoding="utf-8"?>
<!-- Generator: Adobe Illustrator 21.1.0, SVG Export Plug-In . SVG Version: 6.00 Build 0)  -->
<svg version="1.1" id="Layer_1" xmlns="http://www.w3.org/2000/svg" xmlns:xlink="http://www.w3.org/1999/xlink" x="0px" y="0px"
	 viewBox="0 0 500 500" style="enable-background:new 0 0 500 500;" xml:space="preserve">
<path d="M282.8,308.6c1.2,15.1-7.7,29.1-21.8,34.5v54.4c0.1,6.3-4.6,11.6-10.9,12.3c-6.6,0.6-12.4-4.2-13-10.8
	c0-0.4-0.1-0.8-0.1-1.2v-54.7c-17.5-6.6-26.3-26.2-19.7-43.7s26.2-26.3,43.7-19.7C273.2,284.3,281.7,295.6,282.8,308.6L282.8,308.6z
	"/>
<path d="M422,177h-62v-66.2C360,51.4,310.2,3.1,249,3.1S138,51.4,138,110.8V177H76c-6.6,0-12,5.4-12,12v296c0,6.6,5.4,12,12,12l0,0
	l346-0.1c6.6,0,12-5.4,12-12V189C434,182.4,428.6,177,422,177z M162,110.8c0-46.1,39-83.6,87-83.6s87,37.5,87,83.6V177H162V110.8z
	 M410,473l-322,0.1V201h322V473z"/>
</svg>
