<?xml version="1.0" encoding="utf-8"?>
<!-- Generator: Adobe Illustrator 21.1.0, SVG Export Plug-In . SVG Version: 6.00 Build 0)  -->
<svg version="1.1" id="Layer_1" xmlns="http://www.w3.org/2000/svg" xmlns:xlink="http://www.w3.org/1999/xlink" x="0px" y="0px"
	 viewBox="0 0 500 500" style="enable-background:new 0 0 500 500;" xml:space="preserve">
<path d="M348,268.4c0,5.8-4.7,10.5-10.5,10.5h-64.4c-5.3,0-9.7-3.9-10.4-9.1l-11.4-81.7l-23,210.2c-0.6,4.9-4.6,8.9-9.6,9.3
	c-0.3,0-0.5,0-0.9,0c-4.7,0-8.8-3.1-10.1-7.7l-34.2-121.8l-33.7,64.1c-2,3.9-6.3,6.2-10.6,5.6c-4.3-0.5-7.9-3.7-9-7.9l-16.4-65.6
	H24.8c-5.8,0-10.5-4.7-10.5-10.5c0-5.8,4.7-10.5,10.5-10.5h87.4c4.8,0,9.1,3.3,10.2,8l11.7,46.9l33.2-63c2-3.8,6.1-6.1,10.4-5.6
	c4.3,0.5,7.8,3.5,9.1,7.6l26.7,95l26.3-240.5c0.6-5.3,5-9.3,10.3-9.3c5.9,0.5,9.8,3.9,10.6,9.1l21.7,156.5h55.2
	C343.3,257.9,348,262.6,348,268.4L348,268.4z M403.6,257.9c5.8,0,10.5,4.7,10.5,10.5c0,5.8-4.7,10.5-10.5,10.5h-33.3
	c-5.8,0-10.5-4.7-10.5-10.5c0-5.8,4.7-10.5,10.5-10.5H403.6z M475.3,257.9c5.8,0,10.5,4.7,10.5,10.5c0,5.8-4.8,10.5-10.5,10.5h-35.4
	c-5.8,0-10.5-4.7-10.5-10.5c0-5.8,4.7-10.5,10.5-10.5H475.3z"/>
</svg>
