<?xml version="1.0" encoding="utf-8"?>
<!-- Generator: Adobe Illustrator 21.1.0, SVG Export Plug-In . SVG Version: 6.00 Build 0)  -->
<svg version="1.1" id="Layer_1" xmlns="http://www.w3.org/2000/svg" xmlns:xlink="http://www.w3.org/1999/xlink" x="0px" y="0px"
	 viewBox="0 0 500 500" style="enable-background:new 0 0 500 500;" xml:space="preserve">
<path d="M418.7,169.1V83.8c0-6.6-5.3-12-12-12c-1.7,0-3.4,0.3-4.9,1l-214.7,95.4H93.3c-46.6,0-84.3,37.8-84.3,84.3
	s37.8,84.3,84.3,84.3h27.2v96.5c0,6.6,5.4,12,12,12c6.6,0,12-5.4,12-12v-96.5h42.7l214.7,95.4c1.5,0.7,3.2,1,4.9,1
	c6.6,0,12-5.4,12-12v-85.2c46.1-6.6,78.2-49.3,71.6-95.4C485.1,203.5,455.9,174.3,418.7,169.1L418.7,169.1z M177.7,312.9H93.3
	c-33.3,0-60.3-27-60.4-60.3s27-60.3,60.3-60.4c0,0,0,0,0,0h84.5L177.7,312.9z M394.7,402.9l-193-85.8V188l193-85.8V402.9z
	 M418.7,311.7V193.4c32.7,6.6,53.8,38.5,47.1,71.1C461.1,288.3,442.5,306.9,418.7,311.7L418.7,311.7z"/>
</svg>
