<?xml version="1.0" encoding="utf-8"?>
<!-- Generator: Adobe Illustrator 21.1.0, SVG Export Plug-In . SVG Version: 6.00 Build 0)  -->
<svg version="1.1" id="Layer_1" xmlns="http://www.w3.org/2000/svg" xmlns:xlink="http://www.w3.org/1999/xlink" x="0px" y="0px"
	 viewBox="0 0 500 500" style="enable-background:new 0 0 500 500;" xml:space="preserve">
<path d="M156.8,477.3c-6.1,0-11.4-4.2-12.7-10.2l-29.3-131.9l-14.7,32.1c-2.1,4.6-6.7,7.6-11.8,7.6h-0.1c-5.1,0-9.7-3-11.8-7.7
	l-26.7-59.6h-27c-7.2,0-13-5.8-13-13s5.8-13,13-13h35.4c5.1,0,9.8,3,11.9,7.7l18.3,41.1l18.8-41.2c3-6.5,10.7-9.4,17.2-6.4
	c3.7,1.7,6.4,5,7.3,9L155,396.1l60.3-362.7c1-6.2,6.4-10.8,12.7-10.9h0.1c6.3,0,11.7,4.5,12.8,10.8l44.3,252.6H320
	c7.2,0,13,5.8,13,13s-5.8,13-13,13h-45.7c-6.3,0-11.7-4.5-12.8-10.8l-33-188.4l-58.8,353.6c-1,6.1-6.2,10.7-12.5,10.9L156.8,477.3z"
	/>
<path d="M474.5,312h-22.2c-7.2,0-13-5.8-13-13s5.8-13,13-13h22.2c7.2,0,13,5.8,13,13S481.7,312,474.5,312z M396.7,312h-22.2
	c-7.2,0-13-5.8-13-13s5.8-13,13-13h22.2c7.2,0,13,5.8,13,13S403.8,312,396.7,312L396.7,312z"/>
</svg>
