<svg id="Layer_1" data-name="Layer 1" xmlns="http://www.w3.org/2000/svg" viewBox="0 0 500 500"><defs><style>.cls-1{isolation:isolate;}.cls-2{fill:#231f20;}</style></defs><title>newtab</title><g class="cls-1"><path class="cls-2" d="M440.68,485.13H61a44.94,44.94,0,0,1-44.89-44.89V60.59A44.94,44.94,0,0,1,61,15.7H440.68a44.94,44.94,0,0,1,44.88,44.89V440.24A44.94,44.94,0,0,1,440.68,485.13ZM61,41.7A18.91,18.91,0,0,0,42.14,60.59V440.24A18.91,18.91,0,0,0,61,459.13H440.68a18.9,18.9,0,0,0,18.88-18.89V60.59A18.91,18.91,0,0,0,440.68,41.7Z"/></g><path class="cls-2" d="M351.68,163.31V301.05a13,13,0,0,1-26,0V193.85L156.82,362.71a13,13,0,0,1-18.39-18.38l168-168H201a13,13,0,0,1,0-26H338.68A13,13,0,0,1,351.68,163.31Z"/></svg>