<?xml version="1.0" encoding="utf-8"?>
<!-- Generator: Adobe Illustrator 21.1.0, SVG Export Plug-In . SVG Version: 6.00 Build 0)  -->
<svg version="1.1" id="Layer_1" xmlns="http://www.w3.org/2000/svg" xmlns:xlink="http://www.w3.org/1999/xlink" x="0px" y="0px"
	 viewBox="0 0 500 500" style="enable-background:new 0 0 500 500;" xml:space="preserve">
<path d="M470,86v303H164.4c-5.4,0-10.8,1.3-15.7,3.7L31,451.1V86H470z M487,61H16.2C10.6,61,6,65.6,6,71.2l0,0v403.7
	c0,5.6,4.5,10.2,10.2,10.2c1.6,0,3.2-0.4,4.6-1.1l139.1-69c1.4-0.7,3-1.1,4.5-1.1h320.4c5.6,0,10.2-4.6,10.2-10.2l0,0V69
	C495,64.6,491.4,61,487,61L487,61z"/>
<path d="M387.6,197H114.8c-6.2,0.1-11.6-4.3-12.7-10.4c-1.1-6.8,3.5-13.3,10.3-14.4c0.7-0.1,1.4-0.2,2-0.2h272.8
	c6.2-0.1,11.6,4.3,12.7,10.4c1.1,6.8-3.5,13.3-10.3,14.4C388.9,196.9,388.2,197,387.6,197L387.6,197z"/>
<path d="M387.6,302H114.8c-6.2,0.1-11.6-4.3-12.7-10.5c-1.1-6.8,3.5-13.3,10.3-14.4c0.7-0.1,1.4-0.2,2-0.2h272.8
	c6.2-0.1,11.6,4.3,12.7,10.5c1.1,6.8-3.5,13.3-10.3,14.4C388.9,301.9,388.2,302,387.6,302L387.6,302z"/>
</svg>
