<?xml version="1.0" encoding="utf-8"?>
<!-- Generator: Adobe Illustrator 22.0.1, SVG Export Plug-In . SVG Version: 6.00 Build 0)  -->
<svg version="1.1" id="Layer_1" xmlns="http://www.w3.org/2000/svg" xmlns:xlink="http://www.w3.org/1999/xlink" x="0px" y="0px"
	 viewBox="0 0 500 500" style="enable-background:new 0 0 500 500;" xml:space="preserve">
<path d="M467.4,307h-96.5v-88h96.5c8.6,0,15.5-7,15.5-15.5s-7-15.5-15.5-15.5h-96.5v-51.8c0-8.6-7-15.5-15.5-15.5H213.3
	c-4,0-7.9,1.6-10.8,4.4L179,147.8c-3,2.9-4.7,6.9-4.7,11.1v86H32.6c-8.6,0-15.5,7-15.5,15.5s7,15.5,15.5,15.5h141.7v65.2
	c0,4.2,1.7,8.2,4.7,11.1l23.5,22.8c2.9,2.8,6.8,4.4,10.8,4.4h142.1c8.6,0,15.5-7,15.5-15.5V338h96.5c8.6,0,15.5-7,15.5-15.5
	S476,307,467.4,307z M339.9,348.4H219.6l-14.3-13.8V165.5l14.3-13.8h120.3V348.4z"/>
</svg>
