<?xml version="1.0" encoding="utf-8"?>
<!-- Generator: Adobe Illustrator 21.1.0, SVG Export Plug-In . SVG Version: 6.00 Build 0)  -->
<svg version="1.1" id="Layer_1" xmlns="http://www.w3.org/2000/svg" xmlns:xlink="http://www.w3.org/1999/xlink" x="0px" y="0px"
	 viewBox="0 0 500 500" style="enable-background:new 0 0 500 500;" xml:space="preserve">
<style type="text/css">
	.st0{fill:#020303;}
</style>
<path class="st0" d="M353.8,460.8c-20.5,0-37.1-13.9-37.8-31.6v-88.8c-0.3-3.3-5.8-7.8-14.2-7.8c-7.2,0-13.5,3.9-13.8,8.4v37.2
	c-0.7,17.5-17.7,31.3-38.7,31.3S211,395,211,377.1V288c-0.3-3.3-5.7-7.8-14.2-7.8c-7.3,0-13.5,3.9-13.8,8.8v44.4
	c0.9,13.3-4.3,21.9-8.8,26.7c-7,7.6-17.8,11.9-29.7,11.9c-20.9,0-37.8-14.2-38.5-32.2v-25c-0.3-3.9-6.2-9.4-14-9.4
	c-7.6,0-13.1,5.1-14,9v37.7c0,18.1-16.9,32.2-38.4,32.2c-19.8,0-35.9-14.4-36.6-32.7V196.4c0-17.5,17.1-31.7,38.2-31.7
	c20.5,0,37.1,13.6,37.8,30.9V227c0.9,3.4,6.6,7.9,14.5,7.9c7.6,0,14.2-4,14.5-8.9v-55.2c0.7-17.4,17.4-31.1,38-31.1s37.3,14,38,31.8
	v29c0.3,3.3,5.7,7.8,14.2,7.8c7.3,0,13.5-3.9,13.8-8.8v-78.9c0.7-17.3,17.5-30.9,38.2-30.9c20.5,0,37.1,13.9,37.8,31.6V250
	c0.3,3.4,5.9,8.1,14.7,8.1c7.5,0,13.9-4,14.3-8.7V69.6c0.7-17.6,17.6-30.9,39.1-30.9c20.9,0,37.9,14.4,37.9,32.1v136.1
	c0.6,3.6,6.4,7.6,14,7.6s13.7-4.2,14-7.9V146c0.7-17.6,17.5-31.3,38.2-31.3c21.6,0,36.7,17.9,36.7,34v-0.5L496.3,352
	c0,17.8-17.1,32.4-38.1,32.4c-20.6,0-37.4-13.7-38.1-31.2v-54c-0.3-3.3-5.8-7.9-14-7.9c-7.6,0-13.4,3.9-14,7.5v130
	C392,446.7,375.2,460.8,353.8,460.8L353.8,460.8z M340,428.4c0.3,4.6,6.6,8.5,13.8,8.5c8.1,0,14.2-4.3,14.2-8.1v-131v-0.5
	c1.5-17,17.8-29.9,38-29.9c20.6,0,37.3,13.6,38,31.1v53.7c0.3,3.7,6.4,7.9,14,7.9c7.9,0,14-4.5,14-8.3l0.7-203.1
	c0-3.4-4.9-9.9-12.6-9.9c-8.3,0-13.8,4.7-14.1,8v60.6c-0.7,17.4-17.4,31.1-38,31.1c-20.2,0-36.5-12.8-38-29.9v-1V70.8
	c0-3.8-6-8.2-13.9-8.2c-9,0-14.9,4.5-15.1,7.8v179.7c-0.7,18-17.5,32-38.3,32c-21,0-38-13.8-38.7-31.3V122.2
	c-0.3-4.6-6.6-8.4-13.8-8.4c-8.5,0-13.9,4.5-14.2,7.8v78.7c-0.7,17.9-17.3,32-37.8,32c-20.7,0-37.5-13.6-38.2-30.9v-29.1
	c-0.3-4.7-6.7-8.6-14-8.6c-8.2,0-13.7,4.6-14,7.9v55.1c-0.7,18.1-17.6,32.2-38.5,32.2c-19.7,0-36.2-12.6-38.4-29.3l-0.1-0.8v-32.4
	c-0.3-3.2-5.7-7.8-13.8-7.8c-8.7,0-14.2,4.6-14.2,7.8v154.4c0.3,4.7,5,9.5,12.6,9.5c8.2,0,14.4-4.4,14.4-8.2v-39.5l0.1-0.8
	c2.2-17.1,18.8-30.5,37.9-30.5c19.9,0,37.3,14.9,38,32.6v25.2c0.3,4.8,6.9,8.9,14.5,8.9c5.1,0,9.6-1.6,12.1-4.2
	c2-2.1,2.8-5.1,2.4-9.1v-0.9v-45.6c0.7-17.9,17.3-32,37.8-32c20.7,0,37.5,13.6,38.2,30.9v90.1c0,4,6.1,8.4,14.3,8.4
	c8.8,0,14.4-4.6,14.7-8.1v-37.2c0.7-17.7,17.3-31.6,37.8-31.6c20.7,0,37.5,13.6,38.2,30.9V428.4z"/>
</svg>
