<?xml version="1.0" encoding="utf-8"?>
<!-- Generator: Adobe Illustrator 22.0.1, SVG Export Plug-In . SVG Version: 6.00 Build 0)  -->
<svg version="1.1" id="Layer_1" xmlns="http://www.w3.org/2000/svg" xmlns:xlink="http://www.w3.org/1999/xlink" x="0px" y="0px"
	 viewBox="0 0 500 500" style="enable-background:new 0 0 500 500;" xml:space="preserve">
<path d="M454.4,80.1c-23.5,0-42.6,19-42.6,42.5c0,8.9,2.8,17.6,8,24.9l-86.3,128c-15.1-4.7-31.6-0.6-42.8,10.6l-71.5-55.8
	c1.4-4.3,2.1-8.7,2.1-13.2c0-23.5-19-42.6-42.5-42.6s-42.6,19-42.6,42.5c0,8.5,2.5,16.8,7.2,23.8L60.7,347.3
	c-22.3-7.7-46.6,4.1-54.3,26.4s4.1,46.6,26.4,54.3c22.3,7.7,46.6-4.1,54.3-26.4c4.7-13.7,2.2-28.9-6.8-40.3l81.7-105
	c14.6,6.3,31.4,4,43.7-6.1l73.6,57.4c-0.6,2.8-0.9,5.7-0.9,8.6c0,23.5,19,42.6,42.5,42.6s42.6-19,42.6-42.5c0-10-3.5-19.8-10-27.4
	l85.3-126.5c5,2,10.2,3,15.6,3c23.5,0,42.6-19.1,42.6-42.6S477.9,80.2,454.4,80.1L454.4,80.1z M46.9,406.2c-0.5,0-1,0-1.5-0.1
	c-9.1-0.8-16.3-8-17-17.1c0-0.4,0-0.9,0-1.4c0-9,6.5-16.7,15.3-18.3c1.1-0.2,2.1-0.3,3.2-0.3c10.3,0,18.6,8.3,18.6,18.6
	S57.2,406.1,46.9,406.2L46.9,406.2z M185.6,234.5c-2.1,0.8-4.4,1.3-6.7,1.3H178c-9.1-0.4-16.6-7.4-17.6-16.5c-0.1-0.7-0.1-1.3-0.1-2
	c0-10.3,8.4-18.6,18.6-18.5c8.6,0,16,5.9,18,14.2c0.3,1.4,0.5,2.8,0.5,4.3C197.4,224.9,192.7,231.7,185.6,234.5z M321,334.7
	c-2.5,0-4.9-0.5-7.2-1.5l0,0c-9.4-4-13.9-14.9-9.9-24.3c1.3-3.1,3.5-5.8,6.2-7.8c2.5-1.8,5.4-3,8.5-3.4c0.8-0.1,1.6-0.2,2.4-0.2
	c8.2,0,15.4,5.4,17.8,13.2c0.5,1.7,0.8,3.5,0.8,5.3C339.6,326.4,331.3,334.7,321,334.7z M454.4,141.3c-0.5,0-0.9,0-1.3,0
	c-9.1-0.7-16.4-7.9-17.2-17c0-0.5-0.1-1-0.1-1.5c0-10.3,8.3-18.6,18.6-18.6c10.3,0,18.6,8.3,18.6,18.6
	C473,133,464.7,141.3,454.4,141.3L454.4,141.3L454.4,141.3z"/>
</svg>
