<?xml version="1.0" encoding="utf-8"?>
<!-- Generator: Adobe Illustrator 21.1.0, SVG Export Plug-In . SVG Version: 6.00 Build 0)  -->
<svg version="1.1" id="Layer_1" xmlns="http://www.w3.org/2000/svg" xmlns:xlink="http://www.w3.org/1999/xlink" x="0px" y="0px"
	 viewBox="0 0 500 500" style="enable-background:new 0 0 500 500;" xml:space="preserve">
<path d="M490.7,473.8L338.6,321.6c-0.2-0.2-0.4-0.4-0.6-0.5c30.9-34.9,47.9-80,47.9-126.6C385.8,88.7,300.1,3,194.4,3
	S3,88.7,3,194.4s85.7,191.4,191.4,191.4c46.6,0.1,91.7-17,126.6-47.9c0.2,0.2,0.4,0.4,0.5,0.6l152.2,152.1c4.7,4.7,12.3,4.7,17,0
	S495.4,478.4,490.7,473.8z M194.4,361.9C102,361.9,27,287,27,194.5c0-44.4,17.6-87,49-118.4c65.4-65.4,171.4-65.4,236.8,0
	s65.4,171.4,0,236.8C281.5,344.3,238.8,362,194.4,361.9L194.4,361.9z"/>
</svg>
