<?xml version="1.0" encoding="utf-8"?>
<!-- Generator: Adobe Illustrator 22.0.1, SVG Export Plug-In . SVG Version: 6.00 Build 0)  -->
<svg version="1.1" id="Layer_1" xmlns="http://www.w3.org/2000/svg" xmlns:xlink="http://www.w3.org/1999/xlink" x="0px" y="0px"
	 viewBox="0 0 500 500" style="enable-background:new 0 0 500 500;" xml:space="preserve">
<style type="text/css">
	.st0{fill:#231F20;}
</style>
<path id="Account-" class="st0" d="M251,36c55.7,42.2,114.5,73.3,175.4,96.3c-1,114.2-24.4,183.3-57.8,230.3
	c-32.6,46-75.3,72.1-117.7,99.4c-42.4-27.3-85.1-53.4-117.7-99.4c-33.2-47-56.6-116.1-57.6-230.3C136.5,109.3,195.3,78.2,251,36
	 M249.4,9.1c-1.9,0.3-3.7,1-5.2,2.2c-59.9,45.6-123.6,78.1-190,101.9c-4.4,1.6-7.3,5.7-7.2,10.4c0,123.5,25.9,200.2,64.3,253.4
	s88.4,81.5,133.7,110.2c3.7,2.4,8.4,2.4,12.1,0c45.3-28.7,95.3-57.2,133.7-110.2S455,247.1,455,123.7c0.1-4.7-2.8-8.8-7.2-10.4
	c-66.4-23.9-130.1-56.4-190-101.9C255.4,9.5,252.4,8.7,249.4,9.1"/>
</svg>
