<?xml version="1.0" encoding="utf-8"?>
<!-- Generator: Adobe Illustrator 21.1.0, SVG Export Plug-In . SVG Version: 6.00 Build 0)  -->
<svg version="1.1" id="Layer_1" xmlns="http://www.w3.org/2000/svg" xmlns:xlink="http://www.w3.org/1999/xlink" x="0px" y="0px"
	 viewBox="0 0 500 500" style="enable-background:new 0 0 500 500;" xml:space="preserve">
<style type="text/css">
	.st0{fill:#231F20;}
</style>
<path class="st0" d="M250.6,397.8c-46.2,0.1-91.7-11.8-132-34.3c-38.6-21.6-71-52.7-94.2-90.3c-8.4-13.7-8.4-31,0-44.7
	c23.2-37.6,55.6-68.7,94.2-90.3c82.1-45.7,182-45.7,264.1,0c38.6,21.6,71,52.6,94.2,90.2c8.5,13.7,8.5,31.1,0,44.8
	c-23.2,37.7-55.6,68.8-94.2,90.4C342.3,386,296.8,397.8,250.6,397.8L250.6,397.8z M250.7,127.8c-42.1-0.1-83.5,10.7-120.3,31.2
	c-35,19.6-64.4,47.8-85.5,82c-3.7,6-3.7,13.6,0,19.6l0,0c21,34.1,50.5,62.3,85.4,81.9c74.8,41.6,165.8,41.6,240.6,0
	c35-19.6,64.4-47.8,85.5-82c3.7-6.1,3.7-13.7,0-19.7c-21.1-34.1-50.5-62.3-85.5-81.8C334.1,138.5,292.7,127.7,250.7,127.8
	L250.7,127.8z"/>
<path class="st0" d="M250.6,337.8c-48,0-87-39-87-87s39-87,87-87s87,39,87,87S298.6,337.7,250.6,337.8z M250.6,187.8
	c-34.8,0-63,28.2-63,63s28.2,63,63,63s63-28.2,63-63S285.4,187.8,250.6,187.8z"/>
</svg>
