<?xml version="1.0" encoding="utf-8"?>
<!-- Generator: Adobe Illustrator 23.0.1, SVG Export Plug-In . SVG Version: 6.00 Build 0)  -->
<svg version="1.1" id="Layer_1" xmlns="http://www.w3.org/2000/svg" xmlns:xlink="http://www.w3.org/1999/xlink" x="0px" y="0px"
	 viewBox="0 0 500 500" style="enable-background:new 0 0 500 500;" xml:space="preserve">
<title>Portal_IconFont-shapes</title>
<path d="M426.8,448H70c-33.7,0-47.7-16-53-25.6s-11.6-30,6.2-58.9L198.4,80.3c13.1-21.2,31.1-32.8,50.8-32.8h0.1
	c19.7,0,37.7,11.7,50.7,32.8l174,283.3c17.7,28.8,11.4,49.2,6,58.8S460.6,448,426.8,448z M222.2,95L47,378.3
	c-7.6,12.2-9.6,23.3-5.6,30.5S55.8,420,70,420h356.8c14.2,0,24.7-4.1,28.7-11.3s2-18.3-5.4-30.5L276.1,95
	c-7.7-12.6-17.2-19.5-26.9-19.5l0,0C239.6,75.5,230,82.4,222.2,95L222.2,95z"/>
</svg>
