<?xml version="1.0" encoding="utf-8"?>
<!-- Generator: Adobe Illustrator 22.0.1, SVG Export Plug-In . SVG Version: 6.00 Build 0)  -->
<svg version="1.1" id="Layer_1" xmlns="http://www.w3.org/2000/svg" xmlns:xlink="http://www.w3.org/1999/xlink" x="0px" y="0px"
	 viewBox="0 0 500 500" style="enable-background:new 0 0 500 500;" xml:space="preserve">
<path d="M408.9,306.8c12.1-11.8,19.7-28.2,19.7-46.4c0-35.7-29-64.7-64.7-64.7c-8.6,0-16.8,1.7-24.3,4.8
	c-10.5-7.7-21.9-13.7-34.1-17.9c12.1-11.8,19.7-28.2,19.7-46.4c0-35.7-29-64.7-64.7-64.7s-64.7,29-64.7,64.7
	c0,18.2,7.6,34.7,19.8,46.5c-15.7,5.5-30.2,13.8-42.5,24.6c-10.5-7.3-23.1-11.5-36.8-11.5c-35.7,0-64.7,29-64.7,64.7
	c0,18.2,7.6,34.7,19.7,46.4C43.3,323.6,9.3,366,9.3,415.7c0,7.1,5.8,12.9,12.9,12.9s12.9-5.8,12.9-12.9c0-49.9,45.3-90.6,101-90.6
	s101,40.6,101,90.6c0,7.1,5.8,12.9,12.9,12.9c7.1,0,12.9-5.8,12.9-12.9c0-49.9,45.3-90.6,101-90.6s101,40.6,101,90.6
	c0,7.1,5.8,12.9,12.9,12.9s12.9-5.8,12.9-12.9C490.7,366,456.7,323.6,408.9,306.8z M402.8,260.4c0,21.4-17.4,38.9-38.9,38.9
	c-21.4,0-38.9-17.4-38.9-38.9c0-21.4,17.4-38.9,38.9-38.9C385.3,221.5,402.8,239,402.8,260.4z M221.5,136.1
	c0-21.4,17.4-38.9,38.9-38.9c21.4,0,38.9,17.4,38.9,38.9c0,21.4-17.4,38.9-38.9,38.9C239,175,221.5,157.5,221.5,136.1z M97.2,260.4
	c0-21.4,17.4-38.9,38.9-38.9c21.4,0,38.9,17.4,38.9,38.9c0,21.4-17.4,38.9-38.9,38.9C114.7,299.3,97.2,281.8,97.2,260.4z M250,364.5
	c-14.1-26.3-38.8-47.1-68.9-57.6c12.1-11.8,19.7-28.2,19.7-46.4c0-12.7-3.7-24.5-10-34.5c18.7-16,43.7-25,69.6-25
	c20.3,0,39.6,5.3,56.2,15.4c-10.8,11.6-17.5,27.1-17.5,44.2c0,18.2,7.6,34.7,19.7,46.4C288.8,317.4,264.1,338.1,250,364.5z"/>
</svg>
