<?xml version="1.0" encoding="utf-8"?>
<!-- Generator: Adobe Illustrator 21.1.0, SVG Export Plug-In . SVG Version: 6.00 Build 0)  -->
<svg version="1.1" id="Layer_1" xmlns="http://www.w3.org/2000/svg" xmlns:xlink="http://www.w3.org/1999/xlink" x="0px" y="0px"
	 viewBox="0 0 500 500" style="enable-background:new 0 0 500 500;" xml:space="preserve">
<path d="M463,383.1h-57V405h57c8.8,0,15.4,7.2,15.4,16v15.2c0,8.8-6.6,16-15.4,16h-57v25.3c0,6.5-4.7,11.8-11.2,11.8h-33.7
	c-6.5,0-12.4-5.3-12.4-11.8v-6.7h-76.6c-17.7,0-32.9-14.6-32.9-32.3v-16.6H129.3c-59.4,0-107.7-48-107.7-107.4S69.9,207,129.3,207
	l230.6,0.2c31.5,0,57.2-25.5,57.2-57s-25.6-56.9-57.2-56.9h-85.3v6.5c0,12.1-8.9,22.1-21,22.1h-65.9c-8.1,0-15.2-5.1-19-11.8h-35.2
	c-12.1,0-22.3-9.3-22.3-21.4V44c0-12.1,10.3-21.5,22.3-21.5h35.2c3.8-6.7,10.9-11.8,19-11.8h65.9c12.1,0,21,10.1,21,22.2v9.8h85.3
	c59.4,0,107.7,48,107.7,107.4s-48.3,107.4-107.7,107.4l-230.6-0.2c-31.5,0-57.2,25.5-57.2,57.1c0,31.5,25.6,56.9,57.2,56.9h109.9
	v-21.2c0-17.6,15.2-32.7,32.9-32.7h76.6v-5.1c0-6.5,5.8-11.8,12.4-11.8h33.7c6.5,0,11.2,5.3,11.2,11.8v23.6h57
	c8.8,0,15.4,7.2,15.4,16v15.2C478.4,375.9,471.8,383.1,463,383.1L463,383.1z"/>
</svg>
