<?xml version="1.0" encoding="utf-8"?>
<!-- Generator: Adobe Illustrator 21.1.0, SVG Export Plug-In . SVG Version: 6.00 Build 0)  -->
<svg version="1.1" id="Layer_1" xmlns="http://www.w3.org/2000/svg" xmlns:xlink="http://www.w3.org/1999/xlink" x="0px" y="0px"
	 viewBox="0 0 500 500" style="enable-background:new 0 0 500 500;" xml:space="preserve">
<title>Portal_IconFont-shapes</title>
<path d="M250,486.1c-129.7,0-234.8-105.2-234.8-234.8c0-62.3,24.7-122,68.8-166C174.5-7.6,323.2-9.5,416,81s94.8,239.2,4.2,332
	c-1.4,1.4-2.8,2.9-4.3,4.3C372.1,461.5,312.3,486.2,250,486.1z M250,41.5c-115.7,0-209.8,94.1-209.8,209.8S134.3,461.1,250,461.1
	S459.8,367,459.8,251.3S365.7,41.5,250,41.5z"/>
<path d="M205.5,352.7c-6.9,0-12.5-5.6-12.5-12.5c0-1.9,0.5-3.8,1.3-5.6l43.1-86.3V117.9c0-6.9,5.6-12.5,12.5-12.5
	s12.5,5.6,12.5,12.5v133.4c0,1.9-0.5,3.9-1.3,5.6l-44.5,88.9C214.6,350,210.3,352.7,205.5,352.7z"/>
</svg>
