<?xml version="1.0" encoding="utf-8"?>
<!-- Generator: Adobe Illustrator 21.1.0, SVG Export Plug-In . SVG Version: 6.00 Build 0)  -->
<svg version="1.1" id="Layer_1" xmlns="http://www.w3.org/2000/svg" xmlns:xlink="http://www.w3.org/1999/xlink" x="0px" y="0px"
	 viewBox="0 0 500 500" style="enable-background:new 0 0 500 500;" xml:space="preserve">
<path d="M128.9,60.1c-6.6,0-12-5.4-12-12c0-4.2,2.2-8.1,5.8-10.3c9-5.4,18.3-10.2,27.8-14.4c6.1-2.7,13.2,0.1,15.8,6.2
	s-0.1,13.2-6.2,15.8c-8.7,3.8-17.1,8.1-25.2,13C133.2,59.5,131,60.1,128.9,60.1L128.9,60.1z"/>
<path d="M37.3,160.9c-6.6,0-12-5.4-12-12c0-1.8,0.4-3.5,1.2-5.2c6.9-14.5,15.2-28.2,24.7-41.1c4-5.3,11.5-6.4,16.8-2.5
	c5.3,4,6.4,11.5,2.5,16.8l0,0c-8.6,11.6-16.1,24-22.3,37.1C46.1,158.3,41.9,160.9,37.3,160.9z"/>
<path d="M23.9,328.3c-5.3,0-10-3.5-11.5-8.6c-6.6-22.6-9.9-46-9.9-69.6c0-6.6,5.4-12,12-12s12,5.4,12,12c0,21.3,3,42.4,9,62.8
	c1.9,6.4-1.8,13-8.1,14.9C26.3,328.1,25.1,328.3,23.9,328.3L23.9,328.3z"/>
<path d="M142.8,471.8c-1.9,0-3.8-0.5-5.5-1.3c-28.1-14.4-53.2-34-73.9-57.8c-4.3-5-3.7-12.6,1.3-16.9c5-4.2,12.4-3.7,16.8,1.1
	c18.7,21.5,41.4,39.2,66.8,52.2c5.9,3,8.2,10.3,5.2,16.2C151.4,469.3,147.3,471.8,142.8,471.8L142.8,471.8z"/>
<path d="M250,497.6c-6.6,0-12-5.4-12-12s5.4-12,12-12c37.7,0,74.8-9.5,107.8-27.7c5.7-3.4,13.1-1.5,16.4,4.2s1.5,13.1-4.2,16.4
	c-0.2,0.1-0.4,0.2-0.6,0.3C332.8,487.1,291.8,497.6,250,497.6L250,497.6z"/>
<path d="M438.4,403.5c-6.6,0-12-5.4-12-12c0-2.6,0.8-5.1,2.4-7.2c25.1-33.4,40.4-73.2,43.9-114.9c0.5-6.4,0.8-12.9,0.8-19.3
	c0-6.6,5.4-12,12-12s12,5.4,12,12c0,7.1-0.3,14.3-0.9,21.3c-3.9,46.1-20.8,90.2-48.6,127.2C445.7,401.7,442.1,403.5,438.4,403.5
	L438.4,403.5z"/>
<path d="M469.8,177.4c-5,0-9.4-3.1-11.2-7.7C425.3,83.5,342.4,26.6,250,26.6c-6.6,0-12-5.4-12-12s5.4-12,12-12
	c102.4,0,194.2,63,231,158.5c2.4,6.2-0.7,13.1-6.9,15.5C472.7,177.1,471.3,177.4,469.8,177.4z"/>
<path d="M250.9,271.1h-0.3c0,0-12-5.5-12.6-12.1l0,0c0.7-36.6,1-116.7,1-116.7l0,0c0-14.7,0-25.7,0-29.9c0-0.4-0.1-0.9-0.1-1.3
	c0-0.1,0-0.1,0-0.2c0-0.4,0-0.7,0-0.9c0.1-6.5,5.4-11.8,12-11.8h0.1c6.6,0.1,12,5.5,11.9,12.1v0.1v1.4v4.8v16.9v9.2v0.2v41.8
	c0,37.3-0.1,74.5-0.1,74.5C262.8,265.7,257.5,271.1,250.9,271.1z"/>
</svg>
