<?xml version="1.0" encoding="utf-8"?>
<!-- Generator: Adobe Illustrator 22.1.0, SVG Export Plug-In . SVG Version: 6.00 Build 0)  -->
<svg version="1.1" id="Layer_1" xmlns="http://www.w3.org/2000/svg" xmlns:xlink="http://www.w3.org/1999/xlink" x="0px" y="0px"
	 viewBox="0 0 500 500" style="enable-background:new 0 0 500 500;" xml:space="preserve">
<title>toolbox</title>
<path d="M265.2,241.2c5.2-3.5,8.3-9.4,8.3-15.6c-1.2-12.1-12-20.9-24.1-19.6c-10.4,1.1-18.6,9.3-19.6,19.6
	c0.1,6.3,3.2,12.1,8.4,15.6c3.3,2.3,4.8,6.4,3.9,10.2l-9.7,34.8h38.8l-9.7-34.8C260.4,247.6,261.9,243.6,265.2,241.2z M265.2,241.2
	c5.2-3.5,8.3-9.4,8.3-15.6c-1.2-12.1-12-20.9-24.1-19.6c-10.4,1.1-18.6,9.3-19.6,19.6c0.1,6.3,3.2,12.1,8.4,15.6
	c3.3,2.3,4.8,6.4,3.9,10.2l-9.7,34.8h38.8l-9.7-34.8C260.4,247.6,261.9,243.6,265.2,241.2z M265.2,241.2c5.2-3.5,8.3-9.4,8.3-15.6
	c-1.2-12.1-12-20.9-24.1-19.6c-10.4,1.1-18.6,9.3-19.6,19.6c0.1,6.3,3.2,12.1,8.4,15.6c3.3,2.3,4.8,6.4,3.9,10.2l-9.7,34.8h38.8
	l-9.7-34.8C260.4,247.6,261.9,243.6,265.2,241.2z"/>
<path d="M476.4,148.1H353.5l-31.7-52c-3.4-5.2-9.3-8.2-15.5-8.1H194.8c-6.3-0.1-12.1,3-15.5,8.3l-29.6,51.9H27
	c-4.4-0.1-8.1,3.4-8.2,7.9v234.6c0.1,4.4,3.8,8,8.2,7.9h449.3c4.4,0.1,8.1-3.4,8.2-7.9V156C484.5,151.5,480.8,148,476.4,148.1z
	 M195.5,116.4c1.3-2.2,3.6-3.2,4.6-3.2h100.4c2.3,0.1,4.4,1.3,5.8,3.2l18,31.7H179.4L195.5,116.4z M461.2,237.6h-159
	c-1.4,0-2.7,0.5-3.7,1.5c-1.1,1.1-2.4,2.2-3.6,3.1c-1.6,1.1-2.3,3-1.9,4.9l4,14.9h164.2v108.5c0,1.7-1.3,3-3,3h-413
	c-1.7,0-3-1.3-3-3V262.4h163.1l5.3-15.2c1.5-1.9-0.3-3.8-1.9-4.9c-1.3-1-2.5-2-3.7-3.1c-1-1-2.3-1.5-3.7-1.5H42.2V177
	c0-1.7,1.3-3,3-3h413.1c1.7,0,3,1.3,3,3V237.6z"/>
</svg>
