<?xml version="1.0" encoding="utf-8"?>
<!-- Generator: Adobe Illustrator 21.1.0, SVG Export Plug-In . SVG Version: 6.00 Build 0)  -->
<svg version="1.1" id="Layer_1" xmlns="http://www.w3.org/2000/svg" xmlns:xlink="http://www.w3.org/1999/xlink" x="0px" y="0px"
	 viewBox="0 0 500 500" style="enable-background:new 0 0 500 500;" xml:space="preserve">
<path d="M463.7,41H312.8c3.8-5.5,2.5-13-3-16.8c-2.1-1.5-4.6-2.2-7.1-2.2h-108c-6.7-0.1-12.2,5.2-12.3,11.9c0,2.5,0.7,5,2.2,7.1
	H34.2c-6.3-0.1-11.6,4.6-12.3,10.9c-0.6,6.6,4.2,12.4,10.8,13c0.4,0,0.8,0.1,1.2,0.1H76v401c0,6.6,5.4,12,12,12h322
	c6.6,0,12-5.4,12-12V65h41.4c6.3,0.1,11.6-4.6,12.3-10.9c0.6-6.6-4.2-12.4-10.8-13C464.5,41,464.1,41,463.7,41L463.7,41z M398,454
	H100V65h298V454z"/>
<path d="M280,331.5V197.9c-0.1-6,4.1-11.1,10-12.2c6.5-1.1,12.7,3.3,13.8,9.8c0.1,0.7,0.2,1.3,0.2,2v134.3c0,6.6-5.4,12-12,12
	c-0.7,0-1.3-0.1-2-0.2C284.1,342.6,279.9,337.5,280,331.5L280,331.5z"/>
<path d="M197,331.5V197.9c-0.1-6,4.1-11.1,10-12.2c6.5-1.1,12.7,3.3,13.8,9.8c0.1,0.7,0.2,1.3,0.2,2v134.3c0,6.6-5.4,12-12,12
	c-0.7,0-1.3-0.1-2-0.2C201.1,342.6,196.9,337.5,197,331.5L197,331.5z"/>
</svg>
