<?xml version="1.0" encoding="utf-8"?>
<!-- Generator: Adobe Illustrator 21.1.0, SVG Export Plug-In . SVG Version: 6.00 Build 0)  -->
<svg version="1.1" id="Layer_1" xmlns="http://www.w3.org/2000/svg" xmlns:xlink="http://www.w3.org/1999/xlink" x="0px" y="0px"
	 viewBox="0 0 500 500" style="enable-background:new 0 0 500 500;" xml:space="preserve">
<path d="M283.8,309.5c1.2,15.1-7.7,29.1-21.8,34.5v54.4c0.1,6.3-4.6,11.6-10.9,12.3c-6.6,0.6-12.4-4.2-13-10.8
	c0-0.4-0.1-0.8-0.1-1.2V344c-17.5-6.6-26.3-26.2-19.7-43.7s26.2-26.3,43.7-19.7C274.2,285.2,282.7,296.5,283.8,309.5L283.8,309.5z"
	/>
<path d="M423,177.9H169.1l-6-56.7c-4.8-45.8,30-87.2,77.8-92.3s87.2,29.4,99.9,89.9l23.4-7.2l-2.8-11.6c-18-62-62.2-101.5-123-95.1
	s-105.3,59.7-99.1,118.7l5.7,54.2H77c-6.6,0-12,5.4-12,12V486c0,6.6,5.4,12,12,12l0,0l346-0.1c6.6,0,12-5.4,12-12v-296
	C435,183.3,429.6,177.9,423,177.9z M411,473.9L89,474V201.9h322V473.9z"/>
</svg>
