<?xml version="1.0" encoding="utf-8"?>
<!-- Generator: Adobe Illustrator 22.0.1, SVG Export Plug-In . SVG Version: 6.00 Build 0)  -->
<svg version="1.1" id="Layer_1" xmlns="http://www.w3.org/2000/svg" xmlns:xlink="http://www.w3.org/1999/xlink" x="0px" y="0px"
	 viewBox="0 0 500 500" style="enable-background:new 0 0 500 500;" xml:space="preserve">
<g id="Account-">
	<g id="Usage-Alerts">
		<g id="usage-icon">
			<g id="Oval">
				<g id="path-1">
					<path d="M119.9,85.5l-13-17.8c-0.8-1.1-0.6-2.7,0.5-3.5l0,0c1.2-0.8,2.4-1.7,3.6-2.5c24.6-17,52.1-29.2,81.2-36.1
						c1.3-0.3,2.7,0.5,3,1.8l0,0l4.9,21.5c0.3,1.3-0.5,2.7-1.8,3l0,0c-25.8,6.1-50.1,17-71.9,32c-1,0.7-2,1.4-3,2.1
						C122.3,86.9,120.7,86.6,119.9,85.5z"/>
				</g>
			</g>
			<g id="Oval-2">
				<g id="path-3">
					<path d="M250.4,481.2c-41.8,0.1-82.9-10.4-119.5-30.5c-1.3-0.7-1.7-2.3-1-3.6l0,0l10.7-18.9c0.7-1.3,2.3-1.7,3.6-1
						c32.6,17.8,69.1,27.1,106.2,27c56.2,0,109.2-21.2,149.2-59.9s61.8-89.4,61.8-143.3c0-112.3-93.2-203.8-208.3-205.2
						c-1.4,0-2.6-1.2-2.6-2.6V21.5c0-1.4,1.2-2.6,2.6-2.6c62.4,0.7,121,24.6,165.3,67.7c45.1,43.8,70,102.3,70,164.4
						c0,61.4-24.9,119.2-70,162.8S313.6,481.2,250.4,481.2z"/>
				</g>
			</g>
			<g id="Oval-3">
				<g id="path-5">
					<path d="M81.2,413.7c-1,1-2.6,1-3.7,0l0,0c-39-40-62-93-64.5-148.9c-2.6-55.6,14.6-110.9,48.5-156.1c0.9-1.1,2.5-1.4,3.6-0.5
						l0,0l17.3,13.3c1.1,0.9,1.3,2.5,0.5,3.6c-30.1,40.2-45.3,89.2-43,138.4c2.2,49.2,22.4,95.8,56.7,131.1c1,1,1,2.6,0,3.6
						L81.2,413.7z"/>
				</g>
			</g>
		</g>
	</g>
</g>
</svg>
