<?xml version="1.0" encoding="utf-8"?>
<!-- Generator: Adobe Illustrator 21.1.0, SVG Export Plug-In . SVG Version: 6.00 Build 0)  -->
<svg version="1.1" id="Layer_1" xmlns="http://www.w3.org/2000/svg" xmlns:xlink="http://www.w3.org/1999/xlink" x="0px" y="0px"
	 viewBox="0 0 500 500" style="enable-background:new 0 0 500 500;" xml:space="preserve">
<path d="M420,308.4c-30.2-30.3-67.9-52-109.2-62.9C372,211.4,394,134.1,359.9,72.9S248.4-10.3,187.2,23.8S104,135.2,138.1,196.4
	c11.5,20.6,28.5,37.6,49.1,49.1C81.1,273.7,7.2,369.7,7.2,479.4c0,6.6,5.4,12,12,12s12-5.4,12-12c0-120.3,97.6-217.8,217.9-217.8
	c57.7,0,113.1,22.9,154,63.8c41,40.8,64,96.2,63.8,154c0,6.6,5.4,12,12,12s12-5.4,12-12C491,415.3,465.5,353.7,420,308.4L420,308.4z
	 M146.1,134.7c0-56.8,46.1-102.9,102.9-102.9s102.9,46.1,102.9,102.9S305.8,237.6,249,237.6S146.1,191.5,146.1,134.7L146.1,134.7z"
	/>
</svg>
