<?xml version="1.0" encoding="utf-8"?>
<!-- Generator: Adobe Illustrator 21.1.0, SVG Export Plug-In . SVG Version: 6.00 Build 0)  -->
<svg version="1.1" id="Layer_1" xmlns="http://www.w3.org/2000/svg" xmlns:xlink="http://www.w3.org/1999/xlink" x="0px" y="0px"
	 viewBox="0 0 500 500" style="enable-background:new 0 0 500 500;" xml:space="preserve">
<style type="text/css">
	.st0{fill:#231F20;}
</style>
<path d="M304.5,183.5c0,44-34.9,58-60.5,63.8c-13.5,3.1-14,5.5-14,15l0.3,43.8c0.8,7.2,8.6,9.9,17.5,9.9c6.5,0,17.4-2.6,17.4-10.7
	c0-5.5,0.3-14.3,0.4-31c0-0.6,0-1.1,0-1.4c6.4-1.5,36.9-7.8,59.4-42.7c6.4-10,12.2-28,12.2-45.8c0-48.1-36-84.9-98.4-84.9
	c-17,0-30.3,2.4-38.9,6.3c-9.7,4.4-12.8,11.5-11.1,19.5c1.3,6,8.4,11.1,18.8,9.3c8.1-1.4,22.8-3.6,33.8-3.6
	C286.5,130.9,304.5,154.9,304.5,183.5L304.5,183.5z"/>
<path class="st0" d="M250,27c93.3,0,178.8,60.1,210.4,147.9c31.9,88.6,3.3,190.2-69.9,249.5c-72.1,58.4-175.9,65.5-255.4,17.9
	C56,394.9,13.4,300.6,30.1,210C49.5,105.2,143.5,27,250,27 M250,3C146.5,3,51.5,69.9,16.8,167.5c-34.4,96.5-4.1,207,74.3,272.8
	c80.3,67.3,197.9,76.3,287.4,21.8C465.7,409,512.1,305,493.2,204.6C471.6,89,367.5,3,250,3L250,3z"/>
<circle cx="248.5" cy="380.5" r="22.5"/>
</svg>
