<?xml version="1.0" encoding="utf-8"?>
<!-- Generator: Adobe Illustrator 21.1.0, SVG Export Plug-In . SVG Version: 6.00 Build 0)  -->
<svg version="1.1" id="Layer_1" xmlns="http://www.w3.org/2000/svg" xmlns:xlink="http://www.w3.org/1999/xlink" x="0px" y="0px"
	 viewBox="0 0 500 500" style="enable-background:new 0 0 500 500;" xml:space="preserve">
<path d="M75.8,413.1L75.8,413.1c-6.6-0.1-11.9-5.4-11.8-12l0.3-295c0-6.6,5.4-12,12-12H205c6-0.1,11.1,4.1,12.2,10
	c1.1,6.5-3.3,12.7-9.8,13.8c-0.7,0.1-1.3,0.2-2,0.2H88l-0.3,283C87.7,407.7,82.4,413.1,75.8,413.1L75.8,413.1z"/>
<path d="M439,177.1H321.8c-6,0.1-11.1-4.1-12.2-10c-1.1-6.5,3.3-12.7,9.8-13.8c0.7-0.1,1.3-0.2,2-0.2h117.2c6-0.1,11.1,4.1,12.2,10
	c1.1,6.5-3.3,12.7-9.8,13.8C440.3,177.1,439.7,177.1,439,177.1z"/>
<path d="M17.8,354.1L17.8,354.1c-6.6,0-11.9-5.4-11.8-12l0,0l0.3-295c0-6.6,5.4-12,12-12H147c6-0.1,11.1,4.1,12.2,10
	c1.1,6.5-3.3,12.7-9.8,13.8c-0.7,0.1-1.3,0.2-2,0.2H30l-0.3,283C29.7,348.7,24.4,354.1,17.8,354.1z"/>
<path d="M381.6,118.1H267.9c-6,0.1-11.1-4.1-12.2-10c-1.1-6.5,3.3-12.7,9.8-13.8c0.7-0.1,1.3-0.2,2-0.2h113.7
	c6-0.1,11.1,4.1,12.2,10c1.1,6.5-3.3,12.7-9.8,13.8C383,118.1,382.3,118.1,381.6,118.1L381.6,118.1z"/>
<path d="M481,466.1H133c-6.6,0-12-5.4-12-12l0,0v-288c0-6.6,5.4-12,12-12h111c3.6,0,7,1.6,9.2,4.3l43.6,52.7H481c6.6,0,12,5.4,12,12
	v231C493,460.7,487.6,466.1,481,466.1z M145,442.1h324v-207H291.3c-3.6,0-7-1.6-9.2-4.3l-43.6-52.7H145L145,442.1z"/>
</svg>
