<?xml version="1.0" encoding="utf-8"?>
<!-- Generator: Adobe Illustrator 21.1.0, SVG Export Plug-In . SVG Version: 6.00 Build 0)  -->
<svg version="1.1" id="Layer_1" xmlns="http://www.w3.org/2000/svg" xmlns:xlink="http://www.w3.org/1999/xlink" x="0px" y="0px"
	 viewBox="0 0 500 500" style="enable-background:new 0 0 500 500;" xml:space="preserve">
<path d="M18.6,364.4L18.6,364.4c-6.4,0-11.5-5.1-11.5-11.5l0,0L7.5,53c0-6.4,5.1-11.5,11.5-11.5l0,0h136.1c6.4,0,11.5,5.1,11.5,11.5
	s-5.1,11.5-11.5,11.5H30.5l-0.4,288.4C30.1,359.2,25,364.4,18.6,364.4z"/>
<path d="M71.7,416.1L71.7,416.1c-6.4,0-11.5-5.2-11.5-11.5l0,0l0.4-299.9c0-6.3,5.2-11.5,11.5-11.5h136c6.4,0,11.5,5.1,11.5,11.5
	s-5.1,11.5-11.5,11.5H83.6l-0.3,288.4C83.2,411,78.1,416.1,71.7,416.1z"/>
<path d="M443.3,168H301.7c-6.4,0-11.5-5.1-11.5-11.5s5.1-11.5,11.5-11.5h141.5c6.4,0,11.5,5.1,11.5,11.5S449.6,168,443.3,168z"/>
<path d="M407.9,116.2H266.3c-6.4,0-11.5-5.1-11.5-11.5s5.1-11.5,11.5-11.5l0,0h141.5c6.4,0,11.5,5.1,11.5,11.5
	S414.2,116.2,407.9,116.2z"/>
<path d="M478.6,461.4H124.8c-6.4,0-11.5-5.1-11.5-11.5l0,0V156.5c0-6.3,5.2-11.5,11.5-11.5H242c3.7,0,7.2,1.8,9.3,4.8l34,47.2h193.3
	c6.4,0,11.5,5.1,11.5,11.5V450C490.1,456.3,485,461.4,478.6,461.4z M136.3,438.4h330.9V219.9H279.4c-3.7,0-7.2-1.8-9.3-4.8l-34-47.1
	h-99.8V438.4z"/>
</svg>
