<?xml version="1.0" standalone="no"?><!DOCTYPE svg PUBLIC "-//W3C//DTD SVG 1.1//EN" "http://www.w3.org/Graphics/SVG/1.1/DTD/svg11.dtd" ><svg xmlns="http://www.w3.org/2000/svg"><metadata></metadata><defs><font id="iconfont" horiz-adv-x="500"><font-face font-family="iconfont" font-weight="400" font-stretch="normal" units-per-em="500" panose-1="2 0 5 3 0 0 0 0 0 0" ascent="500" descent="0" x-height="0" bbox="-6310 -16365 22559 11928" underline-thickness="0" underline-position="5" unicode-range="U+ea01-ea5d" /><missing-glyph horiz-adv-x="0"  /><glyph glyph-name="add" unicode="&#xea01;" d="M493 250 q-1 -9 -7.5 -16 q-6.5 -7 -15.5 -7 l-198 0 l0 -197 q0 -10 -6.5 -16.5 q-6.5 -6.5 -16.5 -6.5 q-10 0 -16.5 6.5 q-6.5 6.5 -6.5 16.5 l0 197 l-197 0 q-10 0 -17 7 q-7 7 -6.5 16.5 q0.5 9.5 7 16 q6.5 6.5 16.5 6.5 l197 0 l0 198 q0 9 6.5 16 q6.5 7 16.5 7 q10 0 16.5 -7 q6.5 -7 6.5 -16 l0 -198 l198 0 q9 0 16 -6.5 q7 -6.5 7 -16.5 Z" /><glyph glyph-name="addcard" unicode="&#xea02;" d="M434 431 l-420 0 q-5 0 -8.5 -3.5 q-3.5 -3.5 -3.5 -8.5 l0 -303 q0 -5 3.5 -8.5 q3.5 -3.5 8.5 -3.5 l291 0 q5 0 8.5 2.5 q3.5 2.5 4 7.5 q0.5 5 -2.5 9 q-3 4 -7 5 l-282 0 l0 163 l396 0 l0 -47 q0 -5 3 -8.5 q3 -3.5 8 -4 q5 -0.5 8.5 3 q3.5 3.5 4.5 8.5 l0 176 q0 5 -3.5 8.5 q-3.5 3.5 -8.5 3.5 l0 0 ZM422 343 l-396 0 l0 64 l396 0 l0 -64 ZM499 116 q0 -5 -3.5 -8.5 q-3.5 -3.5 -8.5 -3.5 l-41 0 l0 -41 q0 -5 -3.5 -9 q-3.5 -4 -8.5 -3.5 q-5 0.5 -8.5 4 q-3.5 3.5 -3.5 8.5 l0 0 l0 41 l-41 0 q-5 0 -8.5 3.5 q-3.5 3.5 -3.5 8.5 q0 5 3.5 8.5 q3.5 3.5 8.5 3.5 l41 0 l0 41 q0 5 3.5 8.5 q3.5 3.5 8.5 3.5 q5 0 8.5 -3.5 q3.5 -3.5 3.5 -8.5 l0 -41 l41 0 q5 0 8.5 -3.5 q3.5 -3.5 3.5 -8.5 Z" /><glyph glyph-name="alert" unicode="&#xea03;" d="M234 225 q0 -7 5 -12.5 q5 -5.5 12 -6 q7 -0.5 12.5 4 q5.5 4.5 6.5 11.5 l0 162 q0 7 -5 12.5 q-5 5.5 -12 6 q-7 0.5 -12.5 -4 q-5.5 -4.5 -6.5 -12.5 l0 -161 ZM230 141 q0 -9 6.5 -15.5 q6.5 -6.5 15.5 -6 q9 0.5 15.5 6.5 q6.5 6 6.5 15 q0 9 -6.5 15.5 q-6.5 6.5 -15.5 6.5 q-9 0 -15.5 -6.5 q-6.5 -6.5 -6.5 -15.5 l0 0 ZM250 474 q70 0 128.5 -41 q58.5 -41 82 -107.5 q23.5 -66.5 4 -135.5 q-19.5 -69 -74 -113 q-54.5 -44 -125 -49 q-70.5 -5 -130 30.5 q-59.5 35.5 -88.5 100 q-29 64.5 -17 132.5 q10 51 42 93 q32 42 78.5 66 q46.5 24 99.5 24 ZM250 498 q-78 0 -142.5 -46 q-64.5 -46 -90.5 -118.5 q-26 -72.5 -5.5 -148 q20.5 -75.5 79.5 -125.5 q40 -33 90 -47 q50 -14 101.5 -7.5 q51.5 6.5 96.5 33.5 q65 39 96.5 110.5 q31.5 71.5 17.5 146.5 q-10 57 -45.5 103 q-35.5 46 -87.5 72.5 q-52 26.5 -110 26.5 l0 0 Z" /><glyph glyph-name="api" unicode="&#xea04;" d="M421 190 q-15 0 -25 -10 l-49 27 l0 81 l40 21 q10 -7 22 -7 q15 0 25.5 10.5 q10.5 10.5 10.5 25 q0 14.5 -10.5 25 q-10.5 10.5 -25.5 10.5 q-15 0 -25.5 -10.5 q-10.5 -10.5 -10.5 -25.5 q0 -4 1 -8 l-32 -18 l-86 49 l0 50 q10 4 17 13 q7 9 7 21 q0 14 -10.5 24.5 q-10.5 10.5 -25.5 10.5 q-15 0 -25 -10.5 q-10 -10.5 -10 -24.5 q0 -12 6.5 -21 q6.5 -9 17.5 -13 l0 -51 l-81 -46 l-38 20 l1 4 q0 15 -10.5 25.5 q-10.5 10.5 -25.5 10.5 q-15 0 -25.5 -10.5 q-10.5 -10.5 -10.5 -25 q0 -14.5 10.5 -25 q10.5 -10.5 25.5 -10.5 q15 0 26 11 l36 -20 l0 -91 l-38 -22 q-10 10 -24.5 10 q-14.5 0 -25 -10.5 q-10.5 -10.5 -10.5 -25 q0 -14.5 10.5 -25 q10.5 -10.5 25 -10.5 q14.5 0 25 10.5 q10.5 10.5 10.5 25.5 l0 6 l2 1 l36 21 l80 -46 l-1 -47 q-10 -4 -17 -13 q-7 -9 -7 -21 q0 -14 10.5 -24.5 q10.5 -10.5 25 -10.5 q14.5 0 25.5 10.5 q11 10.5 11 24.5 q0 12 -7 21 q-7 9 -18 13 l1 47 l85 48 l43 -24 l3 0 l-1 -6 q0 -15 10.5 -25.5 q10.5 -10.5 25.5 -10.5 q15 0 25.5 10.5 q10.5 10.5 10.5 25.5 q0 15 -10.5 25 q-10.5 10 -25.5 10 ZM79 325 q-5 0 -9 3.5 q-4 3.5 -4 9 q0 5.5 4 9 q4 3.5 9 3.5 q5 0 9 -3.5 q4 -3.5 4 -9 q0 -5.5 -4 -9 q-4 -3.5 -9 -3.5 ZM79 142 q-5 0 -9 4 q-4 4 -4 9 q0 5 4 9 q4 4 9 4 q5 0 9 -4 q4 -4 4 -9 q0 -5 -4 -9 q-4 -4 -9 -4 ZM409 350 q5 0 9 -4 q4 -4 4 -9 q0 -5 -4 -9 q-4 -4 -9 -3.5 q-5 0.5 -9 4 q-4 3.5 -4 9 q0 5.5 4 9 q4 3.5 9 3.5 ZM244 456 q6 0 9.5 -3.5 q3.5 -3.5 3.5 -9 q0 -5.5 -3.5 -9 q-3.5 -3.5 -9 -3.5 q-5.5 0 -9.5 3.5 q-4 3.5 -4 9 q0 5.5 4 9 q4 3.5 9 3.5 ZM243 44 q-5 0 -9 3.5 q-4 3.5 -4 9 q0 5.5 4 9 q4 3.5 9 3.5 q5 0 9 -3.5 q4 -3.5 4 -9 q0 -5.5 -4 -9 q-4 -3.5 -9 -3.5 ZM325 203 l-81 -46 l-80 46 l0 91 l80 46 l81 -46 l0 -91 ZM421 142 q-5 0 -9 4 q-4 4 -4 9 q0 5 4 9 q4 4 9 4 q5 0 9 -4 q4 -4 4 -9 q0 -5 -4 -9 q-4 -4 -9 -4 ZM208 250 q0 -15 10.5 -25.5 q10.5 -10.5 25 -10.5 q14.5 0 25 10.5 q10.5 10.5 10.5 25 q0 14.5 -10.5 25 q-10.5 10.5 -25 10.5 q-14.5 0 -25 -10 q-10.5 -10 -10.5 -25 ZM256 250 q0 -5 -3.5 -9 q-3.5 -4 -9 -4 q-5.5 0 -9.5 4 q-4 4 -4 9 q0 5 4 8.5 q4 3.5 9.5 4 q5.5 0.5 9 -3.5 q3.5 -4 3.5 -9 Z" /><glyph glyph-name="arrows" unicode="&#xea05;" d="M458 136 l-36 -27 l0 21 l-141 0 l0 120 l-24 0 l0 -202 l22 0 l-29 -35 l-29 35 l22 0 l0 202 l-24 0 l0 -120 l-141 0 l0 -21 l-35 27 l35 31 l0 -22 l127 0 l0 105 l-21 0 l0 -51 l-45 0 l0 -22 l-36 28 l36 31 l0 -22 l31 0 l0 36 l-45 0 q-32 0 -54.5 22.5 q-22.5 22.5 -22.5 54 q0 31.5 22.5 54.5 q22.5 23 54.5 23 l5 -1 q9 23 28.5 37 q19.5 14 43.5 14 q15 0 29 -6 q10 18 28 28.5 q18 10.5 39 10.5 q32 0 54.5 -22.5 q22.5 -22.5 22.5 -54.5 l0 -6 l0 0 q32 0 54.5 -23 q22.5 -23 22.5 -54.5 q0 -31.5 -22.5 -54 q-22.5 -22.5 -54.5 -22.5 l-45 0 l0 -36 l31 0 l0 22 l36 -31 l-36 -28 l0 22 l-45 0 l0 51 l-21 0 l0 -105 l127 0 l0 22 l36 -31 Z" /><glyph glyph-name="barChart" unicode="&#xea06;" d="M62 274 l52 0 l0 -235 l-52 0 l0 235 ZM140 405 l53 0 l0 -367 l-53 0 l0 367 ZM376 457 l52 0 l0 -418 l-52 0 l0 418 ZM219 195 l52 0 l0 -157 l-52 0 l0 157 ZM297 352 l53 0 l0 -314 l-53 0 l0 314 Z" /><glyph glyph-name="bell-outline" unicode="&#xea07;" d="M451 77 l-45 69 l0 141 q0 40 -19.5 74.5 q-19.5 34.5 -52.5 56 q-33 21.5 -72 24.5 l0 37 q0 5 -4 8.5 q-4 3.5 -9 3.5 q-5 0 -8.5 -3.5 q-3.5 -3.5 -3.5 -9.5 l0 -35 q-40 -4 -73 -25.5 q-33 -21.5 -52 -56 q-19 -34.5 -19 -75.5 l0 -140 l-46 -69 q-5 -6 -1 -12.5 q4 -6.5 11 -6.5 l133 0 q4 -21 20.5 -34.5 q16.5 -13.5 38.5 -13.5 q22 0 38.5 13.5 q16.5 13.5 20.5 34.5 l133 0 q7 0 11 6.5 q4 6.5 -1 12.5 ZM249 35 q-11 0 -20 6.5 q-9 6.5 -13 16.5 l66 0 q-4 -10 -13 -16.5 q-9 -6.5 -20 -6.5 ZM80 83 l35 53 q2 3 3 7 l0 144 q0 35 17.5 65.5 q17.5 30.5 47.5 48 q30 17.5 66 17.5 q36 0 66 -17.5 q30 -17.5 47.5 -48 q17.5 -30.5 18.5 -65.5 l0 -144 q0 -4 2 -7 l35 -53 l-338 0 Z" /><glyph glyph-name="bell" unicode="&#xea08;" d="M393 143 l0 143 q0 38 -19.5 71 q-19.5 33 -52 52 q-32.5 19 -71.5 19 q-39 0 -71.5 -19 q-32.5 -19 -52 -52 q-19.5 -33 -19.5 -71 l0 -143 l-47 -71 l380 0 l-47 71 ZM250 428 l1 -1 l0 48 l-1 1 l0 -48 ZM203 72 q0 -20 13.5 -34 q13.5 -14 33.5 -14 q20 0 33.5 14 q13.5 14 13.5 34 l-94 0 Z" /><glyph glyph-name="blocked" unicode="&#xea09;" d="M250 498 q-78 0 -142.5 -46 q-64.5 -46 -90.5 -118.5 q-26 -72.5 -5.5 -148 q20.5 -75.5 79.5 -125.5 q40 -33 90 -47 q50 -14 101.5 -7.5 q51.5 6.5 96.5 33.5 q65 39 96.5 110.5 q31.5 71.5 17.5 146.5 q-10 57 -45.5 103 q-35.5 46 -87.5 72.5 q-52 26.5 -110 26.5 l0 0 ZM44 163 q-20 47 -17 97.5 q3 50.5 27 95.5 q24 45 65 75 q41 30 92 38.5 q51 8.5 100.5 -5 q49.5 -13.5 88.5 -48.5 l-316 -315 q-25 28 -40 62 ZM408 92 q-41 -41 -96.5 -56 q-55.5 -15 -111.5 -3 q-56 12 -99 51 l316 315 q38 -43 50.5 -99 q12.5 -56 -3 -111.5 q-15.5 -55.5 -56.5 -96.5 Z" /><glyph glyph-name="calendar" unicode="&#xea0a;" d="M113 254 q0 -11 8 -19 q8 -8 19.5 -8 q11.5 0 19.5 8 q8 8 8 19.5 q0 11.5 -8 19.5 q-8 8 -19.5 8 q-11.5 0 -19.5 -8 q-8 -8 -8 -20 ZM113 145 q0 -12 8 -19.5 q8 -7.5 19.5 -7.5 q11.5 0 19.5 7.5 q8 7.5 8 19 q0 11.5 -8 19.5 q-8 8 -19.5 8 q-11.5 0 -19.5 -8 q-8 -8 -8 -19 ZM223 254 q0 -11 8 -19 q8 -8 19 -8 q11 0 19 8 q8 8 8 19.5 q0 11.5 -8 19.5 q-8 8 -19 8 q-11 0 -19 -8 q-8 -8 -8 -20 ZM223 145 q0 -12 8 -19.5 q8 -7.5 19 -7.5 q11 0 19 7.5 q8 7.5 8 19 q0 11.5 -8 19.5 q-8 8 -19 8 q-11 0 -19 -8 q-8 -8 -8 -19 ZM332 254 q0 -11 8 -19 q8 -8 19.5 -8 q11.5 0 19.5 8 q8 8 8 19.5 q0 11.5 -8 19.5 q-8 8 -19.5 8 q-11.5 0 -19.5 -8 q-8 -8 -8 -20 ZM332 145 q0 -12 8 -19.5 q8 -7.5 19.5 -7.5 q11.5 0 19.5 7.5 q8 7.5 8 19 q0 11.5 -8 19.5 q-8 8 -19.5 8 q-11.5 0 -19.5 -8 q-8 -8 -8 -19 ZM488 400 l-117 0 l0 52 q0 5 -3 8.5 q-3 3.5 -7.5 4 q-4.5 0.5 -8.5 -2 q-4 -2.5 -5 -7.5 l0 -55 l-194 0 l0 52 q0 5 -3 8.5 q-3 3.5 -7.5 4 q-4.5 0.5 -8.5 -2 q-4 -2.5 -5 -7.5 l0 -55 l-117 0 q-3 0 -5.5 -2.5 q-2.5 -2.5 -2.5 -5.5 l0 -339 q0 -3 2.5 -5.5 q2.5 -2.5 5.5 -2.5 l476 0 q3 0 5.5 2.5 q2.5 2.5 2.5 5.5 l0 339 q0 3 -2.5 5.5 q-2.5 2.5 -5.5 2.5 ZM472 69 l-444 0 l0 307 l101 0 l0 -30 q0 -5 3 -8.5 q3 -3.5 7.5 -4 q4.5 -0.5 8.5 2 q4 2.5 5 7.5 l0 33 l194 0 l0 -30 q0 -5 3 -8.5 q3 -3.5 7.5 -4 q4.5 -0.5 8.5 2 q4 2.5 5 7.5 l0 33 l101 0 l0 -307 Z" /><glyph glyph-name="check" unicode="&#xea0b;" d="M173 84 q-5 0 -8 4 l-154 154 q-4 3 -4 8 q0 5 3.5 8.5 q3.5 3.5 8.5 3.5 q5 0 9 -3 l145 -146 l299 299 q4 4 9 4 q5 0 8.5 -3.5 q3.5 -3.5 3.5 -8.5 q0 -5 -4 -9 l-307 -307 q-4 -4 -9 -4 Z" /><glyph glyph-name="checkbox" unicode="&#xea0c;" d="M459 472 q5 0 8.5 -4 q3.5 -4 3.5 -8 l0 -419 q0 -5 -3.5 -8.5 q-3.5 -3.5 -8.5 -3.5 l-418 0 q-5 0 -8.5 3.5 q-3.5 3.5 -3.5 8.5 l0 419 q0 4 3.5 7.5 q3.5 3.5 7.5 3.5 l419 0 l0 1 ZM459 498 l-418 0 q-16 0 -27 -11.5 q-11 -11.5 -11 -26.5 l0 -419 q0 -16 11 -27 q11 -11 27 -11 l418 0 q16 0 27 11 q11 11 11 27 l0 419 q0 15 -11 26.5 q-11 11.5 -27 11.5 l0 0 Z" /><glyph glyph-name="checkedbox" unicode="&#xea0d;" d="M459 498 l-418 0 q-16 0 -27 -11.5 q-11 -11.5 -11 -26.5 l0 -419 q0 -16 11 -27 q11 -11 27 -11 l418 0 q16 0 27 11 q11 11 11 27 l0 419 q0 15 -11 26.5 q-11 11.5 -27 11.5 l0 0 ZM434 332 l-217 -217 q-6 -6 -14.5 -6 q-8.5 0 -14.5 6 l-124 124 q-6 6 -6 14.5 q0 8.5 6 14.5 q6 6 14.5 6 q8.5 0 14.5 -6 l109 -109 l203 202 q6 6 14.5 6 q8.5 0 14.5 -6 q6 -6 6 -14.5 q0 -8.5 -6 -14.5 Z" /><glyph glyph-name="chevron_d" unicode="&#xea0e;" d="M485 360 q0 8 -5.5 13 q-5.5 5 -13 5 q-7.5 0 -12.5 -5 l-204 -208 l-204 208 q-5 5 -12.5 5 q-7.5 0 -13 -5 q-5.5 -5 -5.5 -12.5 q0 -7.5 6 -13.5 l216 -220 q6 -5 13.5 -5 q7.5 0 12.5 5 l216 221 q6 5 6 12 Z" /><glyph glyph-name="chevron_fl" unicode="&#xea0f;" d="M446 15 q8 0 13 5.5 q5 5.5 5 13 q0 7.5 -5 12.5 l-208 204 l208 204 q5 5 5 12.5 q0 7.5 -5.5 13 q-5.5 5.5 -12.5 5.5 q-7 0 -13 -6 l-220 -216 q-5 -6 -5 -13.5 q0 -7.5 5 -12.5 l220 -216 q6 -6 13 -6 ZM270 15 q8 0 13 5.5 q5 5.5 5 13 q0 7.5 -5 12.5 l-208 204 l208 204 q5 5 5 12.5 q0 7.5 -5.5 13 q-5.5 5.5 -12.5 5.5 q-7 0 -13 -6 l-220 -216 q-5 -6 -5.5 -13.5 q-0.5 -7.5 5.5 -12.5 l220 -216 q6 -6 13 -6 Z" /><glyph glyph-name="chevron_fr" unicode="&#xea10;" d="M52 15 q-8 0 -13 5.5 q-5 5.5 -5 13 q0 7.5 5 12.5 l207 204 l-207 204 q-5 5 -5 12.5 q0 7.5 5 13 q5 5.5 12.5 5.5 q7.5 0 12.5 -6 l221 -216 q5 -6 5 -13.5 q0 -7.5 -5 -12.5 l-221 -216 q-5 -6 -12 -6 ZM228 15 q-8 0 -13 5.5 q-5 5.5 -5 13 q0 7.5 5 12.5 l207 204 l-207 204 q-5 5 -5 12.5 q0 7.5 5 13 q5 5.5 12.5 5.5 q7.5 0 12.5 -6 l221 -216 q5 -6 5 -13.5 q0 -7.5 -5 -12.5 l-221 -216 q-5 -6 -12 -6 Z" /><glyph glyph-name="chevron_l" unicode="&#xea11;" d="M357 15 q8 0 13 5.5 q5 5.5 5 13 q0 7.5 -5 12.5 l-208 204 l208 204 q5 5 5 12.5 q0 7.5 -5.5 13 q-5.5 5.5 -12.5 5.5 q-7 0 -13 -6 l-220 -216 q-5 -6 -5.5 -13.5 q-0.5 -7.5 5.5 -12.5 l220 -216 q6 -6 13 -6 Z" /><glyph glyph-name="chevron_r" unicode="&#xea12;" d="M147 15 q-8 0 -13 5.5 q-5 5.5 -5 13 q0 7.5 5 12.5 l207 204 l-207 204 q-5 5 -5 12.5 q0 7.5 5 13 q5 5.5 12.5 5.5 q7.5 0 12.5 -6 l221 -216 q5 -6 5 -13.5 q0 -7.5 -5 -12.5 l-221 -216 q-5 -6 -12 -6 Z" /><glyph glyph-name="chevron_u" unicode="&#xea13;" d="M15 140 q0 -8 5.5 -13 q5.5 -5 13 -5 q7.5 0 12.5 5 l204 208 l204 -208 q5 -5 12.5 -5 q7.5 0 13 5 q5.5 5 5.5 12.5 q0 7.5 -6 13.5 l-216 220 q-6 5 -13.5 5 q-7.5 0 -12.5 -5 l-216 -221 q-6 -5 -6 -12 Z" /><glyph glyph-name="clone" unicode="&#xea14;" d="M482 494 l-332 0 q-5 0 -8.5 -3.5 q-3.5 -3.5 -3.5 -8.5 l0 -120 l-121 0 q-5 0 -8.5 -3.5 q-3.5 -3.5 -3.5 -8.5 l0 -331 q0 -5 3.5 -8.5 q3.5 -3.5 8.5 -3.5 l332 0 q4 0 7.5 3.5 q3.5 3.5 3.5 8.5 l1 120 l121 0 q4 0 7.5 3.5 q3.5 3.5 3.5 8.5 l0 331 q1 5 -2.5 8.5 q-3.5 3.5 -8.5 3.5 ZM337 31 l-308 0 l0 307 l109 0 l0 -187 q0 -5 3.5 -8.5 q3.5 -3.5 8.5 -3.5 l187 0 l0 -108 ZM470 163 l-308 0 l0 307 l308 0 l0 -307 Z" /><glyph glyph-name="closex" unicode="&#xea15;" d="M482 19 q-4 -4 -9 -4 q-5 0 -8 3 l-217 217 l-212 -212 q-4 -4 -9 -4 q-5 0 -8.5 4 q-3.5 4 -3.5 8.5 q0 4.5 3 8.5 l213 212 l-212 213 q-4 3 -4 8 q0 5 3.5 8.5 q3.5 3.5 8.5 3.5 q5 0 8 -3 l213 -213 l212 213 q4 3 8.5 3 q4.5 0 8.5 -3.5 q4 -3.5 4 -8.5 q0 -5 -4 -8 l-212 -213 l216 -216 q4 -4 4 -9 q0 -5 -4 -9 l1 1 Z" /><glyph glyph-name="code" unicode="&#xea16;" d="M250 474 q60 0 111.5 -30.5 q51.5 -30.5 81.5 -81.5 q30 -51 30 -112 q0 -67 -37.5 -123.5 q-37.5 -56.5 -99.5 -82.5 q-55 -23 -114 -15.5 q-59 7.5 -107 43 q-48 35.5 -71.5 91.5 q-23.5 56 -16 115 q7.5 59 43.5 106.5 q36 47.5 92 71.5 q41 18 87 18 ZM250 498 q-68 0 -124.5 -33.5 q-56.5 -33.5 -90 -90.5 q-33.5 -57 -33.5 -124 q0 -67 33.5 -124 q33.5 -57 90 -90 q56.5 -33 124 -33 q67.5 0 124 33 q56.5 33 90 90 q33.5 57 33.5 124 q0 67 -33.5 124 q-33.5 57 -90 90.5 q-56.5 33.5 -123.5 33.5 l0 0 ZM170 151 q-5 0 -8 3 l-88 88 q-3 3 -3 7.5 q0 4.5 3 7.5 l88 87 q3 3 7.5 3 q4.5 0 8 -3 q3.5 -3 3.5 -8 q0 -5 -4 -8 l1 0 l-80 -78 l80 -80 q3 -4 3 -8.5 q0 -4.5 -3.5 -7.5 q-3.5 -3 -7.5 -3 l0 0 ZM328 151 q-4 0 -7.5 3 q-3.5 3 -3.5 7.5 q0 4.5 3 8.5 l81 80 l-80 78 q-4 3 -4 8 q0 5 3.5 8 q3.5 3 8 3 q4.5 0 7.5 -3 l88 -87 q3 -3 3 -7.5 q0 -4.5 -3 -7.5 l-88 -88 q-3 -3 -8 -3 ZM218 118 q-5 0 -8.5 3 q-3.5 3 -3.5 8 l1 3 l72 247 q2 4 6 6.5 q4 2.5 8 1 q4 -1.5 6.5 -5.5 q2.5 -4 0.5 -8 l-72 -247 q-2 -8 -11 -8 l1 0 Z" /><glyph glyph-name="confirmed" unicode="&#xea17;" d="M382 310 l-157 -158 q-4 -4 -9 -4 q-5 0 -8 4 l0 0 l-90 90 q-4 3 -4 8 q0 5 3.5 8.5 q3.5 3.5 8.5 3.5 q5 0 9 -3 l81 -82 l149 150 q4 3 9 3 q5 0 8.5 -3.5 q3.5 -3.5 3.5 -8.5 q0 -5 -4 -9 l0 1 ZM250 474 q70 0 128.5 -41 q58.5 -41 82 -107.5 q23.5 -66.5 4 -135.5 q-19.5 -69 -74 -113 q-54.5 -44 -125 -49 q-70.5 -5 -130 30.5 q-59.5 35.5 -88.5 100 q-29 64.5 -17 132.5 q10 51 42 93 q32 42 78.5 66 q46.5 24 99.5 24 ZM250 498 q-78 0 -142.5 -46 q-64.5 -46 -90.5 -118.5 q-26 -72.5 -5.5 -148 q20.5 -75.5 79.5 -125.5 q40 -33 90 -47 q50 -14 101.5 -7.5 q51.5 6.5 96.5 33.5 q65 39 96.5 110.5 q31.5 71.5 17.5 146.5 q-10 57 -45.5 103 q-35.5 46 -87.5 72.5 q-52 26.5 -110 26.5 l0 0 Z" /><glyph glyph-name="connection" unicode="&#xea18;" d="M421 430 q0 -20 -12.5 -36 q-12.5 -16 -31.5 -22 q-13 -35 -46 -59 q-20 -13 -60 -30 q-28 -12 -40 -19 q-17 -10 -25 -24 q-8 -14 -8 -37 l0 -79 q15 -7 24.5 -21.5 q9.5 -14.5 9.5 -32.5 q0 -25 -18 -42.5 q-18 -17.5 -42.5 -17.5 q-24.5 0 -42.5 17.5 q-18 17.5 -18 42.5 q0 18 9.5 32.5 q9.5 14.5 24.5 21.5 l0 252 q-15 7 -24.5 21.5 q-9.5 14.5 -9.5 32.5 q0 25 18 42.5 q18 17.5 42.5 17.5 q24.5 0 42.5 -17.5 q18 -17.5 18 -42.5 q0 -18 -9.5 -32.5 q-9.5 -14.5 -24.5 -21.5 l0 -71 q17 12 53 27 q31 13 44 20 q20 13 29 30 q-11 9 -17 21.5 q-6 12.5 -6 26.5 q0 25 17.5 42.5 q17.5 17.5 42.5 17.5 q25 0 42.5 -17.5 q17.5 -17.5 17.5 -42.5 l0 0 ZM171 464 q-14 0 -23.5 -10 q-9.5 -10 -9.5 -24 q0 -14 9.5 -24 q9.5 -10 23.5 -10 q14 0 24 10 q10 10 10 24 q0 14 -10 24 q-10 10 -24 10 ZM171 36 q14 0 24 10 q10 10 10 24 q0 14 -10 24 q-10 10 -24 10 q-14 0 -23.5 -10 q-9.5 -10 -9.5 -24 q0 -14 9.5 -24 q9.5 -10 23.5 -10 ZM361 396 q14 0 24 10 q10 10 10 24 q0 14 -10 24 q-10 10 -24 10 q-14 0 -24 -10 q-10 -10 -10 -24 q0 -14 10 -24 q10 -10 24 -10 l0 0 Z" /><glyph glyph-name="creditcard" unicode="&#xea19;" d="M458 411 l-420 0 q-5 0 -8.5 -3.5 q-3.5 -3.5 -3.5 -8.5 l0 -303 q0 -5 3.5 -8.5 q3.5 -3.5 8.5 -3.5 l420 0 q5 0 8.5 3.5 q3.5 3.5 3.5 8.5 l0 303 q0 5 -3.5 8.5 q-3.5 3.5 -8.5 3.5 ZM50 387 l396 0 l0 -64 l-396 0 l0 64 ZM446 108 l-396 0 l0 163 l396 0 l0 -163 Z" /><glyph glyph-name="custom-settings" unicode="&#xea1a;" d="M462 114 l0 0 l-49 -1 q-5 25 -26 38 q-21 13 -46 8 q-17 -4 -29.5 -17 q-12.5 -13 -15.5 -30 l-254 -4 q-5 0 -8.5 -3.5 q-3.5 -3.5 -3.5 -8.5 q0 -5 3.5 -9 q3.5 -4 8.5 -4 l0 0 l254 4 q6 -24 27.5 -37 q21.5 -13 45.5 -7 q17 4 29 16.5 q12 12.5 16 28.5 l48 1 q6 0 9.5 4 q3.5 4 3.5 9 q0 5 -4 8.5 q-4 3.5 -9 3.5 l0 0 ZM387 88 q-5 -13 -18.5 -19 q-13.5 -6 -27 -0.5 q-13.5 5.5 -19 18 q-5.5 12.5 -0.5 26 q5 13.5 18 19.5 q13 6 27 1 q14 -5 20 -20 q5 -12 0 -25 l0 0 ZM462 261 l-258 0 q-5 25 -25.5 39 q-20.5 14 -44.5 9 q-19 -3 -32 -16 q-13 -13 -16 -32 l-44 0 q-5 0 -8.5 -3.5 q-3.5 -3.5 -3.5 -8.5 q0 -5 3.5 -9 q3.5 -4 8.5 -4 l0 0 l45 0 q6 -24 27.5 -36.5 q21.5 -12.5 45.5 -6.5 q16 4 27.5 15.5 q11.5 11.5 15.5 27.5 l259 0 q5 0 9 4 q4 4 4 9 q0 5 -4 8.5 q-4 3.5 -9 3.5 l0 0 ZM176 236 q-6 -13 -19.5 -17.5 q-13.5 -4.5 -26 1 q-12.5 5.5 -18 17.5 q-5.5 12 -1 25 q4.5 13 17.5 19.5 q13 6.5 27 2.5 q17 -6 22 -23 q4 -13 -2 -25 l0 0 ZM462 411 l-108 0 q-5 25 -25.5 39 q-20.5 14 -44.5 9 q-19 -3 -32 -16 q-13 -13 -16 -32 l-194 0 q-5 0 -8.5 -3.5 q-3.5 -3.5 -3.5 -8.5 q0 -5 3.5 -9 q3.5 -4 8.5 -4 l195 0 q6 -24 27.5 -36.5 q21.5 -12.5 45.5 -6.5 q16 4 27.5 15.5 q11.5 11.5 15.5 27.5 l109 0 q5 0 9 4 q4 4 4 9 q0 5 -4 8.5 q-4 3.5 -9 3.5 ZM326 386 q-6 -13 -19.5 -17.5 q-13.5 -4.5 -26 1 q-12.5 5.5 -18 17.5 q-5.5 12 -1 25 q4.5 13 17.5 19.5 q13 6.5 27 2.5 q17 -6 22 -23 q4 -13 -2 -25 l0 0 Z" /><glyph glyph-name="data" unicode="&#xea1b;" d="M489 478 q0 5 -3.5 8.5 q-3.5 3.5 -8.5 3.5 l-453 0 q-5 0 -8.5 -3.5 q-3.5 -3.5 -3.5 -8.5 l0 -453 q0 -5 3.5 -8.5 q3.5 -3.5 8.5 -3.5 l453 0 q5 0 8.5 3.5 q3.5 3.5 3.5 8.5 l0 453 ZM465 37 l-429 0 l0 126 l429 0 l0 -126 ZM465 187 q0 0 0 0 l-429 0 l0 128 l429 0 l0 -128 ZM465 339 q0 0 0 0 l-429 0 l0 127 l429 0 l0 -127 ZM116 89 l-8 0 q-5 0 -8.5 3 q-3.5 3 -4.5 8 q-1 5 2 9 q3 4 8 5 l11 0 q4 0 7.5 -3 q3.5 -3 4.5 -8 q1 -5 -2 -9 q-3 -4 -8 -5 l-2 0 ZM116 240 l-8 0 q-5 0 -8.5 3 q-3.5 3 -4.5 8 q-1 5 2 9 q3 4 8 5 l11 0 q4 0 7.5 -3 q3.5 -3 4.5 -8 q1 -5 -2 -9 q-3 -4 -8 -5 l-2 0 ZM116 393 l-8 0 q-5 0 -8.5 3 q-3.5 3 -4.5 8 q-1 5 2 9 q3 4 8 5 l11 0 q5 0 8.5 -3.5 q3.5 -3.5 3.5 -8.5 l0 -2 q-1 -5 -4.5 -8 q-3.5 -3 -7.5 -3 l0 0 Z" /><glyph glyph-name="dedicated_nav" unicode="&#xea1c;" d="M252 479 q-65 0 -119.5 -31 q-54.5 -31 -86.5 -84.5 q-32 -53.5 -32 -116.5 q0 -63 32 -116.5 q32 -53.5 86.5 -84.5 q54.5 -31 119 -31 q64.5 0 119 31 q54.5 31 86.5 84.5 q32 53.5 32 116.5 q0 63 -32 116.5 q-32 53.5 -86.5 84.5 q-54.5 31 -118.5 31 ZM252 36 q-59 0 -108.5 28.5 q-49.5 28.5 -78.5 77 q-29 48.5 -29 105.5 q0 57 29 105.5 q29 48.5 78.5 77 q49.5 28.5 108 28.5 q58.5 0 108 -28.5 q49.5 -28.5 79 -77 q29.5 -48.5 29.5 -105.5 q0 -57 -29.5 -105.5 q-29.5 -48.5 -79 -77 q-49.5 -28.5 -107.5 -28.5 ZM-6309 11928 l15272 0 l0 -12786 l-15272 0 l0 12786 ZM-103 597 l709 0 l0 -700 l-709 0 l0 700 ZM386 356 q8 16 1 32 q-5 9 -13.5 14.5 q-8.5 5.5 -19.5 5.5 q-8 0 -15 -3 q-5 -3 -8 -6 q-38 19 -79 19 q-54 0 -97.5 -29 q-43.5 -29 -63.5 -75 q-7 0 -14 -3 q-13 -7 -18 -20.5 q-5 -13.5 0.5 -25.5 q5.5 -12 17.5 -18 l0 0 q0 -46 23.5 -85.5 q23.5 -39.5 63.5 -62.5 q40 -23 87.5 -23 q47.5 0 87.5 23 q40 23 63.5 62.5 q23.5 39.5 23.5 85.5 q0 30 -10.5 58 q-10.5 28 -29.5 51 ZM346 390 q0 0 0 0 l1 0 q3 1 7 2 q12 -1 17 -11 q3 -6 2 -12 l-1 -2 q-3 -8 -10 -11 q-2 -1 -4 -1 l-4 -1 q-12 0 -17 11 q-2 3 -2 8 q0 5 3 9.5 q3 4.5 8 7.5 ZM204 383 q3 1 7 1 q12 0 18 -10 q3 -7 0.5 -14.5 q-2.5 -7.5 -10.5 -10.5 q-3 -2 -7 -2 q-13 0 -18 11 q-3 7 -0.5 14 q2.5 7 9.5 10 l1 1 ZM216 195 q-5 9 -14 14.5 q-9 5.5 -19 5.5 q-5 0 -9 -2 q-8 16 -8 34 q0 34 25 58.5 q25 24.5 60.5 24.5 q35.5 0 60.5 -24.5 q25 -24.5 25 -59 q0 -34.5 -25 -58.5 q-25 -24 -61 -24 q-17 0 -33 7 q3 12 -3 24 l1 0 ZM202 179 q0 -2 -1 -5 q-3 -8 -10 -11 l-2 -1 q-3 -1 -6 -1 q-12 0 -17 11 q-3 7 -1 14 q5 12 17 13 l1 0 q12 0 18 -11 q2 -4 1 -9 ZM78 267 q-2 1 -3 4 q-3 7 -0.5 14 q2.5 7 9.5 11 l0 0 q4 1 8 1 q8 0 14 -5 q2 -2 3 -5 q4 -7 1.5 -14.5 q-2.5 -7.5 -10.5 -10.5 l-1 0 q-3 -2 -6 -2 q-9 0 -15 7 ZM252 97 q-41 0 -76 20 q-35 20 -55.5 53.5 q-20.5 33.5 -21.5 73.5 q5 1 9 3 q13 6 18 20 q5 14 -1 27 q-4 9 -13 14 q21 46 66 70 q-5 -14 1 -27 q5 -11 15 -16 q-22 -14 -35.5 -37.5 q-13.5 -23.5 -13.5 -50.5 q0 -24 10 -45 q-6 -8 -7.5 -18 q-1.5 -10 3 -19 q4.5 -9 13.5 -14.5 q9 -5.5 19 -5.5 q8 0 16 3 q3 2 7 5 q22 -11 46 -11 q28 0 53 14.5 q25 14.5 40 39.5 q7 -11 20 -15 q13 -4 25 2 q-19 -38 -56 -62 q-37 -24 -82 -24 ZM393 209 q-3 -8 -10 -11 q-7 -3 -14.5 -0.5 q-7.5 2.5 -11 9.5 q-3.5 7 -1 14.5 q2.5 7.5 9.5 10.5 l1 0 q3 2 8 2 q12 0 17 -11 q3 -7 1 -14 ZM375 250 q-8 0 -15 -3 l-2 -1 l0 1 q0 28 -14 52 q-14 24 -38.5 38 q-24.5 14 -54.5 15 l-7 -1 q7 15 0 30 q-4 9 -13 14 q10 2 21 2 q35 0 68 -16 q-4 -12 1 -22 q5 -10 14 -15.5 q9 -5.5 19 -5.5 q8 0 16 3 l0 1 q34 -41 34 -95 l0 -12 q-11 15 -29 15 ZM-6309 11928 l15272 0 l0 -12786 l-15272 0 l0 12786 ZM-61 535 l605 0 l0 -576 l-605 0 l0 576 ZM252 289 q-18 0 -31 -12 q-13 -12 -13 -30 q0 -18 13 -30.5 q13 -12.5 31 -12.5 q18 0 30.5 12.5 q12.5 12.5 12.5 30 q0 17.5 -12.5 30 q-12.5 12.5 -30.5 12.5 ZM252 226 q-9 0 -15.5 6 q-6.5 6 -6.5 15 q0 9 6.5 15 q6.5 6 15.5 6 q9 0 15.5 -6 q6.5 -6 6.5 -15 q0 -9 -6.5 -15 q-6.5 -6 -15.5 -6 ZM-6309 11928 l15272 0 l0 -12786 l-15272 0 l0 12786 ZM91 407 l321 0 l0 -320 l-321 0 l0 320 Z" /><glyph glyph-name="dedicateddns" unicode="&#xea1d;" d="M251 2 q-66 0 -122 33.5 q-56 33.5 -89 90.5 q-33 57 -33 124 q0 67 33 124 q33 57 89 90.5 q56 33.5 122.5 33.5 q66.5 0 122.5 -33.5 q56 -33.5 89 -90.5 q33 -57 33 -124 q0 -67 -33 -124 q-33 -57 -89 -90.5 q-56 -33.5 -123 -33.5 ZM251 478 q-60 0 -111.5 -31 q-51.5 -31 -82 -83 q-30.5 -52 -30.5 -114 q0 -62 30.5 -114.5 q30.5 -52.5 82 -83 q51.5 -30.5 112 -30.5 q60.5 0 112 31 q51.5 31 82 83 q30.5 52 30.5 114 q0 62 -30.5 114 q-30.5 52 -82 83 q-51.5 31 -112.5 31 l0 0 ZM383 362 q9 15 1 32 q-4 9 -13 15 q-9 6 -19 6 q-13 -1 -23 -9 q-37 19 -78 19 q-53 0 -95.5 -29.5 q-42.5 -29.5 -62.5 -77.5 q-7 0 -14 -3 q-13 -6 -18 -20 q-5 -14 0.5 -26.5 q5.5 -12.5 17.5 -18.5 l0 0 q0 -47 23 -87.5 q23 -40.5 62.5 -64 q39.5 -23.5 86.5 -23.5 q47 0 86.5 23.5 q39.5 23.5 62.5 64 q23 40.5 23 87.5 q0 31 -10.5 59.5 q-10.5 28.5 -29.5 52.5 ZM345 396 q0 0 0 0 l0 0 q4 2 8 2 q7 0 12.5 -6 q5.5 -6 5.5 -13 l-1 -7 q-2 -7 -9 -10 q-3 -2 -5 -2 l-3 0 q-12 0 -17 11 q-2 3 -2 8 q0 5 2.5 9.5 q2.5 4.5 8.5 7.5 ZM204 389 q4 2 8 2 q12 0 17 -11 q3 -7 0.5 -14.5 q-2.5 -7.5 -9.5 -11.5 q-4 -1 -8 -2 q-12 1 -17 11 q-3 8 -0.5 15 q2.5 7 9.5 11 ZM216 197 q-4 9 -13 14.5 q-9 5.5 -19 5.5 q-5 0 -9 -1 q-8 16 -7 34 q0 35 24.5 60 q24.5 25 59 25 q34.5 0 59 -25 q24.5 -25 24.5 -60 q0 -35 -24.5 -60 q-24.5 -25 -58.5 -25 q-18 0 -34 7 q3 13 -2 25 ZM203 181 q0 -3 -1 -6 q-3 -7 -10 -11 l-2 0 q-3 -1 -6 -1 q-12 0 -17 11 q-3 7 -0.5 14.5 q2.5 7.5 9.5 10.5 q3 2 7 2 l1 0 q12 0 17 -11 q2 -4 2 -9 ZM81 270 q-2 2 -4 5 q-3 7 0 14 q3 7 10 11 l0 0 q4 2 8 2 q7 0 13 -6 q2 -2 4 -5 q3 -7 0.5 -14.5 q-2.5 -7.5 -10.5 -11.5 l0 0 q-4 -1 -7 -1 q-9 0 -14 6 ZM251 97 q-40 0 -74.5 20 q-34.5 20 -54.5 54.5 q-20 34.5 -21 75.5 q4 1 8 3 q14 7 19 20.5 q5 13.5 -1 27.5 q-5 9 -13 15 q21 46 65 71 q-5 -14 1 -28 q5 -10 15 -16 q-23 -15 -36 -39 q-13 -24 -13 -51 q0 -24 11 -46 q-7 -8 -8 -18.5 q-1 -10.5 3 -19.5 q4 -9 13 -14.5 q9 -5.5 18 -5.5 q9 0 16 3 q4 2 7 5 q22 -11 45 -11 q29 0 53.5 15 q24.5 15 38.5 40 q5 -8 13 -12.5 q8 -4.5 16.5 -4.5 q8.5 0 15.5 4 q-19 -40 -55.5 -64 q-36.5 -24 -81.5 -24 ZM391 211 q-3 -8 -10 -11 q-4 -2 -8 -2 q-12 0 -17 11 q-3 7 -0.5 14.5 q2.5 7.5 9.5 11.5 q4 1 8 1 q12 0 17 -11 q3 -7 0 -14 l1 0 ZM373 253 q-8 0 -15 -3 l-1 -1 l0 1 q0 29 -14 53.5 q-14 24.5 -38.5 39 q-24.5 14.5 -52.5 14.5 l-7 0 q6 15 -1 30 q-4 9 -12 15 q45 6 87 -15 q-4 -14 4 -27 q8 -13 22 -16 q5 -1 8 -1 q8 0 15 3 l1 1 q34 -43 34 -97 l-1 -12 q-11 15 -29 15 ZM252 293 q-18 0 -30.5 -12.5 q-12.5 -12.5 -12.5 -30.5 q0 -18 12.5 -31 q12.5 -13 30 -13 q17.5 0 30 13 q12.5 13 12.5 31 q0 18 -12.5 30.5 q-12.5 12.5 -30.5 12.5 l1 0 ZM252 228 q-10 0 -16 6.5 q-6 6.5 -6.5 15.5 q-0.5 9 6 15.5 q6.5 6.5 15.5 6.5 q9 0 15.5 -6.5 q6.5 -6.5 6.5 -15.5 l0 0 q0 -9 -6 -15.5 q-6 -6.5 -15 -6.5 Z" /><glyph glyph-name="document" unicode="&#xea1e;" d="M452 364 l-120 120 q-3 3 -8 3 l-264 0 q-5 0 -8.5 -3.5 q-3.5 -3.5 -3.5 -8.5 l0 -456 q0 -5 3.5 -8.5 q3.5 -3.5 8.5 -3.5 l384 0 q4 0 7.5 3.5 q3.5 3.5 3.5 8.5 l0 336 q1 5 -3 9 ZM419 363 l-90 0 l0 89 l90 -89 ZM432 31 l-360 0 l0 432 l233 0 l0 -112 q0 -5 3.5 -8.5 q3.5 -3.5 8.5 -3.5 l115 0 l0 -308 ZM348 231 l-192 0 q-5 0 -9 3.5 q-4 3.5 -3.5 8.5 q0.5 5 4 8.5 q3.5 3.5 7.5 3.5 l193 0 q4 0 7.5 -3.5 q3.5 -3.5 4 -8.5 q0.5 -5 -3 -8.5 q-3.5 -3.5 -8.5 -3.5 ZM204 327 l-48 0 q-5 0 -9 3.5 q-4 3.5 -4 8.5 q0 5 4 8.5 q4 3.5 8 3.5 l49 0 q4 0 8 -3.5 q4 -3.5 3.5 -8.5 q-0.5 -5 -3.5 -8.5 q-3 -3.5 -9 -3.5 l1 0 ZM348 135 l-192 0 q-5 0 -9 3.5 q-4 3.5 -3.5 8.5 q0.5 5 4 8.5 q3.5 3.5 7.5 3.5 l193 0 q4 0 7.5 -3.5 q3.5 -3.5 4 -8.5 q0.5 -5 -3 -8.5 q-3.5 -3.5 -8.5 -3.5 Z" /><glyph glyph-name="download" unicode="&#xea1f;" d="M468 33 l-432 0 q-5 0 -9 3.5 q-4 3.5 -4 8.5 l0 149 q0 5 4 8.5 q4 3.5 9 3.5 q5 0 8.5 -3.5 q3.5 -3.5 3.5 -9.5 l0 -135 l407 0 l0 136 q0 5 4 8.5 q4 3.5 9 3.5 q5 0 8.5 -3.5 q3.5 -3.5 3.5 -9.5 l0 -148 q0 -5 -3.5 -8.5 q-3.5 -3.5 -8.5 -3.5 ZM334 215 l-73 -73 q-4 -4 -9 -4 q-5 0 -9 4 l-73 73 q-4 3 -3.5 8.5 q0.5 5.5 4 9 q3.5 3.5 8.5 3.5 q5 0 9 -4 l52 -51 l0 280 q-1 5 3 8.5 q4 3.5 9 3.5 q5 0 9 -3.5 q4 -3.5 4 -8.5 l0 -280 l51 51 q4 4 9 4 q5 0 8.5 -3.5 q3.5 -3.5 3.5 -9 q0 -5.5 -3 -8.5 l0 0 Z" /><glyph glyph-name="draghandle" unicode="&#xea20;" d="M474 229 l-448 0 q-8 0 -13 5.5 q-5 5.5 -5 13 q0 7.5 5 13 q5 5.5 13 5.5 l448 0 q7 0 12.5 -5.5 q5.5 -5.5 5.5 -13 q0 -7.5 -5.5 -13 q-5.5 -5.5 -12.5 -5.5 ZM474 327 l-448 0 q-8 0 -13 5.5 q-5 5.5 -5 13 q0 7.5 5 13 q5 5.5 13 5.5 l448 0 q7 0 12.5 -5.5 q5.5 -5.5 5.5 -13 q0 -7.5 -5.5 -13 q-5.5 -5.5 -12.5 -5.5 ZM472 130 l-446 0 q-8 0 -13 5.5 q-5 5.5 -5 13 q0 7.5 5 13 q5 5.5 13 5.5 l446 0 q8 0 13 -5.5 q5 -5.5 5 -13 q0 -7.5 -5 -13 q-5 -5.5 -13 -5.5 Z" /><glyph glyph-name="edit" unicode="&#xea21;" d="M494 423 l-71 71 q-3 3 -8 3 l0 0 q-5 0 -9 -3 l-364 -366 q-2 -2 -3 -5 l-34 -103 q-1 -5 1 -9.5 q2 -4.5 7 -5.5 q2 -1 4 -1 l3 0 l105 33 q2 1 4 3 l365 366 q3 3 3 8 q0 5 -3 9 ZM115 59 l-80 -25 l26 79 l289 290 l54 -54 l-289 -290 ZM421 366 l-54 54 l48 48 l53 -54 l-47 -48 Z" /><glyph glyph-name="email" unicode="&#xea22;" d="M488 440 l-475 0 q-3 0 -5.5 -2.5 q-2.5 -2.5 -2.5 -5.5 l0 -338 q0 -3 2.5 -5.5 q2.5 -2.5 5.5 -2.5 l475 0 q3 0 5.5 2.5 q2.5 2.5 2.5 5.5 l0 338 q0 3 -2.5 5.5 q-2.5 2.5 -5.5 2.5 ZM450 417 l-200 -162 l-200 162 l400 0 ZM472 110 l-443 0 l0 293 l214 -174 q3 -2 7.5 -2 q4.5 0 7.5 2 l214 174 l0 -293 Z" /><glyph glyph-name="emptycircle" unicode="&#xea23;" d="M250 474 q70 0 128.5 -41 q58.5 -41 82 -107.5 q23.5 -66.5 4 -135.5 q-19.5 -69 -74 -113 q-54.5 -44 -125 -49 q-70.5 -5 -130 30.5 q-59.5 35.5 -88.5 100 q-29 64.5 -17 132.5 q10 51 42 93 q32 42 78.5 66 q46.5 24 99.5 24 ZM250 498 q-78 0 -142.5 -46 q-64.5 -46 -90.5 -118.5 q-26 -72.5 -5.5 -148 q20.5 -75.5 79.5 -125.5 q40 -33 90 -47 q50 -14 101.5 -7.5 q51.5 6.5 96.5 33.5 q65 39 96.5 110.5 q31.5 71.5 17.5 146.5 q-10 57 -45.5 103 q-35.5 46 -87.5 72.5 q-52 26.5 -110 26.5 l0 0 Z" /><glyph glyph-name="filledcircle" unicode="&#xea24;" d="M0 250 q0 -68 33.5 -125.5 q33.5 -57.5 91 -91 q57.5 -33.5 125.5 -33.5 q68 0 125.5 33.5 q57.5 33.5 91 91 q33.5 57.5 33.5 125.5 q0 68 -33.5 125.5 q-33.5 57.5 -91 91 q-57.5 33.5 -125.5 33.5 q-68 0 -125.5 -33.5 q-57.5 -33.5 -91 -91 q-33.5 -57.5 -33.5 -125.5 Z" /><glyph glyph-name="filter-mini" unicode="&#xea25;" d="M460 340 l-420 0 l-30 60 l480 0 l-30 -60 ZM370 220 l-240 0 l-30 60 l300 0 l-30 -60 ZM280 100 l-60 0 l-30 60 l120 0 l-30 -60 Z" /><glyph glyph-name="filterchain" unicode="&#xea26;" d="M203 38 q-5 0 -8.5 3 q-3.5 3 -3.5 9 l0 122 l-109 154 q-2 4 -2 8 q0 4 3 7.5 q3 3.5 8 3.5 l325 0 q6 0 9 -3.5 q3 -3.5 3 -7.5 q0 -4 -2 -8 l-111 -154 l0 -45 q0 -6 -4 -9 l-101 -78 q-4 -2 -7 -2 l0 0 ZM115 322 l97 -139 q2 -4 2 -7 l0 -103 l78 59 l0 44 q0 4 2 7 l100 139 l-279 0 ZM63 360 q-7 0 -11 7 l-13 23 l-1 1 q0 6 3.5 10 q3.5 4 8.5 4 l406 0 q6 -2 7.5 -7 q1.5 -5 -0.5 -10 l-13 -22 q-3 -4 -7.5 -5.5 q-4.5 -1.5 -8.5 1 q-4 2.5 -5.5 7 q-1.5 4.5 0.5 8.5 l0 0 l4 5 l-364 0 l5 -8 q2 -2 1 -5 q-4 -9 -12 -9 l0 0 ZM474 421 q-8 0 -12 8 q-1 3 0 5 l5 9 l-433 0 l5 -8 q1 -3 0 -5 q-4 -9 -11.5 -9 q-7.5 0 -10.5 7 l-11 22 q-2 4 0 9 q2 5 7 7 l2 0 l472 0 q5 -2 7 -6.5 q2 -4.5 0 -9.5 l-10 -22 q-3 -7 -10 -7 Z" /><glyph glyph-name="folder" unicode="&#xea27;" d="M484 55 l-467 0 q-5 0 -8.5 3.5 q-3.5 3.5 -3.5 8.5 l0 365 q0 5 3.5 8.5 q3.5 3.5 8.5 3.5 l154 0 q6 0 10 -5 l45 -65 l258 0 q5 0 8.5 -3.5 q3.5 -3.5 3.5 -8.5 l0 -295 q0 -5 -3.5 -8.5 q-3.5 -3.5 -8.5 -3.5 ZM29 79 l443 0 l0 271 l-250 0 q-6 0 -10 5 l-45 65 l-138 0 l0 -341 Z" /><glyph glyph-name="gear-stroked" unicode="&#xea28;&#xea46;" d="M294 13 q-1 -4 -4 -6.5 q-3 -2.5 -7 -2.5 l-65 0 q-5 0 -8 2.5 q-3 2.5 -4 6.5 l-14 50 q-17 5 -33 13 l-45 -25 q-8 -4 -15 2 l-46 46 q-6 6 -2 14 l26 46 q-9 16 -14 32 l-50 15 q-9 2 -9 11 l0 65 q0 4 2.5 7.5 q2.5 3.5 6.5 4.5 l50 14 q5 17 13 33 l-25 45 q-4 8 2 15 l46 46 q7 6 15 2 l45 -26 q16 8 32 14 l15 50 q2 9 11 9 l66 0 q4 0 7 -2.5 q3 -2.5 4 -6.5 l15 -50 q16 -6 32 -14 l46 26 q7 4 14 -2 l46 -46 q6 -7 2 -15 l-25 -45 q8 -16 13 -33 l50 -14 q9 -3 9 -12 l0 -65 q0 -4 -2.5 -7 q-2.5 -3 -6.5 -4 l-50 -15 q-5 -16 -13 -32 l25 -46 q4 -8 -2 -14 l-46 -46 q-7 -6 -14 -2 l-46 25 q-16 -8 -32 -13 l-15 -50 ZM227 28 l47 0 l13 48 q2 7 9 8 q20 6 39 16 q6 4 12 1 l43 -25 l34 34 l-25 43 q-3 6 1 12 q10 19 16 39 q1 7 8 9 l48 13 l0 48 l-48 13 q-7 2 -8 9 q-6 20 -16 39 q-4 5 0 12 l24 43 l-34 34 l-43 -25 q-6 -3 -12 0 q-19 11 -39 17 q-7 1 -9 8 l-13 48 l-47 0 l-14 -48 q-2 -7 -9 -8 q-20 -6 -39 -17 q-5 -3 -11 0 l-44 25 l-34 -34 l25 -43 q3 -6 0 -12 q-11 -19 -17 -39 q-1 -7 -8 -9 l-48 -14 l0 -47 l48 -13 q7 -2 8 -9 q6 -20 17 -39 q3 -6 0 -12 l-25 -43 l34 -34 l43 25 q6 3 12 -1 q19 -10 39 -16 q7 -1 9 -8 l14 -48 ZM250 112 q-37 0 -69 18.5 q-32 18.5 -50.5 50 q-18.5 31.5 -18.5 69 q0 37.5 18.5 69 q18.5 31.5 50.5 50 q32 18.5 69 18.5 q37 0 69 -18.5 q32 -18.5 50.5 -50 q18.5 -31.5 18.5 -69 q0 -37.5 -18.5 -69 q-18.5 -31.5 -50.5 -50 q-32 -18.5 -69 -18.5 l0 0 ZM250 363 q-31 0 -57 -15 q-26 -15 -41.5 -41.5 q-15.5 -26.5 -15.5 -57 q0 -30.5 15.5 -57 q15.5 -26.5 41.5 -41.5 q26 -15 57 -15 q31 0 57 15 q26 15 41.5 41.5 q15.5 26.5 15.5 57 q0 30.5 -15.5 57 q-15.5 26.5 -41.5 41.5 q-26 15 -57 15 l0 0 Z" /><glyph glyph-name="geo-graph" unicode="&#xea29;" d="M452 374 q-25 40 -63.5 67 q-38.5 27 -84.5 38 q-26 6 -53 6 q-55 0 -103 -23.5 q-48 -23.5 -81.5 -65.5 q-33.5 -42 -45.5 -95 q-12 -53 0 -105.5 q12 -52.5 45.5 -95 q33.5 -42.5 82.5 -65.5 q49 -23 103 -23 q54 0 102.5 23 q48.5 23 82 65 q33.5 42 45.5 96 q11 45 3 91.5 q-8 46.5 -33 86.5 ZM252 34 q-63 0 -116 34 q7 6 17 18 q8 9 11 14 q3 5 1 22 l0 8 q1 3 -7 18.5 q-8 15.5 -11.5 19 q-3.5 3.5 3.5 21.5 q3 10 4 15 q1 5 -6 12 q-4 4 -15 13 q-9 6 -12 9 q-3 3 -6 2 q-3 -1 -7.5 -5.5 q-4.5 -4.5 -8 -6 q-3.5 -1.5 -7.5 1.5 q-6 4 -7 13 q0 6 2 18 l1 9 q1 8 -17 16 q-12 5 -28 9 l0 1 q15 64 62.5 108.5 q47.5 44.5 111.5 54.5 q-11 -12 -13 -32 l-2 -17 q-3 -17 -2 -22 q2 -9 14 -14.5 q12 -5.5 29 -7.5 q10 -1 16 -2.5 q6 -1.5 7 -13.5 q1 -6 1 -19 q-1 -10 0 -11 l2 -9 q3 -12 8 -24 q8 -15 19 -28 q14 -16 32 -26 q8 -4 -7 -15 q-15 -11 -31 -14 l-12 -2 q-13 -1 -18 -4 q-8 -3 -11 -12 q-3 -9 3 -12 q4 -3 13.5 -4 q9.5 -1 11.5 -3 q10 -7 21 -11 q18 -6 28 3 q5 4 16 5 q6 1 20.5 1 q14.5 0 19.5 1 q9 2 8 9 q0 14 13 25 q8 7 30.5 19 q22.5 12 31.5 20 q-1 -19 -5 -38 q-11 -49 -41.5 -86.5 q-30.5 -37.5 -74 -59 q-43.5 -21.5 -92.5 -21.5 Z" /><glyph glyph-name="geolocation" unicode="&#xea2a;" d="M246 21 l0 0 q-11 0 -16 10 l-125 236 l-1 3 q-17 39 -12 80 q5 41 29 74.5 q24 33.5 62 50.5 q30 13 63 13 l0 0 q42 0 77.5 -21 q35.5 -21 56.5 -56.5 q21 -35.5 21 -78.5 q0 -32 -13 -62 l-1 -3 l-124 -236 q-6 -10 -17 -10 ZM128 275 l118 -224 l118 224 l1 2 q15 32 11.5 67 q-3.5 35 -23.5 63.5 q-20 28.5 -52 43.5 q-26 12 -55 12 l0 0 q-26 0 -50 -10 q-24 -10 -42 -28 q-29 -30 -36.5 -70.5 q-7.5 -40.5 9.5 -77.5 l1 -2 ZM246 294 q-19 0 -33 14 l0 0 q-13 13 -13 32.5 q0 19.5 13.5 33 q13.5 13.5 32.5 13.5 q19 0 32.5 -13.5 q13.5 -13.5 13.5 -33 q0 -19.5 -13.5 -33 q-13.5 -13.5 -32.5 -13.5 l0 0 ZM246 363 q-9 0 -15.5 -6.5 q-6.5 -6.5 -6.5 -16 q0 -9.5 6 -15.5 l0 0 q7 -7 16 -7 q9 0 15.5 6.5 q6.5 6.5 6.5 16 q0 9.5 -6.5 16 q-6.5 6.5 -15.5 6.5 l0 0 ZM246 243 q-40 0 -69 28.5 q-29 28.5 -29 69 q0 40.5 29 69 q29 28.5 69.5 28.5 q40.5 0 69 -28.5 q28.5 -28.5 28.5 -69.5 q0 -19 -7.5 -37 q-7.5 -18 -21.5 -31.5 q-14 -13.5 -31.5 -21 q-17.5 -7.5 -37.5 -7.5 l0 0 ZM246 414 q-30 0 -52 -21.5 q-22 -21.5 -22 -52 q0 -30.5 22 -52.5 l0 0 q22 -21 52.5 -21 q30.5 0 52 21.5 q21.5 21.5 21.5 52 q0 30.5 -21.5 52 q-21.5 21.5 -52.5 21.5 l0 0 Z" /><glyph glyph-name="help" unicode="&#xea2b;" d="M305 317 q0 -51 -61 -64 q-10 -3 -12 -5.5 q-2 -2.5 -2 -9.5 l0 -44 q1 -10 18 -10 q6 0 11.5 2.5 q5.5 2.5 5.5 8.5 l1 32 l0 0 q37 9 59 43 q5 8 8.5 20.5 q3.5 12.5 3.5 25.5 q0 37 -26.5 61 q-26.5 24 -71.5 24 q-25 0 -39 -6.5 q-14 -6.5 -11 -19.5 q1 -5 6 -8 q5 -3 13 -2 q20 4 33 4 q32 0 49 -15 q14 -14 14 -38 l1 1 ZM250 473 q70 0 128.5 -41 q58.5 -41 82 -107 q23.5 -66 4 -135.5 q-19.5 -69.5 -74 -113.5 q-54.5 -44 -125 -49 q-70.5 -5 -130 30.5 q-59.5 35.5 -88.5 100 q-29 64.5 -17 132.5 q10 52 42 93.5 q32 41.5 78.5 65.5 q46.5 24 99.5 24 ZM250 497 q-78 0 -142.5 -45.5 q-64.5 -45.5 -90.5 -118.5 q-26 -73 -5.5 -148.5 q20.5 -75.5 79.5 -124.5 q40 -34 90 -48 q50 -14 101.5 -7.5 q51.5 6.5 96.5 33.5 q65 40 96.5 111 q31.5 71 17.5 146 q-10 57 -45.5 103 q-35.5 46 -87.5 72.5 q-52 26.5 -110 26.5 ZM226 120 q0 -10 6.5 -16.5 q6.5 -6.5 16 -6.5 q9.5 0 16 6.5 q6.5 6.5 6.5 16 q0 9.5 -6.5 16 q-6.5 6.5 -16 6.5 q-9.5 0 -16 -6.5 q-6.5 -6.5 -6.5 -16.5 l0 1 Z" /><glyph glyph-name="hide" unicode="&#xea2c;" d="M476 273 q-35 57 -94 90 l-1 1 l88 88 q3 3 3 8 q0 5 -3.5 8.5 q-3.5 3.5 -8.5 3.5 q-5 0 -8 -3 l-94 -94 q-58 25 -121.5 22 q-63.5 -3 -118.5 -34 q-59 -33 -94 -91 q-7 -10 -7 -22 q0 -12 7 -22 q35 -57 94 -90 l1 -1 l-87 -88 q-4 -4 -4 -9 q0 -5 3.5 -8.5 q3.5 -3.5 8.5 -3.5 q5 0 8 4 l94 94 q58 -26 121.5 -22.5 q63.5 3.5 118.5 34.5 q59 32 94 90 q7 10 7 22 q0 12 -7 23 l0 0 ZM130 159 q-26 14 -48 35 q-22 21 -38 47 q-6 9 0 19 q32 52 86 82 q48 27 103 31 q55 4 107 -16 l-37 -37 q-29 21 -65 16 q-36 -5 -57 -34 q-18 -23 -18 -52 q0 -29 18 -52 l-44 -44 l-7 5 ZM302 286 q15 -22 10 -47.5 q-5 -25.5 -27 -40.5 q-16 -11 -35 -11 q-19 0 -35 11 l87 88 ZM198 215 q-15 22 -10 47.5 q5 25.5 27 39.5 q16 11 35 11 q19 0 35 -11 l-87 -87 ZM456 240 q-32 -52 -86 -82 q-56 -31 -120 -31 q-46 0 -89 17 l37 37 q28 -22 64 -17 q36 5 57 34 q18 23 18 52 q0 29 -18 53 l44 43 l7 -4 q54 -30 86 -82 q6 -10 0 -20 l0 0 Z" /><glyph glyph-name="history" unicode="&#xea2d;" d="M497 250 q0 -60 -30 -111 q-30 -51 -81 -80.5 q-51 -29.5 -111 -29.5 q-44 0 -84.5 16.5 q-40.5 16.5 -71.5 47.5 q-49 49 -61 118 l-44 0 q-5 0 -9 3.5 q-4 3.5 -4 8 q0 4.5 3 8.5 l57 76 q3 4 8 4.5 q5 0.5 9 -2.5 l3 -2 l57 -76 q3 -4 2 -9 q-1 -5 -4.5 -8 q-3.5 -3 -7.5 -3 l-46 0 q9 -45 37 -81 q28 -36 68.5 -56.5 q40.5 -20.5 87.5 -20.5 q54 0 99 26.5 q45 26.5 72 71.5 q27 45 27 98.5 q0 53.5 -27 99 q-27 45.5 -72 72 q-45 26.5 -99 26.5 q-39 0 -76 -15.5 q-37 -15.5 -65 -43.5 q-3 -4 -8 -4 q-5 0 -8.5 3.5 q-3.5 3.5 -3.5 8.5 q0 5 3 9 l0 0 q42 43 99 58.5 q57 15.5 114 1 q57 -14.5 100 -56.5 q32 -31 49.5 -72 q17.5 -41 17.5 -86 ZM239 154 q-5 0 -8.5 3.5 q-3.5 3.5 -3.5 7.5 q0 4 1 7 l41 81 l0 122 q0 5 3.5 8.5 q3.5 3.5 8.5 3.5 q5 0 8.5 -3.5 q3.5 -3.5 3.5 -8.5 l0 -125 q0 -3 -2 -5 l-41 -84 q-4 -7 -11 -7 Z" /><glyph glyph-name="host" unicode="&#xea2e;" d="M250 483 l203 -117 l0 -229 l-203 -122 l-203 120 l0 231 l203 117 ZM291 271 l159 92 l-159 -92 ZM250 33 l0 189 l0 -189 ZM205 271 l-158 95 l158 -95 ZM250 222 q15 -1 26 10 q11 11 11 26.5 q0 15.5 -10.5 26.5 q-10.5 11 -26 11 q-15.5 0 -26.5 -11 q-11 -11 -11 -26 l0 0 q0 -16 11 -26.5 q11 -10.5 26 -10.5 l0 0 Z" /><glyph glyph-name="id" unicode="&#xea2f;" d="M47 400 l406 0 l0 -300 l-406 0 l0 300 ZM303 282 l1 -1 l86 0 l-1 1 l-86 0 ZM303 218 l1 -1 l86 0 l-1 1 l-86 0 ZM239 186 l-128 0 q0 26 19 45 q19 19 45.5 19 q26.5 0 45 -19 q18.5 -19 18.5 -45 ZM175 250 q-13 0 -22.5 9.5 q-9.5 9.5 -9.5 22.5 q0 13 9.5 22.5 q9.5 9.5 22.5 9.5 q13 0 22.5 -9.5 q9.5 -9.5 9.5 -22.5 q0 -13 -9.5 -22.5 q-9.5 -9.5 -22.5 -9.5 Z" /><glyph glyph-name="identity" unicode="&#xea30;" d="M486 60 l-472 0 q-5 0 -8.5 3.5 q-3.5 3.5 -3.5 8.5 l0 348 q0 5 3.5 8.5 q3.5 3.5 8.5 3.5 l472 0 q5 0 8.5 -3.5 q3.5 -3.5 3.5 -8.5 l0 -348 q0 -5 -3.5 -8.5 q-3.5 -3.5 -8.5 -3.5 ZM26 84 l449 0 l0 324 l-449 0 l0 -324 ZM412 268 l-99 0 q-5 0 -8.5 3 q-3.5 3 -4 7.5 q-0.5 4.5 2.5 8.5 q3 4 7 5 l102 0 q4 0 7.5 -2.5 q3.5 -2.5 4.5 -7.5 q1 -5 -2 -9 q-3 -4 -8 -5 l-2 0 ZM412 193 l-99 0 q-5 0 -8.5 2.5 q-3.5 2.5 -4 7.5 q-0.5 5 2.5 9 q3 4 7 4 l102 1 q4 0 7.5 -3 q3.5 -3 4.5 -7.5 q1 -4.5 -2 -8.5 q-3 -4 -8 -5 l-2 0 ZM238 160 l-150 0 q-4 0 -7 3.5 q-3 3.5 -3 7.5 q0 25 13.5 46.5 q13.5 21.5 37.5 31.5 q-14 15 -14 35 q0 20 14.5 33.5 q14.5 13.5 34.5 13.5 q20 0 33.5 -14 q13.5 -14 13.5 -34 q0 -20 -14 -34 q24 -10 38 -31.5 q14 -21.5 14 -46.5 q0 -4 -3.5 -7.5 q-3.5 -3.5 -7.5 -3.5 ZM100 182 l126 0 q-5 26 -26.5 41 q-21.5 15 -47.5 11 q-20 -4 -34 -18 q-14 -14 -18 -34 ZM163 309 q-11 0 -18.5 -7.5 q-7.5 -7.5 -7.5 -18.5 q0 -11 7.5 -18.5 q7.5 -7.5 18.5 -7.5 q11 0 19 7.5 q8 7.5 7.5 18.5 q-0.5 11 -8 18.5 q-7.5 7.5 -18.5 7.5 Z" /><glyph glyph-name="info" unicode="&#xea31;" d="M268 292 q0 8 -5.5 13.5 q-5.5 5.5 -13 5.5 q-7.5 0 -12.5 -5.5 q-5 -5.5 -5 -13.5 l0 -173 q0 -9 5.5 -14.5 q5.5 -5.5 13 -5.5 q7.5 0 12.5 5.5 q5 5.5 5 13.5 l0 174 ZM271 376 q0 9 -6.5 15.5 q-6.5 6.5 -15.5 6.5 q-9 0 -15 -6.5 q-6 -6.5 -6 -15.5 q0 -9 6 -15.5 q6 -6.5 15 -6.5 l0 0 q9 0 15.5 6.5 q6.5 6.5 6.5 15.5 l0 0 ZM249 474 q68 0 125.5 -39 q57.5 -39 82.5 -102 q26 -66 9 -136 q-17 -70 -71.5 -116.5 q-54.5 -46.5 -128 -52.5 q-73.5 -6 -134.5 32 q-59 37 -87 101.5 q-28 64.5 -15 133.5 q11 50 43 91 q32 41 78.5 64.5 q46.5 23.5 97.5 23.5 ZM249 498 q-77 0 -142 -46 q-65 -46 -91 -119 q-26 -73 -5 -148 q21 -75 80 -125 q39 -33 89.5 -47 q50.5 -14 102 -7.5 q51.5 6.5 96.5 33.5 q65 40 96.5 111 q31.5 71 17.5 146 q-11 57 -46.5 103 q-35.5 46 -87.5 72.5 q-52 26.5 -110 26.5 l0 0 Z" /><glyph glyph-name="integrations" unicode="&#xea32;" d="M472 55 l0 395 q0 5 3 8 q3 3 7.5 4 q4.5 1 8.5 -2 q4 -3 5 -8 l0 -398 q0 -5 -3.5 -8.5 q-3.5 -3.5 -8.5 -3.5 l-2 0 q-4 1 -7 4.5 q-3 3.5 -3 8.5 l0 0 ZM408 269 l-287 0 q-5 20 -21 32.5 q-16 12.5 -36 12.5 q-25 0 -42 -17.5 q-17 -17.5 -17 -41.5 q0 -24 17 -41 q17 -17 42 -17 q21 0 37.5 13.5 q16.5 13.5 20.5 34.5 l287 0 q4 0 8 3.5 q4 3.5 4 8.5 l0 1 q-1 5 -4.5 8 q-3.5 3 -8.5 3 ZM64 220 q-15 0 -25.5 10.5 q-10.5 10.5 -10 24.5 q0.5 14 10.5 24.5 q10 10.5 24.5 10.5 q14.5 0 25 -10.5 q10.5 -10.5 10.5 -24.5 q0 -14 -10.5 -24.5 q-10.5 -10.5 -24.5 -10.5 l0 0 ZM406 416 l-169 0 q-4 20 -20.5 32.5 q-16.5 12.5 -36.5 12.5 q-25 0 -42 -17 q-17 -17 -17 -41.5 q0 -24.5 17 -41.5 q17 -17 42 -17 q21 0 37.5 13.5 q16.5 13.5 20.5 34.5 l168 0 q5 0 8.5 3.5 q3.5 3.5 3.5 8.5 l0 2 q-1 4 -4.5 7 q-3.5 3 -7.5 3 l0 0 ZM180 368 q-15 0 -25 10 q-10 10 -10 24.5 q0 14.5 10 24.5 q10 10 24.5 10.5 q14.5 0.5 25 -10 q10.5 -10.5 10.5 -25 q0 -14.5 -10.5 -24.5 q-10.5 -10 -24.5 -10 ZM408 117 l-110 0 q-6 19 -21.5 30.5 q-15.5 11.5 -35.5 11.5 q-24 0 -41.5 -17.5 q-17.5 -17.5 -17.5 -41.5 q0 -24 17.5 -41.5 q17.5 -17.5 40.5 -17.5 q23 0 40 15 q17 15 20 37 l108 0 q5 0 8.5 3.5 q3.5 3.5 3.5 8.5 q0 5 -3.5 8.5 q-3.5 3.5 -8.5 3.5 l0 0 ZM241 66 q-14 0 -24.5 10 q-10.5 10 -10.5 24.5 q0 14.5 10.5 24.5 q10.5 10 25 10 q14.5 0 24.5 -10 q10 -10 10 -24.5 q0 -14.5 -10 -25 q-10 -10.5 -25 -10.5 l0 1 Z" /><glyph glyph-name="integrations_nav" unicode="&#xea33;" d="M409 239 l-250 0 q-6 0 -9.5 4 q-3.5 4 -3.5 9 q0 5 3.5 9 q3.5 4 9.5 4 l250 0 q5 0 8.5 -4 q3.5 -4 3.5 -9 q0 -5 -3.5 -9 q-3.5 -4 -8.5 -4 ZM409 115 l-62 0 q-6 0 -9.5 3.5 q-3.5 3.5 -3.5 8.5 q0 5 3.5 9 q3.5 4 9.5 4 l62 0 q5 0 8.5 -4 q3.5 -4 3.5 -9 q0 -5 -3.5 -9 q-3.5 -4 -8.5 -4 l0 1 ZM409 364 l-127 0 q-5 0 -9 4 q-4 4 -4 9 q0 5 4 9 q4 4 9 4 l127 0 q5 0 8.5 -4 q3.5 -4 3.5 -9 q0 -5 -3.5 -9 q-3.5 -4 -8.5 -4 ZM59 202 q-21 0 -36.5 15 q-15.5 15 -15.5 36.5 q0 21.5 15 36.5 q15 15 36.5 15 q21.5 0 36.5 -15 q15 -15 15 -36 l1 0 q0 -22 -15.5 -37 q-15.5 -15 -36.5 -15 ZM59 280 q-11 0 -19 -7.5 q-8 -7.5 -8 -18.5 q0 -11 7.5 -19 q7.5 -8 18.5 -8 q11 0 19 7.5 q8 7.5 8 18.5 l0 1 q0 10 -7.5 18 q-7.5 8 -18.5 8 l0 0 ZM248 77 q-22 0 -37.5 15 q-15.5 15 -15.5 36.5 q0 21.5 15 36.5 q15 15 36.5 15.5 q21.5 0.5 37 -14.5 q15.5 -15 15.5 -37 l0 0 q0 -22 -15 -37 q-15 -15 -36 -15 ZM248 155 q-11 0 -19 -7.5 q-8 -7.5 -8.5 -18.5 q-0.5 -11 7.5 -19 q8 -8 19 -8 q11 0 18.5 7.5 q7.5 7.5 8.5 18.5 l0 1 q0 10 -8 18 q-8 8 -19 8 l1 0 ZM182 327 q-22 -1 -37 14.5 q-15 15.5 -15.5 36.5 q-0.5 21 14.5 36.5 q15 15.5 36.5 15.5 q21.5 0 37 -15 q15.5 -15 15.5 -36 l0 -1 q0 -21 -15 -36 q-15 -15 -36 -15 ZM182 405 q-11 0 -19 -7.5 q-8 -7.5 -8 -18.5 q0 -11 7.5 -19 q7.5 -8 18.5 -8 q11 0 19 7.5 q8 7.5 8 18.5 l0 0 q0 11 -7.5 19 q-7.5 8 -18.5 8 ZM473 83 q-6 0 -10 4 q-4 4 -4 10 l0 314 q0 6 4 10 q4 4 10 4.5 q6 0.5 10 -3.5 q4 -4 5 -10 l0 -315 q0 -6 -4.5 -10 q-4.5 -4 -10.5 -4 l0 0 Z" /><glyph glyph-name="interface" unicode="&#xea34;" d="M475 203 l-186 0 l0 51 l-169 0 l0 -158 l169 0 l0 62 l120 0 l0 -26 l66 0 l0 -122 l-186 0 l0 60 l-195 0 l0 272 l-69 0 l0 148 l120 0 l0 -26 l66 0 l0 -122 l-91 0 l0 -62 l169 0 l0 71 l120 0 l0 -26 l66 0 l0 -122 Z" /><glyph glyph-name="line-graph" unicode="&#xea35;" d="M-4962 -16365 l27520 0 l0 19570 l-27520 -19570 ZM451 408 q-14 0 -24.5 -8 q-10.5 -8 -15 -20.5 q-4.5 -12.5 -1 -25.5 q3.5 -13 14.5 -21 l-43 -127 l-49 90 q-4 7 -12 6.5 q-8 -0.5 -10 -8.5 l-66 -207 l-64 152 q-3 8 -11 8 q-8 0 -11 -7 l-49 -106 l-45 68 q-4 5 -10.5 5 q-6.5 0 -10.5 -6 l-38 -67 q-2 -4 -1 -9 q1 -5 5.5 -7.5 q4.5 -2.5 9.5 -1 q5 1.5 7 5.5 l29 50 l46 -69 q4 -6 11 -5.5 q7 0.5 10 6.5 l46 101 l66 -158 q3 -7 11 -7 l1 0 q8 0 10 8 l68 212 l49 -90 q4 -7 12 -6 q8 1 10 8 l51 152 l4 -1 q17 1 29 13 q12 12 12 29.5 q0 17.5 -12 30 q-12 12.5 -29 12.5 ZM455 348 q-2 -1 -4 -1 q-6 0 -10.5 3.5 q-4.5 3.5 -6.5 8.5 q-1 3 -1 7 q0 7 5 12 q5 5 12 5.5 q7 0.5 12.5 -4 q5.5 -4.5 6.5 -11.5 q1 -7 -3 -13 q-4 -6 -11 -7 Z" /><glyph glyph-name="link" unicode="&#xea36;" d="M363 241 l-226 0 q-5 0 -8.5 3 q-3.5 3 -4 7.5 q-0.5 4.5 2 8.5 q2.5 4 7.5 5 l228 0 q5 0 8.5 -3 q3.5 -3 4 -7.5 q0.5 -4.5 -2 -8.5 q-2.5 -4 -7.5 -5 l-2 0 l0 0 ZM199 160 l-186 0 q-5 0 -8.5 3.5 q-3.5 3.5 -3.5 8.5 l0 164 q0 5 3.5 8.5 q3.5 3.5 8.5 3.5 l187 -1 q4 0 7 -2.5 q3 -2.5 4 -7.5 q1 -5 -2.5 -9 q-3.5 -4 -8.5 -4 l-175 0 l0 -140 l174 0 q5 0 8.5 -3.5 q3.5 -3.5 3.5 -8.5 q0 -5 -3.5 -8.5 q-3.5 -3.5 -7.5 -3.5 l-1 0 ZM301 159 q-8 0 -11 7 q-3 7 1 12.5 q4 5.5 10 5.5 l174 0 l0 140 l-174 0 q-5 0 -8.5 3.5 q-3.5 3.5 -3.5 8.5 q0 5 3.5 8.5 q3.5 3.5 8.5 3.5 l186 0 q5 0 9 -4 q1 -1 2 -5 l1 -3 l0 -164 l-4 -6 q-4 -6 -8 -6 l-186 -1 Z" /><glyph glyph-name="lock" unicode="&#xea37;" d="M283 191 q1 -11 -5 -20.5 q-6 -9.5 -17 -13.5 l0 -54 q0 -5 -3 -8.5 q-3 -3.5 -8 -4 q-5 -0.5 -8.5 2.5 q-3.5 3 -4.5 8 l0 56 q-13 5 -19 17.5 q-6 12.5 -1 26 q5 13.5 18 19 q13 5.5 26 0.5 q9 -3 15 -11 q6 -8 7 -18 l0 0 ZM422 323 l-62 0 l0 66 q0 29 -15 54 q-15 25 -40.5 39.5 q-25.5 14.5 -55.5 14.5 q-30 0 -55.5 -14.5 q-25.5 -14.5 -40.5 -39.5 q-15 -25 -15 -54 l0 -66 l-62 0 q-5 0 -8.5 -3.5 q-3.5 -3.5 -3.5 -8.5 l0 -296 q0 -5 3.5 -8.5 q3.5 -3.5 8.5 -3.5 l346 0 q5 0 8.5 3.5 q3.5 3.5 3.5 8.5 l0 296 q0 5 -3.5 8.5 q-3.5 3.5 -8.5 3.5 ZM162 389 q0 35 25.5 59.5 q25.5 24.5 61.5 24.5 q36 0 61.5 -24.5 q25.5 -24.5 25.5 -59.5 l0 -66 l-174 0 l0 66 ZM410 27 l-322 0 l0 272 l322 0 l0 -272 Z" /><glyph glyph-name="medical" unicode="&#xea38;" d="M348 232 q0 -5 -3 -8 q-3 -3 -8 -3 l-64 0 q-4 0 -7 2.5 q-3 2.5 -3 6.5 l-12 82 l-23 -210 q0 -4 -3 -6.5 q-3 -2.5 -6 -3.5 l-1 0 q-8 0 -10 8 l-34 122 l-34 -64 q-4 -7 -11 -6 q-7 1 -9 8 l-16 66 l-79 0 q-5 0 -8 3 q-3 3 -3 7.5 q0 4.5 3 7.5 q3 3 8 3 l87 0 q4 0 7 -2.5 q3 -2.5 3 -5.5 l12 -47 l33 63 q4 6 11 5.5 q7 -0.5 9 -7.5 l27 -95 l26 240 q0 4 3 7 q3 3 7 3 q9 -1 11 -9 l21 -157 l56 0 q4 0 7 -3 q3 -3 3 -7 l0 0 ZM404 242 q4 0 7 -3 q3 -3 3 -7.5 q0 -4.5 -3 -7.5 q-3 -3 -7 -3 l-34 0 q-4 0 -7 3 q-3 3 -3 7.5 q0 4.5 3 7.5 q3 3 7 3 l34 0 ZM475 242 q5 0 8 -3 q3 -3 3 -7.5 q0 -4.5 -3 -7.5 q-3 -3 -8 -3 l-35 0 q-4 0 -7.5 3 q-3.5 3 -3.5 7.5 q0 4.5 3.5 7.5 q3.5 3 7.5 3 l35 0 Z" /><glyph glyph-name="megaphone" unicode="&#xea39;" d="M419 331 l0 85 q0 5 -3.5 8.5 q-3.5 3.5 -8.5 3.5 q-3 0 -5 -1 l-215 -95 l-94 0 q-35 0 -59.5 -25 q-24.5 -25 -24.5 -59.5 q0 -34.5 24.5 -59.5 q24.5 -25 59.5 -25 l28 0 l0 -96 q0 -5 3.5 -8.5 q3.5 -3.5 8 -3.5 q4.5 0 8.5 3.5 q4 3.5 4 8.5 l0 96 l42 0 l215 -95 q2 -1 6 -1 q4 0 7.5 3.5 q3.5 3.5 3.5 8.5 l0 85 q34 5 55 33 q21 28 16 62 q-4 28 -23.5 48 q-19.5 20 -47.5 24 l0 0 ZM178 187 l-85 0 q-25 0 -42.5 17.5 q-17.5 17.5 -17.5 42.5 q0 25 17.5 43 q17.5 18 42.5 18 l85 0 l0 -121 ZM395 97 l-193 86 l0 129 l193 86 l0 -301 ZM419 188 l0 119 q24 -5 38 -26 q14 -21 9 -45 q-4 -18 -16.5 -31 q-12.5 -13 -30.5 -17 l0 0 Z" /><glyph glyph-name="menu" unicode="&#xea3a;" d="M219 399 q0 -13 9 -22 q9 -9 22 -9 q13 0 22 9 q9 9 9 22 q0 13 -9 22 q-9 9 -22 9 q-13 0 -22 -9 q-9 -9 -9 -22 ZM219 248 q0 -13 9 -22 q9 -9 22 -9 q13 0 22 9 q9 9 9 21.5 q0 12.5 -9 21.5 q-9 9 -22 9.5 q-13 0.5 -22 -9 q-9 -9.5 -9 -22.5 l0 1 ZM219 96 q0 -13 9 -22 q9 -9 22 -9 q13 0 22 9 q9 9 9 22 q0 13 -9 22 q-9 9 -22 9 q-13 0 -22 -9 q-9 -9 -9 -22 Z" /><glyph glyph-name="monitor" unicode="&#xea3b;" d="M175 112 q-4 0 -7 2.5 q-3 2.5 -4 6.5 l-30 123 l-8 0 l-24 -45 q-2 -5 -7 -6.5 q-5 -1.5 -9 1 q-4 2.5 -6 5.5 l-20 45 l-44 0 q-5 0 -8.5 2.5 q-3.5 2.5 -4 7.5 q-0.5 5 2 9 q2.5 4 7.5 5 l55 0 q8 0 11 -7 l13 -29 l16 30 q4 6 11 6 l24 0 q4 0 7.5 -2.5 q3.5 -2.5 4.5 -6.5 l20 -82 l58 269 q1 4 4.5 6.5 q3.5 2.5 7.5 2.5 l0 0 q4 0 7.5 -2.5 q3.5 -2.5 4.5 -7.5 l36 -177 l33 0 q5 0 8.5 -3 q3.5 -3 4 -7.5 q0.5 -4.5 -2 -8.5 q-2.5 -4 -7.5 -5 l-45 0 q-5 0 -8 2.5 q-3 2.5 -4 7.5 l-27 131 l-58 -264 q-1 -4 -4 -6.5 q-3 -2.5 -8 -2.5 l0 0 ZM492 254 q0 -4 -3.5 -7 q-3.5 -3 -8.5 -3 l-31 0 q-5 0 -8.5 3.5 q-3.5 3.5 -3.5 8.5 l0 2 q1 4 4.5 7 q3.5 3 7.5 3 l32 0 q5 0 8.5 -3.5 q3.5 -3.5 3.5 -8.5 l-1 -2 l0 0 ZM415 254 q0 -4 -3.5 -7 q-3.5 -3 -8.5 -3 l-31 0 q-5 0 -8.5 3.5 q-3.5 3.5 -3.5 8.5 l0 2 q1 4 4.5 7 q3.5 3 7.5 3 l32 0 q5 0 8.5 -3.5 q3.5 -3.5 3.5 -8.5 l-1 -2 l0 0 Z" /><glyph glyph-name="monitors_nav" unicode="&#xea3c;" d="M157 23 q-5 0 -8.5 2.5 q-3.5 2.5 -4.5 7.5 l-29 132 l-15 -32 q-3 -8 -12 -8 l0 0 q-8 0 -12 8 l-26 59 l-27 0 q-6 0 -9.5 4 q-3.5 4 -3.5 9.5 q0 5.5 3.5 9 q3.5 3.5 9.5 3.5 l35 0 q9 0 12 -7 l18 -41 l19 41 q2 5 7 6.5 q5 1.5 10.5 -1 q5.5 -2.5 7.5 -8.5 l23 -104 l60 363 q1 4 4.5 7 q3.5 3 8.5 3 l0 0 q5 0 8.5 -3 q3.5 -3 4.5 -7 l44 -253 l35 0 q5 0 9 -4 q4 -4 4 -9 q0 -5 -4 -9 q-4 -4 -9 -4 l-46 0 q-4 0 -8 3 q-4 3 -4 8 l-33 188 l-59 -353 q-1 -5 -4.5 -8 q-3.5 -3 -8.5 -3 l0 0 ZM475 188 l-23 0 q-5 0 -9 4 q-4 4 -4 9 q0 5 4 9 q4 4 9 4 l23 0 q5 0 9 -4 q4 -4 3.5 -9 q-0.5 -5 -4 -9 q-3.5 -4 -8.5 -4 ZM397 188 l-22 0 q-6 0 -10 4 q-4 4 -4 9 q0 5 4 9 q4 4 9 4 l23 0 q5 0 9 -4 q4 -4 4 -9 q0 -5 -4 -9 q-4 -4 -9 -4 l0 0 Z" /><glyph glyph-name="newtab" unicode="&#xea3d;" d="M441 15 l-380 0 q-19 0 -32 13 q-13 13 -13 32 l0 379 q0 19 13 32 q13 13 32 13 l380 0 q18 0 31.5 -13 q13.5 -13 13.5 -32 l0 -379 q0 -19 -13.5 -32 q-13.5 -13 -31.5 -13 ZM61 458 q-8 0 -13.5 -5.5 q-5.5 -5.5 -5.5 -13.5 l0 -379 q0 -8 5.5 -13.5 q5.5 -5.5 13.5 -5.5 l380 0 q7 0 13 5.5 q6 5.5 6 13.5 l0 379 q0 8 -6 13.5 q-6 5.5 -13 5.5 l-380 0 ZM352 337 l0 -138 q0 -5 -4 -9 q-4 -4 -9.5 -4 q-5.5 0 -9 4 q-3.5 4 -3.5 9 l0 107 l-169 -169 q-4 -4 -9.5 -4 q-5.5 0 -9 4 q-3.5 4 -3.5 9.5 q0 5.5 3 9.5 l168 168 l-105 0 q-5 0 -9 3.5 q-4 3.5 -4 9 q0 5.5 4 9.5 q4 4 9 4 l138 0 q5 0 9 -4 q4 -4 4 -9 Z" /><glyph glyph-name="note" unicode="&#xea3e;" d="M470 414 l0 -303 l-306 0 q-8 0 -15 -4 l-118 -58 l0 365 l439 0 ZM487 439 l-471 0 q-4 0 -7 -3 q-3 -3 -3 -7 l0 0 l0 -404 q0 -4 3 -7 q3 -3 6.5 -3 q3.5 0 5.5 1 l139 69 q2 1 4 1 l321 0 q4 0 7 3 q3 3 3 7 l0 335 q0 3 -2.5 5.5 q-2.5 2.5 -5.5 2.5 l0 0 ZM388 303 l-273 0 q-5 0 -8.5 3 q-3.5 3 -4.5 8 q-1 5 2 9 q3 4 8 5 l275 0 q5 0 8.5 -3 q3.5 -3 4.5 -8 q1 -5 -2 -9 q-3 -4 -8 -5 l-2 0 l0 0 ZM388 198 l-273 0 q-5 0 -8.5 3 q-3.5 3 -4.5 8 q-1 5 2 9 q3 4 8 5 l275 0 q5 0 8.5 -3 q3.5 -3 4.5 -8 q1 -5 -2 -9 q-3 -4 -8 -5 l-2 0 l0 0 Z" /><glyph glyph-name="pausecircle" unicode="&#xea3f;" d="M250 474 q70 0 128.5 -41.5 q58.5 -41.5 82 -107.5 q23.5 -66 4 -135 q-19.5 -69 -74 -113.5 q-54.5 -44.5 -125 -49.5 q-70.5 -5 -130 31 q-59.5 36 -88.5 100 q-29 64 -17 133 q10 51 42 93 q32 42 78.5 66 q46.5 24 99.5 24 ZM250 498 q-78 0 -142.5 -46 q-64.5 -46 -90.5 -118.5 q-26 -72.5 -5.5 -148 q20.5 -75.5 79.5 -125.5 q40 -33 90 -47.5 q50 -14.5 101.5 -8 q51.5 6.5 96.5 33.5 q65 40 96.5 111.5 q31.5 71.5 17.5 146.5 q-10 57 -45.5 103 q-35.5 46 -87.5 72.5 q-52 26.5 -110 26.5 l0 0 ZM214 166 q-6 0 -10.5 4 q-4.5 4 -4.5 10 l0 138 q0 6 4.5 10.5 q4.5 4.5 10.5 4.5 q6 0 10 -4.5 q4 -4.5 4 -10.5 l0 -138 q0 -6 -4 -10 q-4 -4 -10 -4 ZM287 166 q-6 0 -10.5 4 q-4.5 4 -4.5 10 l0 138 q0 6 4.5 10.5 q4.5 4.5 10 4.5 q5.5 0 10 -4.5 q4.5 -4.5 4.5 -10.5 l0 -138 q0 -6 -4.5 -10 q-4.5 -4 -9.5 -4 Z" /><glyph glyph-name="playcircle" unicode="&#xea40;" d="M250 474 q70 0 128.5 -41.5 q58.5 -41.5 82 -107.5 q23.5 -66 4 -135 q-19.5 -69 -74 -113.5 q-54.5 -44.5 -125 -49.5 q-70.5 -5 -130 31 q-59.5 36 -88.5 100 q-29 64 -17 133 q10 51 42 93 q32 42 78.5 66 q46.5 24 99.5 24 ZM250 498 q-78 0 -142.5 -46 q-64.5 -46 -90.5 -118.5 q-26 -72.5 -5.5 -148 q20.5 -75.5 79.5 -125.5 q40 -33 90 -47.5 q50 -14.5 101.5 -8 q51.5 6.5 96.5 33.5 q65 40 96.5 111.5 q31.5 71.5 17.5 146.5 q-10 57 -45.5 103 q-35.5 46 -87.5 72.5 q-52 26.5 -110 26.5 l0 0 ZM216 160 l0 180 l113 -90 l-113 -90 ZM216 160 l0 180 l113 -90 l-113 -90 Z" /><glyph glyph-name="plug" unicode="&#xea41;" d="M467 193 l-96 0 l0 88 l96 0 q7 0 11.5 4.5 q4.5 4.5 4.5 11 q0 6.5 -4.5 11 q-4.5 4.5 -11.5 4.5 l-96 0 l0 52 q0 6 -4.5 10.5 q-4.5 4.5 -11.5 4.5 l-142 0 q-6 0 -11 -4 l-23 -23 q-5 -4 -5 -11 l0 -86 l-141 0 q-7 0 -11.5 -4.5 q-4.5 -4.5 -4.5 -11 q0 -6.5 4.5 -11 q4.5 -4.5 11.5 -4.5 l141 0 l0 -65 q0 -7 5 -11 l24 -23 q4 -4 10 -4 l142 0 q7 0 11.5 4.5 q4.5 4.5 4.5 10.5 l0 26 l96 0 q7 0 11.5 4.5 q4.5 4.5 4.5 11 q0 6.5 -4.5 11 q-4.5 4.5 -11.5 4.5 ZM340 152 l-120 0 l-15 13 l0 170 l15 13 l120 0 l0 -196 Z" /><glyph glyph-name="pulsar" unicode="&#xea42;" d="M354 39 q-16 0 -26.5 9.5 q-10.5 9.5 -11.5 22.5 l0 89 q0 2 -4 4.5 q-4 2.5 -10 2.5 q-6 0 -10 -2.5 q-4 -2.5 -4 -5.5 l0 -37 q-1 -13 -12 -22 q-11 -9 -26.5 -9 q-15.5 0 -27 9 q-11.5 9 -11.5 23 l0 89 q0 3 -4 5.5 q-4 2.5 -10 2.5 q-6 0 -10 -2.5 q-4 -2.5 -4 -6.5 l0 -44 q1 -17 -9.5 -28 q-10.5 -11 -28.5 -11 q-16 0 -27 9.5 q-11 9.5 -12 22.5 l0 25 q0 3 -4.5 6.5 q-4.5 3.5 -9.5 3.5 q-5 0 -9 -3 q-4 -3 -5 -6 l0 -38 q0 -14 -11 -23 q-11 -9 -26.5 -9 q-15.5 0 -26 9.5 q-10.5 9.5 -11.5 22.5 l0 156 q0 13 11 22 q11 9 27 9 q16 0 26.5 -9 q10.5 -9 11.5 -22 l0 -31 q1 -3 5 -5.5 q4 -2.5 9.5 -2.5 q5.5 0 10 2.5 q4.5 2.5 4.5 6.5 l0 55 q1 13 12 22 q11 9 26 9 q15 0 26 -9 q11 -9 12 -22 l0 -29 q0 -3 4 -5.5 q4 -2.5 10 -2.5 q6 0 10 2.5 q4 2.5 4 5.5 l0 79 q1 13 12 22 q11 9 26.5 9 q15.5 0 26 -9 q10.5 -9 11.5 -22 l0 -129 q0 -3 4.5 -5.5 q4.5 -2.5 10 -2.5 q5.5 0 10 2.5 q4.5 2.5 4.5 6.5 l0 179 q1 14 12 22.5 q11 8.5 27 8.5 q16 0 27 -9.5 q11 -9.5 11 -22.5 l0 -136 q0 -3 4.5 -5 q4.5 -2 9.5 -2 q5 0 9.5 2 q4.5 2 4.5 5 l0 61 q1 13 12 22 q11 9 26.5 9 q15.5 0 26 -10.5 q10.5 -10.5 10.5 -23.5 l0 1 l-1 -204 q0 -13 -11 -22.5 q-11 -9.5 -26.5 -9.5 q-15.5 0 -26.5 9 q-11 9 -12 22 l0 54 q0 3 -4 5.5 q-4 2.5 -9.5 2.5 q-5.5 0 -9.5 -2.5 q-4 -2.5 -5 -5.5 l0 -130 q0 -13 -11 -22.5 q-11 -9.5 -27 -9.5 l0 0 ZM340 72 q0 -4 4 -6.5 q4 -2.5 10 -2.5 q6 0 10 2.5 q4 2.5 4 5.5 l0 132 q1 12 12 21 q11 9 26 9 q15 0 26 -9 q11 -9 12 -22 l0 -54 q0 -3 4.5 -5.5 q4.5 -2.5 10 -2.5 q5.5 0 9.5 2.5 q4 2.5 4 5.5 l1 203 q0 3 -4 6.5 q-4 3.5 -9.5 3.5 q-5.5 0 -9.5 -2.5 q-4 -2.5 -4 -5.5 l0 -60 q-1 -13 -12 -22 q-11 -9 -26 -9 q-15 0 -26 8.5 q-11 8.5 -12 20.5 l0 138 q0 3 -4 5.5 q-4 2.5 -10 2.5 q-6 0 -10.5 -2.5 q-4.5 -2.5 -4.5 -4.5 l0 -180 q-1 -14 -12 -23 q-11 -9 -26.5 -9 q-15.5 0 -26.5 9 q-11 9 -12 22 l0 129 q0 3 -4 5.5 q-4 2.5 -10 2.5 q-6 0 -10 -2.5 q-4 -2.5 -4 -5.5 l0 -78 q-1 -14 -11.5 -23 q-10.5 -9 -26 -9 q-15.5 0 -26.5 9 q-11 9 -12 22 l0 29 q0 3 -4.5 5.5 q-4.5 2.5 -10 2.5 q-5.5 0 -9.5 -2.5 q-4 -2.5 -4 -5.5 l0 -55 q-1 -13 -12 -22.5 q-11 -9.5 -26 -9.5 q-15 0 -26 8.5 q-11 8.5 -13 20.5 l0 34 q0 2 -4 4.5 q-4 2.5 -10 2.5 q-6 0 -10 -2.5 q-4 -2.5 -4 -4.5 l0 -155 q0 -4 3.5 -6.5 q3.5 -2.5 9.5 -2.5 q6 0 10 2.5 q4 2.5 4 5.5 l0 40 q2 13 13 22 q11 9 25.5 9 q14.5 0 25.5 -10 q11 -10 12 -23 l0 -25 q0 -4 4.5 -6.5 q4.5 -2.5 9.5 -2.5 q9 0 12.5 3.5 q3.5 3.5 2.5 9.5 l0 47 q1 13 11.5 22.5 q10.5 9.5 26 9.5 q15.5 0 26.5 -9 q11 -9 12 -22 l0 -90 q0 -3 4 -6 q4 -3 10 -3 q6 0 10.5 3 q4.5 3 4.5 6 l0 37 q1 13 11.5 22 q10.5 9 26 9 q15.5 0 26.5 -9 q11 -9 12 -22 l0 -88 Z" /><glyph glyph-name="pulsar_nav" unicode="&#xea43;" d="M444 410 q-19 6 -39 1 q-20 -5 -34 -19 q-14 -14 -18.5 -34 q-4.5 -20 1.5 -39 l-100 -50 l0 101 q0 40 -30 68.5 q-30 28.5 -72.5 28.5 q-42.5 0 -72 -28.5 q-29.5 -28.5 -29.5 -68.5 l0 -73 q0 -5 3.5 -8.5 q3.5 -3.5 8.5 -3.5 q5 0 8.5 3.5 q3.5 3.5 3.5 8.5 l0 73 q0 30 22.5 51.5 q22.5 21.5 55 21.5 q32.5 0 55.5 -21.5 q23 -21.5 23 -51.5 l0 -113 l-95 -48 q-17 21 -43 27 q-26 6 -49 -7 q-18 -9 -28.5 -25.5 q-10.5 -16.5 -11.5 -36 q-1 -19.5 8.5 -37 q9.5 -17.5 26 -28 q16.5 -10.5 36.5 -11 q20 -0.5 37 9.5 q23 12 33 37 q10 25 2 50 l84 42 l0 -93 q0 -41 29.5 -69.5 q29.5 -28.5 72 -28.5 q42.5 0 72.5 28.5 q30 28.5 30 69.5 l0 75 q0 5 -3.5 8.5 q-3.5 3.5 -8.5 3.5 l0 0 q-5 0 -8.5 -3.5 q-3.5 -3.5 -3.5 -8.5 l0 -75 q0 -31 -23 -52.5 q-23 -21.5 -55.5 -21.5 q-32.5 0 -55 21.5 q-22.5 21.5 -22.5 52.5 l0 105 l111 55 q14 -19 37 -25 q28 -9 54.5 5 q26.5 14 35 43 q8.5 29 -5 55 q-13.5 26 -42.5 35 ZM123 151 l0 0 q-5 -17 -19.5 -26.5 q-14.5 -9.5 -31.5 -8 q-17 1.5 -29.5 14 q-12.5 12.5 -14 30 q-1.5 17.5 8 32 q9.5 14.5 26.5 19.5 q17 5 33 -2 q16 -7 24 -22 q9 -18 3 -37 ZM469 327 q-4 -14 -15.5 -23.5 q-11.5 -9.5 -26 -11 q-14.5 -1.5 -27.5 5.5 q-13 7 -20 20 q-7 13 -5.5 28 q1.5 15 11 26 q9.5 11 23.5 15.5 q14 4.5 28 0.5 q19 -6 28.5 -24 q9.5 -18 3.5 -37 Z" /><glyph glyph-name="records" unicode="&#xea44;" d="M454 420 q-17 0 -29.5 -12.5 q-12.5 -12.5 -12.5 -30.5 q0 -13 8 -24 l-86 -128 q-12 3 -23.5 0 q-11.5 -3 -19.5 -11 l-72 56 q2 6 2 13 q0 18 -12.5 30.5 q-12.5 12.5 -30 12.5 q-17.5 0 -30 -12.5 q-12.5 -12.5 -12.5 -30.5 q0 -13 7 -24 l-82 -106 q-17 5 -33 -2.5 q-16 -7.5 -21.5 -24 q-5.5 -16.5 2 -32.5 q7.5 -16 24.5 -22 q17 -6 32.5 2 q15.5 8 21.5 24 q4 11 2 21.5 q-2 10.5 -9 19.5 l82 105 q11 -5 22.5 -3.5 q11.5 1.5 21.5 9.5 l73 -58 q-1 -4 -1 -8 q0 -18 12.5 -30.5 q12.5 -12.5 30.5 -12.5 q18 0 30.5 12.5 q12.5 12.5 12.5 29 q0 16.5 -10 28.5 l85 127 q7 -3 15 -3 q18 0 30.5 12.5 q12.5 12.5 12.5 30 q0 17.5 -12.5 30 q-12.5 12.5 -30.5 12.5 l0 0 ZM47 94 q-1 0 -2 0 q-6 1 -11 5.5 q-5 4.5 -6 11.5 l0 1 q0 7 4.5 12 q4.5 5 11.5 7 l3 0 q8 0 13.5 -5.5 q5.5 -5.5 5 -13 q-0.5 -7.5 -5.5 -13 q-5 -5.5 -13 -5.5 l0 0 ZM186 266 q-4 -2 -7 -2 l-1 0 q-7 1 -12 5.5 q-5 4.5 -6 11.5 l0 2 q0 7 5.5 12.5 q5.5 5.5 12.5 5.5 q7 0 12 -4 q5 -4 7 -10 l0 -4 q0 -6 -3 -10.5 q-3 -4.5 -8 -6.5 ZM321 165 q-4 0 -7 2 l0 0 q-7 3 -10 10 q-3 7 0 14 q2 5 6 8 q4 3 9 3 l2 1 q6 0 11 -4 q5 -4 7 -10 q1 -2 1 -5 q0 -8 -5.5 -13.5 q-5.5 -5.5 -13.5 -5.5 ZM454 359 q0 0 -1 0 q-7 0 -12 5 q-5 5 -5 12 l0 1 q0 8 5.5 13.5 q5.5 5.5 13 5.5 q7.5 0 13 -5.5 q5.5 -5.5 5.5 -13 q0 -7.5 -5.5 -13 q-5.5 -5.5 -13.5 -5.5 l0 0 Z" /><glyph glyph-name="search" unicode="&#xea45;" d="M491 26 l-152 152 l-1 1 q23 26 35.5 59 q12.5 33 12.5 67 q0 53 -26 96.5 q-26 43.5 -70 69.5 q-44 26 -96 26 q-52 0 -96 -25.5 q-44 -25.5 -69.5 -69.5 q-25.5 -44 -25.5 -96 q0 -52 25.5 -96 q25.5 -44 69.5 -70 q44 -26 96 -26 q35 0 68 12.5 q33 12.5 59 35.5 l153 -153 q3 -3 8 -3 q5 0 8.5 3.5 q3.5 3.5 3.5 8.5 q0 5 -3 8 ZM194 138 q-45 0 -83.5 22.5 q-38.5 22.5 -61 61 q-22.5 38.5 -22.5 84.5 q0 33 12.5 63.5 q12.5 30.5 36.5 54.5 q32 32 75 43.5 q43 11.5 86.5 0 q43.5 -11.5 75.5 -43.5 q32 -32 43 -75.5 q11 -43.5 0 -86.5 q-11 -43 -43 -75 q-24 -23 -54.5 -36 q-30.5 -13 -64.5 -13 l0 0 Z" /><glyph glyph-name="shield" unicode="&#xea47;" d="M251 464 q79 -60 175 -96 q-1 -151 -57 -231 q-21 -29 -53 -54 q-18 -15 -59 -41 l-6 -4 l-6 4 q-41 26 -60 41 q-31 25 -52 54 q-56 80 -57 231 q96 36 175 96 ZM249 491 q-3 -1 -5 -2 q-84 -64 -190 -102 q-7 -3 -7 -11 q0 -88 18 -153 q16 -57 46 -100 q23 -32 58 -59 q21 -17 63 -43 l13 -8 q6 -4 12 0 l12 8 q43 26 64 43 q35 27 58 59 q64 89 64 253 q0 8 -7 11 q-106 38 -190 102 q-4 3 -9 2 Z" /><glyph glyph-name="show" unicode="&#xea48;" d="M251 102 q-71 0 -132 34 q-59 33 -95 91 q-6 10 -6 22 q0 12 6 23 q36 57 95 90 q61 34 131.5 34 q70.5 0 132.5 -34 q59 -33 94 -90 q6 -11 6 -23 q0 -12 -6 -22 q-35 -58 -94 -91 q-62 -34 -132 -34 l0 0 ZM251 372 q-64 0 -121 -31 q-53 -30 -85 -82 q-6 -10 0 -20 l0 0 q32 -51 85 -82 q56 -31 120.5 -31 q64.5 0 120.5 31 q53 30 85 83 q6 9 0 19 q-32 52 -85 82 q-56 31 -120 31 l0 0 ZM251 162 q-36 0 -61.5 25.5 q-25.5 25.5 -25.5 61.5 q0 36 25.5 61.5 q25.5 25.5 61.5 25.5 q36 0 61.5 -25.5 q25.5 -25.5 25.5 -61.5 q0 -36 -25.5 -61.5 q-25.5 -25.5 -61.5 -25.5 ZM251 312 q-26 0 -44.5 -18.5 q-18.5 -18.5 -18.5 -44.5 q0 -26 18 -44.5 q18 -18.5 44.5 -18.5 q26.5 0 45 18.5 q18.5 18.5 18.5 44.5 q0 26 -18.5 44.5 q-18.5 18.5 -44.5 18.5 Z" /><glyph glyph-name="slash" unicode="&#xea49;" d="M143 53 q-2 0 -4 1 q-5 3 -7 9 q-2 6 1 12 l200 365 q4 8 13.5 8.5 q9.5 0.5 14 -7.5 q4.5 -8 -0.5 -15 l-200 -366 q-2 -4 -7 -6.5 q-5 -2.5 -10 -0.5 Z" /><glyph glyph-name="slider_off" unicode="&#xea4a;" d="M427 52 l-357 0 q-39 0 -53 25.5 q-14 25.5 6 58.5 l175 284 q21 32 51 33 l0 0 q31 0 51 -33 l174 -284 q20 -33 6 -58.5 q-14 -25.5 -53 -25.5 ZM222 405 l-175 -283 q-12 -19 -5.5 -30.5 q6.5 -11.5 28.5 -11.5 l357 0 q22 0 28.5 11.5 q6.5 11.5 -5.5 30.5 l-174 283 q-12 20 -27 19 l0 1 q-15 -1 -27 -20 l0 0 Z" /><glyph glyph-name="slider_on" unicode="&#xea4b;" d="M426 52 l-357 0 q-39 0 -53 25.5 q-14 25.5 6 58.5 l175 284 q21 33 51 33 l0 0 q31 -1 51 -33 l174 -284 q20 -33 5.5 -58.5 q-14.5 -25.5 -52.5 -25.5 Z" /><glyph glyph-name="spinner" unicode="&#xea4c;" d="M246 422 q-46 -1 -84.5 -24.5 q-38.5 -23.5 -61 -62.5 q-22.5 -39 -22.5 -85 l168 172 Z" /><glyph glyph-name="teams" unicode="&#xea4d;" d="M409 193 q20 19 20 46 q0 27 -19 46 q-19 19 -46 19 q-13 0 -24 -4 q-16 11 -35 17 q20 20 20 47 q0 27 -19 45.5 q-19 18.5 -45.5 18.5 q-26.5 0 -45.5 -18.5 q-19 -18.5 -19 -46 q0 -27.5 20 -46.5 q-24 -8 -43 -24 q-16 11 -37 11 q-26 0 -45 -19 q-19 -19 -19 -46 q0 -27 19 -46 q-36 -13 -59 -42.5 q-23 -29.5 -23 -66.5 q0 -5 4 -9 q4 -4 9.5 -4 q5.5 0 9 4 q3.5 4 3.5 9 q0 38 29.5 64.5 q29.5 26.5 71.5 26.5 q42 0 71.5 -26.5 q29.5 -26.5 29.5 -64.5 q0 -5 4 -9 q4 -4 9 -4 q5 0 9 4 q4 4 4 9 q0 38 29.5 64.5 q29.5 26.5 71.5 26.5 q42 0 71.5 -26.5 q29.5 -26.5 29.5 -64.5 q0 -5 3.5 -9 q3.5 -4 9 -4 q5.5 0 9.5 4 q4 4 4 9 q0 37 -23 66.5 q-23 29.5 -59 42.5 ZM403 240 q0 -16 -11.5 -27.5 q-11.5 -11.5 -27.5 -11.5 q-16 0 -27.5 11 q-11.5 11 -11.5 27.5 q0 16.5 11.5 28 q11.5 11.5 27.5 11.5 q16 0 27.5 -11.5 q11.5 -11.5 11.5 -27.5 ZM222 364 q0 16 11 27.5 q11 11.5 27 11.5 q16 0 27.5 -11.5 q11.5 -11.5 11.5 -27.5 q0 -16 -11 -27.5 q-11 -11.5 -27.5 -11.5 q-16.5 0 -28 11.5 q-11.5 11.5 -11.5 27.5 l1 0 ZM97 240 q0 16 11.5 27.5 q11.5 11.5 27.5 11.5 q16 0 27.5 -11.5 q11.5 -11.5 11.5 -27.5 q0 -16 -11.5 -27.5 q-11.5 -11.5 -27.5 -11.5 q-16 0 -27.5 11.5 q-11.5 11.5 -11.5 27.5 ZM250 136 q-11 19 -28.5 34 q-17.5 15 -40.5 23 q20 19 20 46 q0 19 -10 35 q29 25 69 25 q31 0 57 -15 q-18 -19 -18 -45.5 q0 -26.5 20 -45.5 q-23 -8 -40.5 -23 q-17.5 -15 -28.5 -35 l0 1 Z" /><glyph glyph-name="technology" unicode="&#xea4e;" d="M463 117 l-57 0 l0 -22 l57 0 q7 0 11 -4.5 q4 -4.5 4 -11.5 l0 -15 q0 -7 -4 -11.5 q-4 -4.5 -11 -4.5 l-57 0 l0 -25 q0 -5 -3 -8.5 q-3 -3.5 -8 -3.5 l-34 0 q-5 0 -8.5 3.5 q-3.5 3.5 -3.5 8.5 l0 6 l-77 0 q-13 0 -23 9.5 q-10 9.5 -10 23.5 l0 16 l-110 0 q-29 0 -53.5 14.5 q-24.5 14.5 -39 39 q-14.5 24.5 -14.5 54 q0 29.5 14.5 54 q14.5 24.5 39 39 q24.5 14.5 53.5 14.5 l231 0 q24 0 40.5 16.5 q16.5 16.5 16.5 40 q0 23.5 -16.5 40.5 q-16.5 17 -40.5 17 l-85 0 l0 -7 q0 -9 -6 -15.5 q-6 -6.5 -15 -6.5 l-66 0 q-13 0 -19 12 l-35 0 q-10 0 -16.5 6 q-6.5 6 -6.5 15 l0 45 q0 9 6.5 15 q6.5 6 15.5 6 l36 0 q6 12 19 12 l66 0 q9 0 15 -6.5 q6 -6.5 6 -15.5 l0 -10 l85 0 q29 0 54 -14.5 q25 -14.5 39.5 -39 q14.5 -24.5 14.5 -53.5 q0 -29 -14.5 -54 q-14.5 -25 -39.5 -39 q-25 -14 -54 -14 l-231 0 q-23 0 -40 -17 q-17 -17 -17 -40.5 q0 -23.5 17 -40 q17 -16.5 40 -16.5 l110 0 l0 21 q0 13 10 23 q10 10 23 10 l77 0 l0 5 q0 5 3.5 8.5 q3.5 3.5 8.5 3.5 l34 0 q5 -1 8 -4 q3 -3 3 -8 l0 -24 l57 0 q7 0 11 -4.5 q4 -4.5 4 -11.5 l0 -15 q0 -7 -4 -11.5 q-4 -4.5 -11 -4.5 l0 0 Z" /><glyph glyph-name="timeout" unicode="&#xea4f;" d="M129 440 q-5 0 -8.5 3.5 q-3.5 3.5 -3.5 9.5 q0 6 6 9 q13 8 27 15 q5 2 9.5 0 q4.5 -2 6.5 -6.5 q2 -4.5 0.5 -9 q-1.5 -4.5 -6.5 -6.5 q-13 -6 -25 -13 q-3 -2 -6 -2 l0 0 ZM37 339 q-5 0 -8.5 3.5 q-3.5 3.5 -3.5 8.5 q0 3 1 5 q11 22 25 41 q3 4 8 5 q5 1 9 -2 q4 -3 4.5 -8 q0.5 -5 -1.5 -9 l0 0 q-14 -18 -23 -37 q-3 -7 -11 -7 ZM24 172 q-4 0 -7 2 q-3 2 -5 6 q-9 34 -9 70 q-1 5 3 8.5 q4 3.5 8.5 3.5 q4.5 0 8.5 -3.5 q4 -3.5 4 -8.5 q-1 -32 9 -63 q1 -5 -1.5 -9 q-2.5 -4 -7.5 -6 l-3 0 l0 0 ZM143 28 q-3 0 -6 2 q-42 21 -74 57 q-3 4 -2.5 9 q0.5 5 4 8 q3.5 3 8.5 3 q5 0 9 -4 q28 -32 66 -52 q5 -2 6.5 -7 q1.5 -5 -0.5 -9 q-4 -7 -11 -7 l0 0 ZM250 2 q-5 0 -8.5 3.5 q-3.5 3.5 -3.5 8.5 q0 5 3.5 8.5 q3.5 3.5 8.5 3.5 q58 0 108 28 q4 3 9 1.5 q5 -1.5 7.5 -5.5 q2.5 -4 1 -9 q-1.5 -5 -5.5 -8 l-1 0 q-55 -31 -119 -31 l0 0 ZM438 97 q-5 0 -8.5 3.5 q-3.5 3.5 -3.5 8 q0 4.5 3 7.5 q38 51 44 115 q0 10 0 19 q0 5 4 8.5 q4 3.5 8.5 3.5 q4.5 0 8 -3.5 q3.5 -3.5 3.5 -8.5 q0 -11 0 -21 q-6 -71 -49 -128 q-4 -4 -10 -4 l0 0 ZM470 323 q-8 0 -11 7 q-25 65 -82.5 104 q-57.5 39 -126.5 39 q-5 0 -8.5 3.5 q-3.5 3.5 -3.5 8.5 q0 5 3.5 8.5 q3.5 3.5 8.5 3.5 q77 0 140 -43 q63 -43 91 -115 q2 -5 0 -9.5 q-2 -4.5 -7 -6.5 q-2 0 -4 0 ZM251 229 l0 0 l-6 3 q-7 5 -7 9 l0 0 q1 37 1 117 l0 32 q0 5 3.5 8.5 q3.5 3.5 8.5 3.5 l0 0 q5 0 8.5 -3.5 q3.5 -3.5 3.5 -8.5 l0 -149 q0 -5 -3.5 -8.5 q-3.5 -3.5 -8.5 -3.5 Z" /><glyph glyph-name="timespan" unicode="&#xea50;" d="M250 14 q-64 0 -118 31.5 q-54 31.5 -85.5 85.5 q-31.5 54 -31.5 118 q0 46 18 89.5 q18 43.5 51 76.5 q45 45 105 62 q60 17 120.5 2 q60.5 -15 106.5 -60 q46 -45 62.5 -105 q16.5 -60 1.5 -120.5 q-15 -60.5 -60 -106.5 l-4 -4 q-33 -33 -76 -51 q-43 -18 -90 -18 ZM250 459 q-57 -1 -105 -29 q-48 -28 -76.5 -76 q-28.5 -48 -28.5 -105 q0 -57 28.5 -105.5 q28.5 -48.5 76.5 -76.5 q48 -28 105 -28 q57 0 105 28 q48 28 76.5 76.5 q28.5 48.5 28.5 105.5 q0 57 -28.5 105 q-28.5 48 -76.5 76.5 q-48 28.5 -105 28.5 ZM206 147 q-6 0 -9.5 4 q-3.5 4 -3.5 9 q0 2 1 5 l43 87 l0 130 q0 5 4 9 q4 4 9 4 q5 0 8.5 -4 q3.5 -4 3.5 -9 l0 -133 q0 -3 -1 -6 l-44 -89 q-4 -7 -12 -7 l1 0 Z" /><glyph glyph-name="toolbox" unicode="&#xea51;" d="M265 259 q8 5 8 14.5 q0 9.5 -7.5 15.5 q-7.5 6 -15.5 5 q-8 -1 -13.5 -6.5 q-5.5 -5.5 -6.5 -13.5 q0 -10 8 -15 q6 -4 4 -10 l-10 -35 l39 0 l-9 35 q-2 6 3 10 ZM265 259 q8 5 8 14.5 q0 9.5 -7.5 15.5 q-7.5 6 -15.5 5 q-8 -1 -13.5 -6.5 q-5.5 -5.5 -6.5 -13.5 q0 -10 8 -15 q6 -4 4 -10 l-10 -35 l39 0 l-9 35 q-2 6 3 10 ZM265 259 q8 5 8 14.5 q0 9.5 -7.5 15.5 q-7.5 6 -15.5 5 q-8 -1 -13.5 -6.5 q-5.5 -5.5 -6.5 -13.5 q0 -10 8 -15 q6 -4 4 -10 l-10 -35 l39 0 l-9 35 q-2 6 3 10 ZM476 352 l-122 0 l-32 52 q-6 8 -16 8 l-111 0 q-10 0 -16 -8 l-29 -52 l-123 0 q-3 0 -5.5 -2.5 q-2.5 -2.5 -2.5 -5.5 l0 -235 q0 -3 2.5 -5.5 q2.5 -2.5 5.5 -2.5 l449 0 q4 0 6 2.5 q2 2.5 3 5.5 l0 235 q0 3 -2.5 5.5 q-2.5 2.5 -6.5 2.5 ZM196 384 q1 3 4 3 l101 0 q3 0 5 -3 l18 -32 l-145 0 l17 32 ZM461 262 l-159 0 q-2 0 -3 -1 l-4 -3 q-3 -2 -2 -5 l4 -15 l164 0 l0 -108 q0 -3 -3 -3 l-413 0 q-3 0 -3 3 l0 108 l163 0 l6 15 q1 2 -2 5 l-4 3 q-1 1 -4 1 l-159 0 l0 61 q0 3 3 3 l413 0 q3 0 3 -3 l0 -61 Z" /><glyph glyph-name="transfers" unicode="&#xea52;" d="M361 86 q-5 0 -8.5 3.5 q-3.5 3.5 -3.5 8.5 l0 42 l-167 0 q-5 0 -8.5 3.5 q-3.5 3.5 -3.5 8.5 q0 5 3.5 8.5 q3.5 3.5 8.5 3.5 l179 0 q5 0 8.5 -3.5 q3.5 -3.5 3.5 -8.5 l0 -26 l86 78 l-88 76 l0 -30 q0 -5 -3.5 -8.5 q-3.5 -3.5 -8.5 -4.5 l-223 0 l0 -32 q0 -5 -3.5 -9 q-3.5 -4 -8.5 -4 q-5 0 -8 3 l-105 95 q-4 3 -4.5 8 q-0.5 5 3.5 8 l106 100 q3 3 8 3 q5 0 8.5 -3.5 q3.5 -3.5 3.5 -8.5 l0 -40 l159 0 q5 0 8.5 -3.5 q3.5 -3.5 3.5 -8.5 q0 -5 -3.5 -8.5 q-3.5 -3.5 -8.5 -3.5 l-171 0 q-5 0 -8.5 3.5 q-3.5 3.5 -3.5 8.5 l0 24 l-76 -70 l76 -68 l0 19 q0 4 3.5 8 q3.5 4 8.5 4 l223 0 l0 44 q0 5 3.5 8.5 q3.5 3.5 8 3.5 q4.5 0 8.5 -3 l118 -101 q4 -4 4.5 -9 q0.5 -5 -2.5 -8 l-118 -107 q-3 -4 -8 -4 Z" /><glyph glyph-name="trash" unicode="&#xea53;" d="M464 459 l-151 0 q3 4 2 9 q-1 5 -4.5 7.5 q-3.5 2.5 -7.5 2.5 l-108 0 q-5 0 -9 -3.5 q-4 -3.5 -4 -8 q0 -4.5 3 -7.5 l-151 0 q-5 0 -8.5 -3 q-3.5 -3 -4 -8 q-0.5 -5 3 -8.5 q3.5 -3.5 8.5 -4.5 l43 0 l0 -401 q0 -5 3.5 -8.5 q3.5 -3.5 8.5 -3.5 l322 0 q5 0 8.5 3.5 q3.5 3.5 3.5 8.5 l0 401 l41 0 q5 0 8.5 3 q3.5 3 4 8 q0.5 5 -2.5 8.5 q-3 3.5 -8 4.5 l-1 0 ZM398 46 l-298 0 l0 389 l298 0 l0 -389 ZM280 169 l0 133 q0 5 3 8 q3 3 7.5 4 q4.5 1 8.5 -2 q4 -3 5 -8 l0 -136 q0 -5 -3.5 -8.5 q-3.5 -3.5 -8.5 -3.5 l-2 0 q-4 1 -7 4.5 q-3 3.5 -3 7.5 l0 1 ZM197 169 l0 133 q0 5 3 8 q3 3 7.5 4 q4.5 1 8.5 -2 q4 -3 5 -8 l0 -136 q0 -5 -3.5 -8.5 q-3.5 -3.5 -8.5 -3.5 l-2 0 q-4 1 -7 4.5 q-3 3.5 -3 7.5 l0 1 Z" /><glyph glyph-name="triangle_d" unicode="&#xea54;" d="M250 54 l226 392 l-452 0 l226 -392 Z" /><glyph glyph-name="triangle_u" unicode="&#xea55;" d="M250 446 l-226 -392 l452 0 l-226 392 Z" /><glyph glyph-name="unlocked" unicode="&#xea56;" d="M284 191 q1 -12 -5 -21.5 q-6 -9.5 -17 -13.5 l0 -54 q0 -5 -3 -8.5 q-3 -3.5 -8 -4 q-5 -0.5 -8.5 2.5 q-3.5 3 -4.5 8 l0 56 q-13 5 -19 18 q-6 13 -1 26 q5 13 18 18.5 q13 5.5 26 0.5 q9 -3 15 -11 q6 -8 7 -18 l0 1 ZM423 322 l-254 0 l-6 57 q-4 34 19 61 q23 27 59 31 q36 4 63 -20.5 q27 -24.5 37 -69.5 l23 7 l-3 12 q-13 48 -45.5 74 q-32.5 26 -77.5 21 q-30 -3 -53.5 -20 q-23.5 -17 -36 -43.5 q-12.5 -26.5 -9.5 -55.5 l6 -54 l-68 0 q-5 0 -8.5 -3.5 q-3.5 -3.5 -3.5 -8.5 l0 -296 q0 -5 3.5 -8.5 q3.5 -3.5 8.5 -3.5 l346 0 q5 0 8.5 3.5 q3.5 3.5 3.5 8.5 l0 296 q0 5 -3.5 8.5 q-3.5 3.5 -8.5 3.5 ZM411 26 l-322 0 l0 272 l322 0 l0 -272 Z" /><glyph glyph-name="updown" unicode="&#xea57;" d="M43 306 l180 0 l-90 -112 l-90 112 ZM457 194 l-180 0 l90 112 l90 -112 Z" /><glyph glyph-name="usage" unicode="&#xea58;" d="M120 415 l-13 17 q-2 2 0 4 l4 2 q37 26 81 36 q3 1 3 -1 l0 0 l5 -22 q1 -2 -2 -3 l0 0 q-38 -9 -72 -32 l-3 -2 q-2 -2 -3 0 l0 1 ZM250 19 q-63 0 -119 30 q-2 2 -1 4 l0 0 l11 19 q1 2 3 1 q50 -27 106 -27 q43 0 81.5 15.5 q38.5 15.5 68.5 44.5 q30 29 45.5 66 q15.5 37 15.5 77 q0 55 -28 102 q-28 47 -75.5 75 q-47.5 28 -104.5 28 q-3 0 -2 3 l0 22 q-1 2 2 2 q47 0 89.5 -17.5 q42.5 -17.5 76 -50 q33.5 -32.5 51.5 -75 q18 -42.5 18 -89 q0 -46.5 -18 -88.5 q-18 -42 -51.5 -74.5 q-33.5 -32.5 -77 -50 q-43.5 -17.5 -91.5 -17.5 ZM81 86 q-2 -1 -3 0 l0 0 q-30 30 -46.5 68.5 q-16.5 38.5 -18.5 80.5 q-2 42 10.5 82 q12.5 40 38.5 74 q1 2 3 1 l17 -13 q2 -2 1 -4 q-23 -30 -34 -66 q-11 -36 -9 -72.5 q2 -36.5 16.5 -70.5 q14.5 -34 40.5 -61 q1 -1 0 -3 l-16 -16 Z" /><glyph glyph-name="user" unicode="&#xea59;" d="M420 192 q-46 46 -109 63 q30 16 47 45 q17 29 18 63 q1 34 -16 64 q-17 30 -46 47.5 q-29 17.5 -63 18 q-34 0.5 -64 -16.5 q-30 -17 -47 -46 q-17 -29 -18 -62.5 q-1 -33.5 16.5 -64.5 q17.5 -31 48.5 -48 q-52 -14 -93 -48.5 q-41 -34.5 -64 -83 q-23 -48.5 -23 -102.5 q0 -5 3.5 -8.5 q3.5 -3.5 8.5 -3.5 q5 0 8.5 3.5 q3.5 3.5 3.5 8.5 q0 59 29.5 109 q29.5 50 79.5 79 q50 29 109 29 q43 0 83 -16.5 q40 -16.5 71 -47 q31 -30.5 47.5 -70.5 q16.5 -40 16.5 -83 q0 -5 3.5 -8.5 q3.5 -3.5 8.5 -3.5 q5 0 8.5 3.5 q3.5 3.5 3.5 8.5 q0 48 -18.5 92.5 q-18.5 44.5 -52.5 78.5 l0 0 ZM146 365 q0 43 30 73 q30 30 73 30 q43 0 73 -30 q30 -30 30 -72.5 q0 -42.5 -30 -73 q-30 -30.5 -73 -30.5 q-43 0 -73 30.5 q-30 30.5 -30 72.5 l0 0 Z" /><glyph glyph-name="warning" unicode="&#xea5a;" d="M234 205 q0 -6 4.5 -10 q4.5 -4 11.5 -4 q7 0 11.5 4 q4.5 4 4.5 10 l0 124 q0 5 -4.5 9.5 q-4.5 4.5 -11.5 4.5 q-7 0 -11.5 -4 q-4.5 -4 -4.5 -10 l0 -124 ZM230 136 q0 -8 5.5 -13.5 q5.5 -5.5 13.5 -5.5 q8 0 14 5.5 q6 5.5 6 14 q0 8.5 -6 14 q-6 5.5 -14 5.5 q-8 0 -13.5 -5.5 q-5.5 -5.5 -5.5 -13.5 l0 -1 ZM250 437 l216 -367 l-432 0 l216 367 ZM250 465 q-12 0 -18 -10 l-224 -383 q-4 -6 -2 -13 q2 -7 8 -11 q4 -2 9 -2 l454 0 q7 0 12.5 5 q5.5 5 5.5 12 q0 5 -3 9 l-224 383 q-6 10 -18 10 l0 0 Z" /><glyph glyph-name="whats-this" unicode="&#xea5b;" d="M305 317 q0 -51 -61 -64 q-10 -3 -12 -5.5 q-2 -2.5 -2 -9.5 l0 -44 q1 -10 18 -10 q6 0 11.5 2.5 q5.5 2.5 5.5 8.5 l1 32 l0 0 q37 9 59 43 q5 8 8.5 20.5 q3.5 12.5 3.5 25.5 q0 37 -26.5 61 q-26.5 24 -71.5 24 q-25 0 -39 -6.5 q-14 -6.5 -11 -19.5 q1 -5 6 -8 q5 -3 13 -2 q20 4 33 4 q32 0 49 -15 q14 -14 14 -38 l1 1 ZM250 473 q70 0 128.5 -41 q58.5 -41 82 -107 q23.5 -66 4 -135.5 q-19.5 -69.5 -74 -113.5 q-54.5 -44 -125 -49 q-70.5 -5 -130 30.5 q-59.5 35.5 -88.5 100 q-29 64.5 -17 132.5 q10 52 42 93.5 q32 41.5 78.5 65.5 q46.5 24 99.5 24 ZM250 497 q-78 0 -142.5 -45.5 q-64.5 -45.5 -90.5 -118.5 q-26 -73 -5.5 -148.5 q20.5 -75.5 79.5 -124.5 q40 -34 90 -48 q50 -14 101.5 -7.5 q51.5 6.5 96.5 33.5 q65 40 96.5 111 q31.5 71 17.5 146 q-10 57 -45.5 103 q-35.5 46 -87.5 72.5 q-52 26.5 -110 26.5 l0 0 ZM226 120 q0 -10 6.5 -16.5 q6.5 -6.5 16 -6.5 q9.5 0 16 6.5 q6.5 6.5 6.5 16 q0 9.5 -6.5 16 q-6.5 6.5 -16 6.5 q-9.5 0 -16 -6.5 q-6.5 -6.5 -6.5 -16.5 l0 1 Z" /><glyph glyph-name="zones" unicode="&#xea5c;" d="M76 87 l0 0 q-5 0 -8.5 3.5 q-3.5 3.5 -3.5 8.5 l0 295 q0 5 3.5 8.5 q3.5 3.5 8.5 3.5 l129 0 q4 0 7.5 -3 q3.5 -3 4.5 -7.5 q1 -4.5 -2 -8.5 q-3 -4 -8 -5 l-119 0 l0 -283 q0 -5 -3.5 -8.5 q-3.5 -3.5 -8.5 -3.5 l0 0 ZM439 323 l-117 0 q-5 0 -8.5 2.5 q-3.5 2.5 -4 7.5 q-0.5 5 2.5 9 q3 4 7 5 l120 0 q4 0 7.5 -3 q3.5 -3 4.5 -7.5 q1 -4.5 -2 -8.5 q-3 -4 -8 -5 l-2 0 ZM18 146 l0 0 q-5 0 -8.5 3.5 q-3.5 3.5 -3.5 8.5 l0 0 l0 295 q0 5 3.5 8.5 q3.5 3.5 8.5 3.5 l129 0 q4 0 7.5 -3 q3.5 -3 4.5 -7.5 q1 -4.5 -2 -8.5 q-3 -4 -8 -5 l-119 0 l0 -283 q0 -5 -3.5 -8.5 q-3.5 -3.5 -8.5 -3.5 ZM382 382 l-114 0 q-5 0 -8 2.5 q-3 2.5 -4 7.5 q-1 5 2 9 q3 4 8 5 l115 0 q5 0 8.5 -3 q3.5 -3 4 -7.5 q0.5 -4.5 -2.5 -8.5 q-3 -4 -7 -5 l-2 0 ZM481 34 l-348 0 q-5 0 -8.5 3.5 q-3.5 3.5 -3.5 8.5 l0 288 q0 5 3.5 8.5 q3.5 3.5 8.5 3.5 l111 0 q6 0 9 -4 l44 -53 l184 0 q5 0 8.5 -3.5 q3.5 -3.5 3.5 -8.5 l0 -231 q0 -5 -3.5 -8.5 q-3.5 -3.5 -8.5 -3.5 ZM145 58 l324 0 l0 207 l-178 0 q-5 0 -9 4 l-43 53 l-94 0 l0 -264 Z" /><glyph glyph-name="zones_nav" unicode="&#xea5d;" d="M19 136 l0 0 q-5 0 -8.5 3 q-3.5 3 -3.5 8 l1 300 q-1 5 2.5 8.5 q3.5 3.5 8.5 3.5 l136 0 q5 0 8.5 -3.5 q3.5 -3.5 3.5 -8.5 q0 -5 -3.5 -8.5 q-3.5 -3.5 -8.5 -3.5 l-124 0 l-1 -288 q0 -5 -3.5 -8 q-3.5 -3 -7.5 -3 ZM72 84 l0 0 q-5 0 -8.5 3.5 q-3.5 3.5 -3.5 7.5 l1 300 q0 5 3 8.5 q3 3.5 8 3.5 l136 0 q5 0 8.5 -3.5 q3.5 -3.5 3.5 -8 q0 -4.5 -3.5 -8 q-3.5 -3.5 -8.5 -3.5 l-124 0 l-1 -289 q0 -4 -3.5 -7.5 q-3.5 -3.5 -7.5 -3.5 ZM443 332 l-141 0 q-5 0 -8.5 3.5 q-3.5 3.5 -3.5 8 q0 4.5 3.5 8 q3.5 3.5 8.5 3.5 l141 0 q5 0 8.5 -3.5 q3.5 -3.5 3.5 -8 q0 -4.5 -3.5 -8 q-3.5 -3.5 -8.5 -3.5 ZM408 384 l-142 0 q-4 0 -7.5 3.5 q-3.5 3.5 -3.5 8 q0 4.5 3 8 q3 3.5 8 3.5 l142 0 q5 0 8 -3.5 q3 -3.5 3 -8 q0 -4.5 -3 -8 q-3 -3.5 -8 -3.5 ZM479 39 l-354 0 q-5 0 -8.5 3 q-3.5 3 -3.5 8 l0 294 q0 4 3.5 7.5 q3.5 3.5 8.5 3.5 l117 0 q6 0 9 -5 l34 -47 l194 0 q4 0 7.5 -3.5 q3.5 -3.5 3.5 -8.5 l0 -241 q0 -5 -3.5 -8 q-3.5 -3 -7.5 -3 ZM136 62 l331 0 l0 218 l-188 0 q-6 0 -9 5 l-34 47 l-100 0 l0 -270 Z" /></font>
</defs>
</svg>
